{"glyphs":{"0":{"ha":729,"x_min":58,"x_max":725,"o":"m 313 -12 q 128 65 197 -12 q 58 275 58 143 q 167 628 58 490 q 469 767 276 767 q 656 689 586 767 q 725 478 725 611 q 615 126 725 264 q 313 -12 506 -12 m 196 293 q 196 242 196 293 q 235 126 196 192 q 350 61 274 61 q 472 108 426 61 q 551 258 517 156 q 586 462 586 360 q 547 628 586 564 q 432 693 508 693 q 311 646 356 693 q 231 497 267 599 q 196 293 196 394 z "},"1":{"ha":492,"x_min":28,"x_max":424,"o":"m 415 0 l 28 0 l 29 54 q 142 83 111 67 q 179 133 172 100 l 258 560 q 268 628 268 608 q 262 653 268 649 q 231 657 256 657 q 140 650 206 657 l 140 703 q 272 740 185 721 q 404 760 358 758 l 418 746 l 303 128 q 300 99 300 106 q 326 69 300 74 l 424 54 l 415 0 z "},"2":{"ha":657,"x_min":26,"x_max":624,"o":"m 542 0 l 26 0 l 40 74 q 188 178 142 146 q 298 261 235 211 q 386 338 361 311 q 440 402 411 364 q 476 473 468 440 q 485 556 485 506 q 450 649 485 606 q 351 693 415 693 q 257 672 286 693 q 203 522 219 646 l 129 531 q 146 703 129 644 q 393 767 238 767 q 563 711 503 767 q 624 571 624 656 q 531 351 624 454 q 206 108 438 249 l 207 99 l 292 101 q 465 111 436 106 q 518 219 488 117 l 582 214 q 542 0 571 99 z "},"3":{"ha":651,"x_min":11,"x_max":624,"o":"m 11 -192 l 19 -114 q 442 138 442 -60 q 399 239 442 200 q 269 278 356 278 q 201 272 239 278 l 213 339 q 424 426 356 363 q 492 552 492 489 q 456 654 492 615 q 359 693 421 693 q 265 676 297 693 q 200 522 233 658 l 128 531 q 149 703 128 636 q 371 767 258 767 q 553 716 483 767 q 624 588 624 665 q 572 453 624 510 q 444 361 521 396 l 444 350 q 593 165 593 311 q 431 -75 593 18 q 11 -192 269 -168 z "},"4":{"ha":738,"x_min":-4,"x_max":707,"o":"m 679 61 l 550 61 l 507 -169 q 396 -178 463 -178 l 383 -164 l 425 61 l 13 61 l 11 63 l -4 147 l 542 742 q 664 760 622 760 l 678 746 l 565 143 l 707 140 l 679 61 m 440 144 l 521 579 q 532 621 531 617 l 524 625 l 126 190 q 96 160 115 176 l 100 150 l 440 144 z "},"5":{"ha":669,"x_min":-3,"x_max":694,"o":"m -3 -192 l 6 -114 q 475 161 475 -56 q 431 274 475 226 q 308 321 388 321 q 132 303 228 321 l 107 339 l 214 746 l 569 746 q 585 755 576 746 q 625 847 594 764 l 694 838 q 638 633 665 711 l 276 633 l 215 399 q 357 408 294 408 q 559 351 492 408 q 626 199 626 294 q 453 -62 626 42 q -3 -192 279 -167 z "},"6":{"ha":717,"x_min":74,"x_max":700,"o":"m 263 497 l 274 493 q 475 585 361 585 q 627 517 565 585 q 689 332 689 449 q 588 85 689 182 q 353 -12 486 -12 q 147 66 221 -12 q 74 276 74 144 q 127 519 74 407 q 268 715 181 631 q 463 859 356 799 q 683 944 571 919 l 700 888 q 263 497 372 760 m 365 56 q 508 134 463 56 q 553 306 553 213 q 521 444 553 399 q 438 489 489 489 q 277 447 350 489 q 204 279 204 404 q 365 56 204 56 z "},"7":{"ha":625,"x_min":76,"x_max":693,"o":"m 76 529 q 122 746 92 660 l 693 746 l 676 663 q 225 -186 338 251 q 185 -190 210 -190 q 83 -168 114 -190 q 272 222 136 -14 q 568 633 407 457 l 567 643 l 328 639 q 203 633 235 636 q 181 614 192 632 q 139 522 169 596 l 76 529 z "},"8":{"ha":721,"x_min":40,"x_max":736,"o":"m 531 494 l 528 482 q 549 475 536 482 q 647 385 610 443 q 683 260 683 328 q 576 65 683 142 q 322 -12 468 -12 q 139 26 222 -12 q 67 89 94 47 q 40 186 40 131 q 95 335 40 271 q 203 426 150 399 q 274 454 257 454 l 275 467 q 253 474 264 467 q 158 656 158 536 q 245 858 158 775 q 475 940 332 940 q 692 864 618 940 q 736 747 736 818 q 692 613 736 676 q 598 522 649 550 q 531 494 547 494 m 461 518 q 601 654 569 582 q 617 742 617 689 q 576 833 617 796 q 457 871 536 871 q 333 816 378 871 q 288 696 288 761 q 342 588 288 631 q 461 518 378 560 m 344 425 q 249 372 313 415 q 186 306 213 349 q 160 203 160 263 q 208 104 160 144 q 347 64 256 64 q 492 108 439 64 q 546 224 546 153 q 484 342 546 296 q 344 425 422 389 z "},"9":{"ha":717,"x_min":72,"x_max":696,"o":"m 72 -190 l 74 -128 q 344 0 239 -89 q 506 250 449 89 l 496 254 q 319 174 424 174 q 151 244 215 174 q 86 428 86 315 q 187 669 86 571 q 426 767 288 767 q 630 682 564 767 q 696 467 696 597 q 550 67 696 261 q 353 -101 478 -31 q 72 -190 229 -171 m 356 269 q 478 294 433 269 q 539 351 524 318 q 569 500 569 418 q 529 640 569 582 q 406 699 489 699 q 274 623 324 699 q 224 454 224 547 q 263 315 224 361 q 356 269 301 269 z "}," ":{"ha":340,"x_min":0,"x_max":0,"o":""},"!":{"ha":314,"x_min":25,"x_max":372,"o":"m 178 249 l 107 249 l 210 935 l 360 976 l 372 950 l 178 249 m 108 138 q 126 138 108 138 q 165 122 144 138 q 185 71 185 106 q 160 12 185 36 q 100 -12 136 -12 q 25 51 25 -12 q 49 113 25 89 q 108 138 72 138 z "},"\"":{"ha":460,"x_min":165,"x_max":554,"o":"m 433 714 l 375 718 l 429 1046 l 540 1081 l 554 1054 l 433 714 m 224 714 l 165 718 l 219 1046 l 331 1081 l 344 1054 l 224 714 z "},"#":{"ha":765,"x_min":63,"x_max":799,"o":"m 446 0 l 364 0 l 461 308 l 279 308 l 182 0 l 100 0 l 197 308 l 63 308 l 78 390 l 224 390 l 290 601 l 146 601 l 161 683 l 315 683 l 404 963 l 485 963 l 396 683 l 579 683 l 668 963 l 749 963 l 660 683 l 799 683 l 783 601 l 635 601 l 568 390 l 715 390 l 700 308 l 543 308 l 446 0 m 488 390 l 554 601 l 371 601 l 304 390 l 488 390 z "},"$":{"ha":625,"x_min":60,"x_max":592,"o":"m 278 -178 l 206 -178 l 235 -12 q 60 35 125 -7 q 99 249 63 136 l 176 249 q 171 157 171 193 q 250 68 171 79 l 297 332 q 217 379 247 358 q 161 442 188 400 q 135 538 135 485 q 200 692 135 629 q 376 764 265 754 l 407 929 l 479 929 l 449 765 q 592 735 519 760 q 556 546 582 638 l 476 546 q 481 624 481 597 q 473 667 481 651 q 435 689 465 683 l 388 432 q 506 361 469 389 q 568 243 568 311 q 498 75 568 144 q 308 -8 428 6 l 278 -178 m 322 468 l 364 690 q 272 667 299 686 q 251 628 260 657 q 242 572 242 599 q 322 468 242 517 m 364 297 l 322 67 q 414 90 394 71 q 437 133 426 101 q 447 190 447 165 q 364 297 447 250 z "},"%":{"ha":1122,"x_min":108,"x_max":1100,"o":"m 307 397 q 162 465 215 397 q 108 633 108 532 q 191 881 108 768 q 393 994 274 994 q 538 926 483 994 q 592 757 592 858 q 508 508 592 619 q 307 397 425 397 m 328 0 l 236 0 l 865 963 l 956 963 l 328 0 m 326 450 q 444 540 406 450 q 482 736 482 629 q 374 942 482 942 q 283 889 319 942 q 218 623 218 796 q 326 450 218 450 m 815 -12 q 670 55 724 -12 q 617 224 617 122 q 699 472 617 358 q 901 585 782 585 q 1046 517 992 585 q 1100 347 1100 449 q 1017 99 1100 210 q 815 -12 933 -12 m 835 40 q 952 130 914 40 q 990 326 990 219 q 882 532 990 532 q 792 479 828 532 q 726 213 726 386 q 835 40 726 40 z "},"&":{"ha":951,"x_min":51,"x_max":990,"o":"m 858 0 l 672 0 l 601 94 q 314 -12 467 -12 q 124 56 196 -12 q 51 222 51 124 q 286 528 51 432 q 225 725 225 614 q 305 906 225 836 q 518 975 385 975 q 703 940 619 975 q 656 769 703 875 l 590 763 q 596 844 596 813 q 585 883 596 875 q 494 901 563 901 q 385 866 426 901 q 343 751 343 831 q 425 561 343 672 l 657 249 q 741 398 710 319 q 772 519 772 476 q 747 579 772 563 q 654 603 722 596 l 674 657 l 990 657 l 985 603 l 896 586 q 867 567 872 581 q 861 550 864 561 q 700 190 815 340 l 772 94 q 876 54 799 60 l 858 0 m 561 150 l 326 471 q 203 260 203 406 q 251 132 203 189 q 382 75 299 75 q 561 150 465 75 z "},"'":{"ha":250,"x_min":165,"x_max":344,"o":"m 224 714 l 165 718 l 219 1046 l 331 1081 l 344 1054 l 224 714 z "},"(":{"ha":404,"x_min":90,"x_max":539,"o":"m 321 -224 l 267 -262 q 144 -31 199 -176 q 90 275 90 114 q 201 698 90 499 q 499 1057 313 897 l 539 1018 q 292 667 383 869 q 201 244 201 465 q 234 -16 201 111 q 321 -224 267 -143 z "},")":{"ha":404,"x_min":-49,"x_max":403,"o":"m -8 -262 l -49 -224 q 199 136 108 -67 q 290 557 290 339 q 258 809 290 686 q 168 1018 226 932 l 222 1057 q 349 829 294 969 q 403 532 403 689 q 289 104 403 310 q -8 -262 175 -101 z "},"*":{"ha":543,"x_min":118,"x_max":628,"o":"m 544 624 l 525 621 l 417 718 q 392 749 393 739 l 381 743 q 388 703 388 713 l 378 557 l 290 528 l 281 543 l 333 701 q 351 743 344 736 l 343 749 q 308 717 329 729 l 175 629 l 118 685 l 129 703 l 289 763 q 332 774 318 774 l 335 785 q 294 793 315 785 l 169 850 l 201 936 l 221 939 l 329 840 q 354 810 353 819 l 365 815 q 360 851 360 826 l 360 857 l 369 1003 l 457 1033 l 467 1017 l 415 858 q 396 817 401 822 l 404 811 q 439 843 418 831 l 572 931 l 628 875 l 617 857 l 458 796 q 415 785 429 785 l 413 774 q 451 767 438 774 l 576 708 l 544 624 z "},"+":{"ha":647,"x_min":76,"x_max":599,"o":"m 372 101 l 303 101 l 303 339 l 76 339 l 76 413 l 303 413 l 303 644 l 372 644 l 372 413 l 599 413 l 599 339 l 372 339 l 372 101 z "},",":{"ha":350,"x_min":110,"x_max":318,"o":"m 138 -190 l 110 -154 q 188 -18 188 -100 q 172 33 188 11 q 156 85 156 56 q 180 135 156 114 q 237 157 204 157 q 294 130 269 157 q 318 60 318 103 q 138 -190 318 -64 z "},"-":{"ha":410,"x_min":47,"x_max":367,"o":"m 344 318 l 47 282 l 64 385 l 367 404 l 344 318 z "},".":{"ha":350,"x_min":131,"x_max":304,"o":"m 211 -12 q 131 64 131 -12 q 157 128 131 100 q 222 157 183 157 q 304 86 304 157 q 277 17 304 46 q 211 -12 250 -12 z "},"/":{"ha":543,"x_min":-37,"x_max":678,"o":"m 60 -83 l -37 -83 l 582 1072 l 678 1072 l 60 -83 z "},":":{"ha":350,"x_min":85,"x_max":350,"o":"m 257 508 q 176 583 176 508 q 203 649 176 621 q 268 678 229 678 q 350 607 350 678 q 323 538 350 567 q 257 508 296 508 m 165 -12 q 85 64 85 -12 q 111 128 85 100 q 176 157 138 157 q 258 86 258 157 q 231 17 258 46 q 165 -12 204 -12 z "},";":{"ha":350,"x_min":64,"x_max":365,"o":"m 272 508 q 192 583 192 508 q 218 649 192 621 q 283 678 244 678 q 365 607 365 678 q 338 538 365 567 q 272 508 311 508 m 92 -190 l 64 -154 q 142 -18 142 -100 q 126 33 142 11 q 110 85 110 56 q 137 135 110 114 q 197 157 164 157 q 251 135 231 157 q 272 69 272 113 q 221 -68 272 0 q 92 -190 169 -136 z "},"<":{"ha":718,"x_min":36,"x_max":681,"o":"m 681 -6 l 36 313 l 36 382 l 681 701 l 681 606 l 144 347 l 681 90 l 681 -6 z "},"=":{"ha":668,"x_min":89,"x_max":611,"o":"m 611 431 l 89 431 l 89 504 l 611 504 l 611 431 m 611 240 l 89 240 l 89 314 l 611 314 l 611 240 z "},">":{"ha":718,"x_min":85,"x_max":729,"o":"m 729 313 l 85 -6 l 85 90 l 621 347 l 85 606 l 85 701 l 729 382 l 729 313 z "},"?":{"ha":589,"x_min":136,"x_max":657,"o":"m 158 764 l 157 799 q 165 858 157 810 q 176 917 174 906 q 418 975 285 975 q 588 922 518 975 q 657 778 657 868 q 608 631 657 689 q 456 513 560 572 q 324 419 353 453 q 290 367 296 386 q 285 320 285 349 q 286 283 285 292 l 217 264 q 178 388 178 342 q 195 453 178 433 q 221 483 213 474 q 253 508 229 493 q 285 529 276 524 q 324 552 293 535 q 381 583 356 569 q 485 659 433 615 q 536 769 536 703 q 493 868 536 835 q 390 901 450 901 q 283 879 331 901 q 262 853 271 874 q 232 756 253 832 l 158 764 m 225 138 q 278 121 256 138 q 300 70 300 104 q 276 12 300 36 q 216 -12 253 -12 q 158 7 179 -12 q 136 56 136 26 q 225 138 136 138 z "},"@":{"ha":1094,"x_min":51,"x_max":1081,"o":"m 690 -122 l 678 -139 q 463 -168 529 -168 q 153 -62 256 -168 q 51 228 51 44 q 219 653 51 486 q 643 819 386 819 q 957 725 833 819 q 1081 450 1081 631 q 1031 226 1081 347 q 889 18 981 106 q 722 -1 746 3 q 665 81 665 8 q 676 163 665 111 l 688 221 l 678 224 q 438 3 581 3 q 299 203 299 3 q 394 508 299 383 q 625 632 490 632 q 763 606 683 632 l 818 619 l 844 603 l 818 481 q 765 140 765 239 q 806 69 765 69 q 896 145 854 69 q 956 305 938 221 q 975 444 975 389 q 879 662 975 574 q 618 750 783 750 q 413 706 503 750 q 271 589 324 663 q 165 240 165 439 q 510 -94 165 -94 q 678 -67 560 -94 l 690 -122 m 713 525 q 583 561 640 561 q 504 540 525 561 q 444 399 471 500 q 417 213 417 297 q 476 88 417 88 q 623 236 547 88 q 713 525 699 385 z "},"A":{"ha":929,"x_min":-25,"x_max":890,"o":"m 883 0 l 550 0 l 550 56 q 638 79 611 68 q 665 107 665 90 q 664 131 665 124 l 638 311 l 278 311 l 168 111 q 158 89 158 92 q 165 81 158 82 l 254 54 l 247 0 l -25 0 l -25 56 q 44 78 31 69 q 74 115 58 86 l 544 975 l 660 975 l 814 89 q 890 54 818 68 l 883 0 m 626 385 l 563 775 q 561 815 561 792 l 547 815 l 317 385 l 626 385 z "},"B":{"ha":864,"x_min":32,"x_max":839,"o":"m 431 0 l 32 0 l 32 54 q 139 97 125 68 q 151 140 146 108 l 268 822 q 272 859 272 842 q 253 887 272 876 q 178 908 235 897 l 186 963 l 568 963 q 767 906 696 963 q 839 755 839 849 q 776 592 839 661 q 647 503 714 524 l 647 493 q 772 419 726 472 q 818 281 818 365 q 736 90 818 172 q 615 24 693 49 q 431 0 536 0 m 351 540 l 457 540 q 626 589 565 540 q 686 735 686 638 q 507 889 686 889 l 410 889 l 351 540 m 474 463 l 339 463 l 286 135 q 283 102 282 113 q 297 86 285 92 q 406 69 331 69 q 665 278 665 69 q 599 429 665 390 q 474 463 542 463 z "},"C":{"ha":817,"x_min":82,"x_max":860,"o":"m 711 278 l 788 275 q 754 50 776 157 q 622 7 708 26 q 447 -12 535 -12 q 178 99 274 -12 q 82 379 82 210 q 153 696 82 549 q 250 837 192 776 q 402 936 308 897 q 590 975 496 975 q 760 961 683 975 q 860 936 838 947 q 832 703 860 844 l 751 692 q 722 869 743 850 q 667 890 713 879 q 578 901 622 901 q 427 860 493 901 q 321 749 361 819 q 240 401 240 607 q 314 149 240 233 q 494 65 388 65 q 584 78 542 65 q 639 100 626 90 q 711 278 658 113 z "},"D":{"ha":958,"x_min":31,"x_max":976,"o":"m 432 0 l 31 0 l 31 54 q 124 82 106 67 q 150 140 142 97 l 271 822 q 275 860 275 843 q 256 888 275 876 q 179 908 238 899 l 188 963 l 592 963 q 769 931 693 963 q 889 847 846 900 q 976 589 976 740 q 850 193 976 369 q 678 53 786 106 q 432 0 569 0 m 549 889 l 417 889 l 286 151 q 282 121 282 122 q 306 93 282 99 q 447 74 399 74 q 724 210 629 74 q 818 563 818 346 q 792 719 818 651 q 725 821 767 786 q 549 889 643 889 z "},"E":{"ha":822,"x_min":28,"x_max":844,"o":"m 763 249 q 704 0 750 138 l 28 0 l 28 54 q 122 82 103 67 q 150 140 142 97 l 269 822 q 274 859 274 842 q 255 888 274 876 q 179 908 236 899 l 188 963 l 844 963 q 813 746 844 892 l 731 736 q 725 856 729 832 q 710 882 721 881 q 626 888 676 886 l 417 892 l 351 518 l 560 518 q 586 547 571 518 q 621 617 601 575 l 664 613 q 635 338 640 482 l 583 329 q 570 425 575 406 q 556 444 565 444 l 338 444 l 272 71 l 396 72 q 560 81 536 76 q 597 92 583 86 q 686 256 622 99 l 763 249 z "},"F":{"ha":758,"x_min":28,"x_max":844,"o":"m 431 0 l 28 0 l 28 54 q 122 82 103 67 q 150 140 142 97 l 269 822 q 274 859 274 842 q 255 888 274 876 q 179 908 236 899 l 188 963 l 844 963 q 813 746 844 892 l 731 736 q 725 856 729 832 q 710 882 721 881 q 626 888 676 886 l 417 892 l 349 506 l 563 506 q 642 604 597 506 l 683 600 q 654 325 660 469 l 603 317 q 560 432 590 432 l 336 432 l 283 132 q 281 107 281 118 q 313 69 281 72 l 438 54 l 431 0 z "},"G":{"ha":901,"x_min":83,"x_max":889,"o":"m 615 88 l 643 281 q 646 318 646 303 q 627 345 646 333 q 550 367 608 357 l 565 421 l 889 421 l 889 367 l 815 350 q 782 314 788 344 l 744 51 q 615 8 699 28 q 446 -12 531 -12 q 175 101 267 -12 q 83 383 83 214 q 153 696 83 553 q 251 837 193 776 q 403 936 310 897 q 591 975 497 975 q 762 961 685 975 q 861 936 839 947 q 835 703 861 843 l 754 692 q 725 869 744 853 q 670 890 715 879 q 581 901 625 901 q 388 829 467 901 q 242 403 242 696 q 315 152 242 239 q 497 65 388 65 q 615 88 563 65 z "},"H":{"ha":1036,"x_min":31,"x_max":1106,"o":"m 944 0 l 599 0 l 599 54 q 692 82 674 67 q 718 140 710 97 l 774 454 l 340 454 l 285 143 q 281 101 281 126 q 313 68 281 75 l 383 54 l 376 0 l 31 0 l 31 54 q 124 82 106 67 q 150 140 142 97 l 269 822 q 274 859 274 842 q 255 888 274 876 q 179 908 236 899 l 188 963 l 538 963 l 533 908 l 444 892 q 414 872 421 886 q 411 856 413 867 l 354 538 l 788 538 l 838 822 q 842 859 842 842 q 823 888 842 876 q 747 908 804 899 l 756 963 l 1106 963 l 1101 908 l 1013 892 q 983 872 989 886 q 979 856 981 867 l 853 140 q 849 108 849 115 q 876 69 849 76 l 951 54 l 944 0 z "},"I":{"ha":468,"x_min":31,"x_max":539,"o":"m 271 822 l 275 854 q 256 888 275 876 q 181 908 238 899 l 189 963 l 539 963 l 535 908 l 446 892 q 411 856 417 886 l 285 142 q 281 106 281 119 q 318 67 281 74 l 383 54 l 376 0 l 31 0 l 31 54 q 124 82 106 67 q 150 140 142 97 l 271 822 z "},"J":{"ha":464,"x_min":-101,"x_max":551,"o":"m 176 292 l 269 822 q 272 846 272 839 q 250 885 272 872 q 165 908 228 897 l 174 963 l 551 963 l 547 908 l 444 892 q 413 864 415 886 l 317 325 q 185 -45 275 89 q -37 -179 96 -179 q -101 -147 -101 -179 q -82 -71 -101 -111 q -44 -31 -62 -31 q 4 -40 -31 -31 q 58 -49 39 -49 q 126 47 100 -49 q 176 292 151 143 z "},"K":{"ha":928,"x_min":28,"x_max":1024,"o":"m 894 0 l 686 0 l 401 419 l 322 351 l 285 142 q 281 106 281 119 q 318 67 281 74 l 374 54 l 367 0 l 28 0 l 28 54 q 122 82 103 67 q 150 140 142 97 l 269 822 q 274 859 274 842 q 255 888 274 876 q 179 908 236 899 l 188 963 l 538 963 l 533 908 l 444 892 q 414 872 421 886 q 411 856 413 867 l 346 489 l 772 844 q 800 881 800 868 q 711 907 800 903 l 719 963 l 1024 963 l 1019 904 q 940 877 969 900 q 900 844 910 854 l 508 510 l 783 111 q 826 71 801 83 q 901 54 850 58 l 894 0 z "},"L":{"ha":775,"x_min":28,"x_max":769,"o":"m 769 289 q 704 0 754 163 l 28 0 l 28 54 q 122 82 103 67 q 150 140 142 97 l 269 822 q 274 859 274 842 q 255 888 274 876 q 179 908 236 899 l 188 963 l 538 963 l 533 908 l 444 892 q 414 872 421 886 q 411 856 413 867 l 272 71 l 396 72 q 578 83 551 75 q 694 296 604 90 l 769 289 z "},"M":{"ha":1211,"x_min":24,"x_max":1232,"o":"m 1122 0 l 774 0 l 774 54 q 866 81 844 67 q 893 129 888 96 l 988 764 q 1000 817 993 800 l 989 817 l 615 28 l 497 28 l 365 819 l 356 819 l 244 142 q 240 106 240 119 q 278 67 240 72 l 361 54 l 354 0 l 24 0 l 24 54 q 123 83 101 68 q 151 140 144 99 l 263 822 q 265 853 265 847 q 247 887 265 875 q 171 908 228 899 l 178 963 l 469 963 l 586 232 q 590 197 590 207 l 604 197 q 608 208 606 203 q 612 218 610 213 q 615 225 614 224 l 958 963 l 1232 963 l 1229 908 l 1168 892 q 1138 860 1140 883 l 1031 142 q 1026 106 1026 118 q 1064 67 1026 74 l 1129 54 l 1122 0 z "},"N":{"ha":1024,"x_min":28,"x_max":1096,"o":"m 818 0 l 732 0 l 374 822 l 363 822 l 242 132 q 239 107 239 118 q 271 69 239 72 l 386 54 l 379 0 l 28 0 l 28 54 q 122 82 103 67 q 150 140 142 97 l 269 822 q 274 859 274 842 q 255 888 274 876 q 179 908 236 899 l 188 963 l 463 963 l 761 263 l 771 263 l 865 794 q 869 845 869 819 q 845 885 869 871 q 751 908 821 900 l 760 963 l 1096 963 l 1092 908 l 1003 892 q 972 872 979 886 q 969 856 971 867 l 818 0 z "},"O":{"ha":931,"x_min":83,"x_max":933,"o":"m 428 -12 q 173 97 263 -12 q 83 381 83 206 q 217 810 83 644 q 588 975 351 975 q 843 867 753 975 q 933 590 933 760 q 799 156 933 325 q 428 -12 664 -12 m 460 61 q 611 110 546 61 q 711 239 676 160 q 776 556 776 394 q 719 810 776 718 q 554 901 663 901 q 431 869 485 901 q 285 676 331 811 q 239 394 239 540 q 296 155 239 249 q 460 61 353 61 z "},"P":{"ha":786,"x_min":29,"x_max":825,"o":"m 431 0 l 29 0 l 29 54 q 123 82 104 67 q 150 140 142 97 l 269 822 q 274 859 274 842 q 255 888 274 876 q 179 908 236 899 l 188 963 l 569 963 q 760 904 694 963 q 825 749 825 846 q 711 483 825 594 q 394 372 597 372 l 325 372 l 283 132 q 281 107 281 118 q 313 69 281 72 l 438 54 l 431 0 m 339 446 l 397 446 q 579 500 499 446 q 672 733 672 563 q 626 853 672 818 q 519 889 579 889 l 444 889 q 411 856 417 889 l 339 446 z "},"Q":{"ha":932,"x_min":86,"x_max":935,"o":"m 842 -82 l 867 -132 q 697 -211 758 -211 q 586 -147 636 -211 q 542 -92 565 -119 q 382 -10 485 -24 q 164 110 242 7 q 86 379 86 213 q 220 809 86 643 q 589 975 354 975 q 842 869 749 975 q 935 590 935 764 q 842 217 935 374 q 589 14 749 61 l 588 8 q 668 -52 611 -1 q 755 -103 725 -103 q 842 -82 785 -103 m 465 61 q 588 94 533 61 q 731 289 683 151 q 778 573 778 426 q 720 810 778 719 q 557 901 663 901 q 408 854 472 901 q 311 729 344 807 q 243 410 243 575 q 299 153 243 244 q 465 61 356 61 z "},"R":{"ha":850,"x_min":29,"x_max":817,"o":"m 801 0 l 601 0 l 411 422 l 335 422 l 285 138 q 281 106 281 117 q 307 69 281 76 l 374 54 l 367 0 l 29 0 l 29 54 q 123 82 104 67 q 150 140 142 97 l 269 822 q 274 859 274 842 q 255 887 274 876 q 179 908 236 897 l 188 963 l 557 963 q 750 906 683 963 q 817 741 817 850 q 740 549 817 632 q 546 443 663 465 l 544 436 q 569 406 558 432 l 704 111 q 738 69 718 81 q 808 54 758 58 l 801 0 m 347 493 l 410 493 q 597 553 529 493 q 665 716 665 614 q 620 853 665 818 q 501 889 575 889 l 444 889 q 411 856 417 889 l 347 493 z "},"S":{"ha":692,"x_min":21,"x_max":700,"o":"m 647 703 l 565 693 q 572 817 572 779 q 558 868 572 854 q 457 897 529 897 q 339 864 385 897 q 272 740 272 815 q 332 619 272 664 q 459 544 378 583 q 587 449 540 506 q 633 300 633 392 q 537 77 633 167 q 276 -12 440 -12 q 125 8 196 -12 q 21 47 54 28 q 74 278 21 143 l 154 282 q 149 153 149 182 q 165 111 149 125 q 226 81 182 97 q 324 65 269 65 q 425 99 379 65 q 494 240 494 149 q 403 389 494 332 q 350 421 375 407 q 192 531 238 479 q 146 671 146 583 q 247 890 146 804 q 508 975 347 975 q 700 938 615 975 q 647 703 694 836 z "},"T":{"ha":801,"x_min":96,"x_max":907,"o":"m 564 0 l 174 0 l 174 54 q 303 97 283 71 q 317 140 311 110 l 449 890 q 255 882 268 888 q 233 869 242 876 q 165 713 215 850 l 96 718 q 150 963 113 839 l 907 963 q 875 718 899 814 l 803 713 q 790 869 803 846 q 774 882 786 876 q 583 890 761 888 l 450 132 q 447 107 447 118 q 479 69 447 72 l 571 54 l 564 0 z "},"U":{"ha":999,"x_min":176,"x_max":1068,"o":"m 315 272 q 511 89 315 89 q 678 164 615 89 q 758 346 740 239 l 838 796 q 842 847 842 821 q 818 886 842 872 q 724 908 794 900 l 732 963 l 1068 963 l 1064 908 l 975 892 q 944 872 950 886 q 942 856 943 867 l 853 357 q 456 -12 786 -12 q 247 54 317 -12 q 176 243 176 121 q 186 346 176 292 l 269 822 q 274 860 274 842 q 255 888 274 878 q 179 908 236 897 l 188 963 l 538 963 l 533 908 l 444 892 q 414 872 421 886 q 411 856 413 867 l 325 367 q 315 272 315 306 z "},"V":{"ha":886,"x_min":115,"x_max":996,"o":"m 475 -12 l 367 -12 l 199 847 q 179 885 193 876 q 115 907 165 894 l 124 963 l 454 963 l 450 906 l 349 879 q 338 867 338 878 q 339 849 338 856 l 450 219 q 456 172 456 193 l 469 172 l 760 790 q 790 864 790 856 q 768 887 790 878 q 696 907 746 896 l 703 963 l 996 963 l 992 904 q 916 879 933 893 q 879 826 899 865 l 475 -12 z "},"W":{"ha":1313,"x_min":119,"x_max":1431,"o":"m 867 225 l 871 178 l 885 178 l 1192 790 q 1221 861 1221 849 q 1122 907 1221 890 l 1129 963 l 1431 963 l 1426 904 q 1348 879 1367 893 q 1308 826 1329 865 l 883 -12 l 775 -12 l 722 468 q 719 529 719 490 l 708 529 q 693 493 706 514 l 444 -12 l 332 -12 l 201 847 q 183 885 197 876 q 119 907 169 894 l 128 963 l 443 963 l 439 906 l 356 879 q 344 868 344 878 l 424 225 l 428 178 l 442 178 l 694 683 l 676 847 q 666 880 672 875 q 658 887 660 885 q 648 892 656 889 q 637 897 640 896 q 622 901 633 897 q 604 907 610 906 l 613 963 l 917 963 l 913 906 l 808 879 q 797 868 797 878 l 867 225 z "},"X":{"ha":833,"x_min":-53,"x_max":943,"o":"m 808 0 l 471 0 l 471 56 q 553 79 544 68 q 563 102 563 90 q 557 125 563 114 l 442 356 q 435 397 435 371 l 421 397 l 181 117 q 164 90 164 100 q 176 76 164 81 l 238 57 l 231 0 l -53 0 l -53 56 q 27 79 7 71 q 68 113 47 88 l 378 474 l 196 847 q 169 886 182 876 q 111 907 156 896 l 121 963 l 456 963 l 451 906 l 354 881 q 342 870 342 878 q 349 849 342 863 l 465 613 q 472 575 472 597 l 486 575 l 681 800 q 726 867 726 853 q 710 889 726 881 q 649 907 693 897 l 657 963 l 943 963 l 939 904 q 908 897 921 900 q 885 890 896 894 q 868 883 874 885 q 842 862 860 879 q 817 832 825 844 l 528 497 l 728 94 q 815 58 739 74 l 808 0 z "},"Y":{"ha":831,"x_min":125,"x_max":954,"o":"m 583 0 l 193 0 l 193 54 q 306 83 283 68 q 336 140 328 97 l 379 388 l 211 847 q 187 886 200 878 q 125 907 174 894 l 133 963 l 465 963 l 461 906 l 364 881 q 353 872 353 878 q 358 849 353 865 l 464 542 q 471 501 471 521 l 485 501 l 692 800 q 732 871 732 860 q 716 890 732 882 q 656 907 700 897 l 663 963 l 954 963 l 950 904 q 861 877 888 892 q 811 829 835 863 l 517 399 l 469 132 q 467 107 467 118 q 499 69 467 72 l 590 54 l 583 0 z "},"Z":{"ha":846,"x_min":15,"x_max":907,"o":"m 733 0 l 15 0 l 21 36 l 667 850 q 703 882 690 878 l 701 892 l 572 892 q 322 883 381 892 q 239 708 301 882 l 153 718 q 200 963 164 851 l 907 963 l 901 926 l 253 113 q 218 81 233 88 l 219 72 l 424 72 q 606 82 572 72 q 715 296 629 89 l 790 289 q 733 0 782 175 z "},"[":{"ha":394,"x_min":19,"x_max":468,"o":"m 242 -228 l 19 -228 l 244 1064 l 468 1064 l 456 990 l 329 990 l 128 -154 l 254 -154 l 242 -228 z "},"\\":{"ha":692,"x_min":14,"x_max":729,"o":"m 729 -83 l 632 -83 l 14 1072 l 110 1072 l 729 -83 z "},"]":{"ha":394,"x_min":-7,"x_max":442,"o":"m 215 -228 l -7 -228 l 6 -154 l 131 -154 l 332 990 l 206 990 l 218 1064 l 442 1064 l 215 -228 z "},"^":{"ha":696,"x_min":76,"x_max":706,"o":"m 706 450 l 611 450 l 381 885 l 171 450 l 76 450 l 328 963 l 435 963 l 706 450 z "},"_":{"ha":597,"x_min":-22,"x_max":592,"o":"m 592 -168 l -22 -168 l -22 -101 l 592 -101 l 592 -168 z "},"`":{"ha":253,"x_min":121,"x_max":342,"o":"m 342 814 l 293 779 l 121 989 l 126 1021 l 239 1063 l 342 814 z "},"a":{"ha":706,"x_min":46,"x_max":689,"o":"m 665 103 l 689 65 q 514 -12 581 -12 q 453 57 453 -12 q 476 193 453 86 l 490 257 l 479 260 q 190 -12 357 -12 q 82 42 118 -12 q 46 181 46 96 q 156 538 46 397 q 426 678 267 678 q 558 649 483 678 q 649 678 599 658 l 671 660 q 624 467 646 588 l 565 144 q 560 93 560 117 q 578 69 560 69 q 665 103 599 69 m 519 560 q 383 600 453 600 q 292 578 314 600 q 208 423 244 535 q 171 224 171 311 q 235 81 171 81 q 410 244 317 81 q 519 560 503 408 z "},"b":{"ha":682,"x_min":24,"x_max":663,"o":"m 46 -12 l 24 6 q 64 149 56 110 l 214 932 q 217 961 217 946 q 110 1008 217 989 l 117 1053 q 336 1072 274 1072 l 349 1058 q 333 932 346 1001 l 272 626 q 225 436 261 571 l 218 408 l 229 406 q 518 678 351 678 q 626 624 590 678 q 663 485 663 569 q 552 128 663 268 q 282 -12 442 -12 q 150 17 224 -12 q 46 -12 106 8 m 189 106 q 325 65 256 65 q 417 88 394 65 q 501 242 464 131 q 538 442 538 354 q 474 585 538 585 q 299 421 392 585 q 189 106 206 257 z "},"c":{"ha":546,"x_min":46,"x_max":546,"o":"m 444 485 l 447 540 q 444 575 447 564 q 374 600 435 600 q 315 590 346 600 q 271 571 283 581 q 206 429 238 532 q 174 244 174 326 q 199 126 174 163 q 291 89 225 89 q 463 163 357 89 l 496 126 q 372 28 443 69 q 231 -12 301 -12 q 103 47 160 -12 q 46 224 46 106 q 152 547 46 415 q 408 678 258 678 q 546 663 488 678 q 518 485 546 586 l 444 485 z "},"d":{"ha":710,"x_min":46,"x_max":732,"o":"m 665 103 l 689 65 q 514 -12 581 -12 q 453 57 453 -12 q 476 193 453 86 l 490 257 l 479 260 q 190 -12 357 -12 q 82 42 118 -12 q 46 181 46 96 q 156 538 46 397 q 426 678 267 678 q 544 656 475 678 l 597 932 q 600 961 600 946 q 493 1008 600 989 l 500 1053 q 719 1072 657 1072 l 732 1058 q 717 932 729 1001 l 565 144 q 560 93 560 117 q 578 69 560 69 q 665 103 599 69 m 519 560 q 383 600 453 600 q 292 578 314 600 q 208 423 244 535 q 171 224 171 311 q 235 81 171 81 q 410 244 317 81 q 519 560 503 408 z "},"e":{"ha":549,"x_min":46,"x_max":535,"o":"m 463 163 l 496 126 q 372 28 443 69 q 231 -12 301 -12 q 103 47 160 -12 q 46 224 46 106 q 151 546 46 414 q 401 678 256 678 q 498 648 461 678 q 535 558 535 618 q 414 379 535 446 q 172 299 311 321 q 169 251 169 282 q 196 126 169 163 q 290 89 222 89 q 463 163 357 89 m 179 358 q 351 431 289 386 q 413 533 413 476 q 349 600 413 600 q 271 571 304 600 q 217 482 244 543 q 179 358 190 421 z "},"f":{"ha":475,"x_min":-154,"x_max":682,"o":"m -93 -156 l -1 -174 q 56 -107 36 -174 q 89 53 75 -40 q 107 168 103 146 l 172 582 l 76 582 l 82 640 l 160 657 q 189 688 183 663 l 193 710 q 322 973 224 874 q 563 1072 419 1072 q 682 1057 629 1072 q 654 865 682 974 l 581 865 l 583 928 q 571 979 583 964 q 502 994 558 994 q 422 975 446 994 q 315 710 347 910 l 308 665 l 456 665 l 442 582 l 294 582 l 233 200 q 113 -169 196 -33 q -89 -304 31 -304 q -154 -267 -154 -304 q -136 -198 -154 -240 q -93 -156 -118 -156 z "},"g":{"ha":692,"x_min":-24,"x_max":671,"o":"m 624 467 l 549 61 q 415 -203 518 -101 q 161 -304 313 -304 q 36 -267 96 -304 q -24 -168 -24 -231 q 64 -21 -24 -79 q 147 7 103 4 l 146 18 q 119 26 131 18 q 46 196 46 74 q 156 542 46 406 q 426 678 267 678 q 558 649 483 678 q 649 678 599 658 l 671 660 q 624 467 646 588 m 519 560 q 383 600 453 600 q 292 578 314 600 q 208 429 244 536 q 171 239 171 322 q 235 101 171 101 q 410 258 317 101 q 519 560 503 415 m 476 193 l 490 257 l 479 260 q 288 44 410 122 q 224 8 264 26 q 157 -23 183 -10 q 110 -64 131 -36 q 89 -131 89 -92 q 117 -198 89 -169 q 197 -226 144 -226 q 283 -218 250 -226 q 341 -183 315 -210 q 383 -132 367 -157 q 476 193 421 -72 z "},"h":{"ha":726,"x_min":26,"x_max":694,"o":"m 518 -12 q 446 85 446 -12 q 528 429 446 129 q 547 539 547 503 q 499 585 547 585 q 392 539 451 585 q 282 417 333 493 q 197 232 231 342 q 163 7 163 122 q 49 -12 100 4 l 26 6 q 72 193 51 83 l 214 932 q 217 961 217 946 q 110 1008 217 989 l 117 1053 q 336 1072 274 1072 l 349 1058 q 333 932 346 1001 l 286 688 q 256 585 281 658 q 219 465 231 513 l 207 408 l 215 406 q 367 605 276 532 q 553 678 458 678 q 669 565 669 678 q 617 322 669 526 q 564 93 564 117 q 586 69 564 69 q 671 103 604 69 l 694 65 q 518 -12 586 -12 z "},"i":{"ha":351,"x_min":58,"x_max":346,"o":"m 266 1007 q 284 1007 266 1007 q 324 988 301 1007 q 346 934 346 969 q 324 876 346 899 q 265 853 301 853 q 190 931 190 853 q 210 985 190 963 q 266 1007 231 1007 m 311 103 l 335 65 q 161 -12 247 -12 q 86 75 86 -12 q 101 193 86 108 l 163 532 q 165 561 165 546 q 58 608 165 589 l 65 653 q 285 672 222 672 l 297 658 q 282 532 294 601 l 214 167 q 206 103 206 108 q 228 69 206 69 q 311 103 244 69 z "},"j":{"ha":353,"x_min":-185,"x_max":347,"o":"m 267 1007 q 285 1007 267 1007 q 325 988 303 1007 q 347 934 347 969 q 325 876 347 899 q 267 853 303 853 q 192 931 192 853 q 212 985 192 963 q 267 1007 232 1007 m 97 168 l 164 532 q 167 561 167 546 q 60 608 167 589 l 67 653 q 286 672 224 672 l 299 658 q 283 532 296 601 l 224 200 q 94 -170 181 -36 q -121 -304 7 -304 q -185 -272 -185 -304 q -165 -196 -185 -236 q -128 -156 -146 -156 q -79 -165 -114 -156 q -25 -174 -44 -174 q 46 -72 17 -174 q 82 85 67 4 q 97 168 97 165 z "},"k":{"ha":683,"x_min":26,"x_max":668,"o":"m 636 103 l 660 65 q 500 -12 565 -12 q 446 7 469 -12 q 385 90 422 26 l 236 343 q 163 7 163 185 q 49 -12 100 4 l 26 6 q 72 193 51 83 l 214 932 q 217 961 217 946 q 110 1008 217 989 l 117 1053 q 336 1072 274 1072 l 349 1058 q 333 932 346 1001 l 286 688 q 253 578 281 658 q 214 443 226 499 l 207 408 l 215 406 q 380 601 271 525 q 586 678 489 678 q 640 667 611 678 q 668 638 668 657 q 647 565 668 603 q 608 528 625 528 q 551 551 590 528 q 503 574 511 574 q 306 456 404 574 l 513 103 q 549 69 532 69 q 636 103 567 69 z "},"l":{"ha":325,"x_min":57,"x_max":349,"o":"m 282 103 l 306 65 q 132 -12 218 -12 q 57 75 57 -12 q 72 193 57 108 l 214 932 q 217 961 217 946 q 110 1008 217 989 l 117 1053 q 336 1072 274 1072 l 349 1058 q 333 932 346 1001 l 185 167 q 176 99 176 129 q 199 69 176 69 q 282 103 215 69 z "},"m":{"ha":1114,"x_min":56,"x_max":1082,"o":"m 906 -12 q 833 85 833 -12 q 915 429 833 129 q 935 539 935 503 q 890 585 935 585 q 769 518 833 585 q 664 365 706 451 q 594 181 622 278 q 565 7 565 83 q 451 -12 500 4 l 429 6 q 476 193 443 49 l 540 479 q 546 538 546 504 q 503 585 546 585 q 383 519 446 585 q 271 353 319 453 q 192 7 192 188 q 78 -12 129 4 l 56 6 q 101 193 81 83 l 161 524 q 164 553 164 538 q 57 600 164 581 l 64 644 q 283 664 221 664 l 296 650 l 236 408 l 244 406 q 367 591 282 504 q 547 678 453 678 q 658 568 658 678 q 624 408 658 513 l 632 406 q 758 592 674 506 q 940 678 843 678 q 1057 565 1057 678 q 1004 322 1057 526 q 951 93 951 117 q 974 69 951 69 q 1058 103 992 69 l 1082 65 q 906 -12 974 -12 z "},"n":{"ha":756,"x_min":56,"x_max":724,"o":"m 547 -12 q 475 85 475 -12 q 557 429 475 129 q 576 539 576 503 q 528 585 576 585 q 422 539 481 585 q 311 417 363 493 q 226 232 260 342 q 192 7 192 122 q 78 -12 129 4 l 56 6 q 101 193 81 83 l 161 524 q 164 553 164 538 q 57 600 164 581 l 64 644 q 283 664 221 664 l 296 650 q 236 408 265 549 l 244 406 q 397 605 306 532 q 582 678 488 678 q 699 565 699 678 q 646 322 699 526 q 593 93 593 117 q 615 69 593 69 q 700 103 633 69 l 724 65 q 547 -12 615 -12 z "},"o":{"ha":660,"x_min":46,"x_max":632,"o":"m 540 139 q 424 30 496 72 q 256 -12 353 -12 q 102 49 158 -12 q 46 222 46 111 q 136 525 46 382 q 251 635 179 593 q 421 678 324 678 q 575 615 518 678 q 632 440 632 553 q 540 139 632 276 m 176 247 q 300 61 176 61 q 408 97 363 61 q 469 224 436 119 q 501 426 501 328 q 376 604 501 604 q 269 568 315 604 q 209 442 242 546 q 176 247 176 338 z "},"p":{"ha":706,"x_min":-6,"x_max":686,"o":"m 17 -304 l -6 -286 q 40 -99 19 -208 l 157 524 q 160 553 160 538 q 53 600 160 581 l 60 644 q 279 664 217 664 l 292 650 l 242 408 l 253 406 q 542 678 375 678 q 650 624 614 678 q 686 485 686 569 q 576 128 686 268 q 306 -12 465 -12 q 169 18 253 -12 q 140 -285 140 -161 q 17 -304 63 -287 m 213 106 q 349 65 279 65 q 440 88 418 65 q 524 242 488 131 q 561 442 561 354 q 497 585 561 585 q 322 421 415 585 q 213 106 229 257 z "},"q":{"ha":688,"x_min":46,"x_max":671,"o":"m 376 -304 l 354 -286 q 400 -99 371 -235 l 411 -42 q 445 83 421 1 q 479 206 469 164 l 490 257 l 479 260 q 190 -12 357 -12 q 82 42 118 -12 q 46 181 46 96 q 156 538 46 397 q 426 678 267 678 q 558 649 483 678 q 649 678 599 658 l 671 660 q 555 124 608 414 q 500 -285 501 -165 q 376 -304 426 -287 m 519 560 q 383 600 453 600 q 292 578 314 600 q 208 423 244 535 q 171 224 171 311 q 235 81 171 81 q 410 244 317 81 q 519 560 503 408 z "},"r":{"ha":565,"x_min":56,"x_max":569,"o":"m 507 524 l 414 542 q 375 511 400 542 q 256 299 319 446 q 192 7 192 153 q 78 -12 129 4 l 56 6 q 101 193 81 83 l 161 524 q 164 553 164 538 q 57 600 164 581 l 64 644 q 283 664 221 664 l 296 650 l 236 408 l 246 406 q 328 551 282 488 q 506 678 419 678 q 569 646 569 678 q 548 565 569 607 q 507 524 526 524 z "},"s":{"ha":525,"x_min":18,"x_max":490,"o":"m 389 479 l 392 535 q 380 594 392 581 q 306 608 368 608 q 210 586 243 608 q 190 553 199 578 q 182 513 182 529 q 185 484 182 496 q 199 461 189 472 q 215 443 208 450 q 239 425 221 436 q 265 410 257 414 q 295 394 272 406 q 339 371 318 382 q 425 310 381 349 q 469 211 469 272 q 393 51 469 115 q 203 -12 317 -12 q 18 29 90 -12 q 53 219 21 117 l 122 219 q 117 136 117 171 q 221 61 117 61 q 331 82 304 61 q 351 118 342 92 q 360 162 360 144 q 356 191 360 179 q 343 213 353 203 q 328 231 333 224 q 304 248 322 238 q 280 263 286 258 q 250 278 274 267 q 122 365 160 322 q 85 486 85 407 q 154 622 85 565 q 339 678 224 678 q 490 650 417 678 q 458 479 483 568 l 389 479 z "},"t":{"ha":446,"x_min":83,"x_max":463,"o":"m 393 101 l 411 63 q 211 -12 297 -12 q 126 16 156 -12 q 97 90 97 44 q 108 193 97 135 l 179 582 l 83 582 l 89 640 l 167 657 q 207 687 194 664 q 267 835 219 710 l 349 843 l 315 664 l 463 664 l 449 582 l 299 582 l 222 168 q 215 110 215 122 q 260 69 215 69 q 393 101 304 69 z "},"u":{"ha":724,"x_min":46,"x_max":707,"o":"m 683 103 l 707 65 q 531 -12 599 -12 q 471 57 471 -12 q 494 193 471 86 l 508 257 l 500 260 q 359 63 444 138 q 186 -12 274 -12 q 72 124 72 -12 q 90 250 72 169 l 150 532 q 153 561 153 546 q 46 608 153 589 l 53 653 q 272 672 210 672 l 285 658 q 269 532 282 589 l 215 268 q 197 151 197 178 q 247 85 197 85 q 340 130 289 85 q 439 251 392 175 q 519 438 486 328 q 553 658 553 549 q 667 678 617 661 l 689 660 q 643 472 664 582 l 583 144 q 578 93 578 117 q 596 69 578 69 q 683 103 617 69 z "},"v":{"ha":675,"x_min":32,"x_max":671,"o":"m 314 -12 l 249 -12 l 142 546 q 118 592 135 583 q 32 608 101 601 l 39 653 q 233 672 189 672 l 246 658 l 333 128 l 339 126 q 486 342 415 219 q 557 544 557 464 q 540 583 557 569 q 506 601 524 597 q 449 608 489 604 l 456 653 q 650 672 600 672 l 663 658 q 671 608 671 643 q 597 390 671 526 q 314 -12 479 168 z "},"w":{"ha":1006,"x_min":33,"x_max":1001,"o":"m 661 -12 l 596 -12 l 536 301 l 531 303 q 314 -12 449 149 l 249 -12 l 143 546 q 119 592 136 583 q 33 608 103 601 l 40 653 q 235 672 190 672 l 247 658 l 333 129 l 339 128 q 504 461 504 336 l 504 471 l 490 546 q 470 592 483 583 q 401 608 457 601 l 408 653 q 582 672 543 672 l 594 658 l 681 129 l 686 128 q 822 345 757 225 q 888 544 888 465 q 871 583 888 569 q 837 601 854 597 q 779 608 819 604 l 786 653 q 981 672 931 672 l 993 658 q 1001 608 1001 643 q 931 389 1001 526 q 661 -12 821 175 z "},"x":{"ha":746,"x_min":-3,"x_max":724,"o":"m 671 542 l 575 554 q 510 505 551 554 q 422 375 468 456 l 531 111 q 569 69 547 69 q 657 103 588 69 l 681 65 q 532 -12 586 -12 q 469 3 496 -12 q 422 68 442 19 l 344 257 q 199 53 258 117 q 57 -11 139 -11 q -3 22 -3 -11 q 14 90 -3 54 q 47 125 31 125 l 143 113 q 217 173 168 113 q 315 328 265 233 l 226 546 q 206 582 215 571 q 182 597 196 593 q 161 601 168 600 q 130 605 154 603 q 92 608 106 607 l 99 653 q 293 672 249 672 l 306 658 l 393 443 q 514 608 461 554 q 651 678 579 678 q 724 645 724 678 q 706 577 724 613 q 671 542 689 542 z "},"y":{"ha":675,"x_min":-117,"x_max":671,"o":"m 258 -10 l 143 546 q 119 592 135 583 q 33 608 103 601 l 40 653 q 235 672 190 672 l 247 658 l 347 107 l 353 106 q 499 344 440 222 q 557 544 557 467 q 540 583 557 569 q 506 601 524 597 q 449 608 489 604 l 456 653 q 650 672 600 672 l 663 658 q 671 608 671 643 q 590 347 671 506 q 399 45 510 188 q 160 -201 288 -97 q -53 -304 32 -304 q -117 -272 -117 -304 q -95 -192 -117 -235 q -54 -150 -74 -150 q -7 -158 -40 -150 q 35 -167 26 -167 q 258 -10 114 -167 z "},"z":{"ha":592,"x_min":-8,"x_max":624,"o":"m 357 554 l 229 563 q 169 549 186 563 q 131 481 151 535 l 75 481 q 108 663 75 556 q 195 678 153 678 q 314 661 238 678 q 449 644 390 644 q 583 678 507 644 l 624 643 l 163 108 l 168 104 q 243 115 210 115 q 326 106 276 115 q 405 97 375 97 q 452 116 435 97 q 488 193 469 135 l 543 193 q 510 3 543 115 q 424 -12 469 -12 q 290 8 378 -12 q 160 28 203 28 q 32 -12 88 28 l -8 15 l 449 569 l 444 574 q 357 554 406 554 z "},"{":{"ha":449,"x_min":68,"x_max":518,"o":"m 303 -162 l 293 -222 q 203 -228 221 -228 q 113 -193 147 -228 q 79 -107 79 -158 q 118 93 79 -56 q 157 271 157 242 q 153 322 157 300 q 129 359 149 344 q 68 392 110 374 l 76 444 q 158 485 139 469 q 211 579 197 514 q 232 740 219 631 q 256 913 244 849 q 316 1021 267 978 q 431 1064 365 1064 q 518 1058 451 1064 l 508 999 q 407 972 442 992 q 363 893 372 951 l 301 542 q 281 481 294 504 q 199 424 256 432 l 182 421 l 182 415 l 196 413 q 242 385 224 407 q 261 340 261 364 q 257 294 261 315 l 196 -57 q 193 -85 193 -76 q 220 -142 193 -126 q 303 -162 247 -157 z "},"|":{"ha":354,"x_min":146,"x_max":236,"o":"m 236 -292 l 146 -292 l 146 1072 l 236 1072 l 236 -292 z "},"}":{"ha":449,"x_min":-7,"x_max":443,"o":"m -7 -222 l 3 -162 q 104 -135 69 -156 q 149 -57 139 -115 l 210 294 q 231 356 217 335 q 313 413 256 403 l 329 415 l 329 421 l 315 424 q 268 452 286 431 q 250 497 250 474 q 254 542 250 521 l 315 893 q 318 921 318 913 q 291 978 318 963 q 208 999 264 993 l 218 1058 q 308 1064 290 1064 q 398 1029 364 1064 q 432 943 432 994 q 394 743 432 892 q 356 561 356 594 q 359 510 356 528 q 382 477 363 492 q 443 444 401 463 l 435 392 q 353 351 372 367 q 301 261 310 319 q 279 94 292 203 q 256 -78 267 -15 q 195 -185 244 -142 q 81 -228 146 -228 q -7 -222 60 -228 z "},"~":{"ha":674,"x_min":60,"x_max":669,"o":"m 626 450 l 669 417 q 613 350 632 372 q 558 303 593 328 q 495 278 522 278 q 445 285 468 278 q 356 319 422 293 q 267 353 289 346 q 219 361 246 361 q 101 293 175 361 l 60 326 q 158 435 119 404 q 230 465 196 465 q 290 456 264 465 q 345 435 315 447 q 407 411 375 424 q 460 390 439 399 q 505 382 481 382 q 553 394 529 382 q 626 450 578 406 z "}," ":{"ha":271,"x_min":0,"x_max":0,"o":""},"¡":{"ha":314,"x_min":25,"x_max":372,"o":"m 297 685 q 372 617 372 685 q 349 559 372 583 q 289 535 325 535 q 213 601 213 535 q 237 660 213 636 q 297 685 261 685 m 188 -262 l 38 -304 l 25 -278 l 219 424 l 290 424 l 188 -262 z "},"¢":{"ha":589,"x_min":81,"x_max":592,"o":"m 490 567 l 493 624 q 490 653 493 642 q 473 673 488 664 q 431 682 458 682 l 357 275 q 543 343 435 279 l 576 307 q 472 228 538 264 q 340 183 407 193 l 307 0 l 235 0 l 268 182 q 134 248 188 192 q 81 407 81 304 q 163 637 81 540 q 372 754 244 733 l 404 929 l 476 929 l 444 760 q 592 744 525 757 q 564 567 592 668 l 490 567 m 286 282 l 357 675 q 288 651 308 667 q 238 558 268 636 q 208 408 208 481 q 286 282 208 306 z "},"£":{"ha":724,"x_min":3,"x_max":756,"o":"m 646 168 l 689 136 q 635 64 654 88 q 572 14 615 40 q 481 -12 528 -12 q 347 17 433 -12 q 210 47 260 47 q 126 37 161 47 q 29 -14 92 26 l 3 32 q 120 156 90 106 q 160 258 150 207 q 174 419 171 310 l 58 419 l 72 493 l 175 493 q 288 810 185 681 q 579 939 390 939 q 756 904 676 939 q 722 733 756 836 l 657 726 l 657 782 q 656 813 657 800 l 653 831 q 647 847 653 842 q 568 865 633 865 q 415 806 460 865 q 340 593 371 747 q 326 493 331 549 l 594 493 l 581 419 l 317 419 q 310 372 315 403 q 189 140 279 225 l 192 133 q 290 161 235 161 q 428 136 344 161 q 535 111 511 111 q 646 168 575 111 z "},"¤":{"ha":838,"x_min":81,"x_max":925,"o":"m 821 150 l 744 88 l 631 226 q 452 192 551 192 q 292 231 353 192 l 132 96 l 81 160 l 231 286 q 194 410 194 333 q 285 650 194 544 l 186 772 l 263 835 l 361 711 q 563 757 453 757 q 732 708 672 757 l 872 826 l 925 763 l 788 647 q 817 535 817 606 q 713 283 817 390 l 821 150 m 333 427 q 333 393 333 427 q 370 312 333 358 q 481 265 407 265 q 592 298 556 265 q 653 392 629 331 q 678 522 678 453 q 641 637 678 590 q 531 683 604 683 q 419 651 457 683 q 358 558 382 619 q 333 427 333 496 z "},"¥":{"ha":829,"x_min":136,"x_max":922,"o":"m 721 436 l 199 436 l 213 510 l 335 510 l 222 814 q 198 853 211 844 q 136 874 185 861 l 144 929 l 476 929 l 472 872 l 375 847 q 364 838 364 844 q 369 815 364 832 l 461 550 q 468 510 468 529 l 482 510 l 660 767 q 700 838 700 826 q 684 856 700 849 q 624 874 668 864 l 631 929 l 922 929 l 918 871 q 829 844 856 858 q 779 796 803 829 l 585 510 l 735 510 l 721 436 m 575 0 l 185 0 l 185 54 q 297 83 275 68 q 328 140 319 97 l 350 267 l 168 267 l 181 340 l 703 340 l 690 267 l 485 267 l 461 132 q 458 107 458 118 q 490 69 458 72 l 582 54 l 575 0 z "},"¦":{"ha":354,"x_min":146,"x_max":236,"o":"m 236 493 l 146 493 l 146 1072 l 236 1072 l 236 493 m 236 -292 l 146 -292 l 146 289 l 236 289 l 236 -292 z "},"§":{"ha":611,"x_min":13,"x_max":629,"o":"m 47 67 l 117 67 q 111 -10 111 28 q 132 -69 111 -47 q 232 -92 153 -92 q 350 -69 311 -92 q 369 -36 360 -64 q 379 22 379 -8 q 356 83 379 51 q 310 131 333 114 q 244 178 288 149 q 129 261 167 228 q 75 369 75 310 q 117 488 75 428 q 246 593 158 549 q 181 744 181 651 q 261 906 181 838 q 469 975 342 975 q 629 947 564 975 q 599 772 624 871 l 528 772 q 531 838 531 800 q 517 889 531 876 q 455 901 501 901 q 372 894 408 901 q 324 878 335 886 q 297 790 297 856 q 342 687 297 725 q 446 611 386 649 q 534 552 506 574 q 589 492 563 531 q 615 408 615 454 q 574 303 615 363 q 446 197 533 243 q 507 69 507 146 q 419 -97 507 -28 q 189 -165 331 -165 q 13 -125 86 -165 q 47 67 19 -24 m 297 553 q 193 425 193 471 q 206 374 193 390 q 228 349 219 358 q 257 326 236 340 q 292 301 278 311 q 339 272 307 292 q 393 236 371 251 q 496 374 496 314 q 483 414 496 399 q 461 439 471 429 q 406 481 435 463 q 297 553 376 499 z "},"¨":{"ha":417,"x_min":106,"x_max":524,"o":"m 438 833 q 374 897 374 833 q 399 960 374 933 q 458 986 424 986 q 524 924 524 986 q 498 860 524 888 q 438 833 472 833 m 169 833 q 106 897 106 833 q 131 960 106 933 q 190 986 156 986 q 256 924 256 986 q 230 860 256 888 q 169 833 204 833 z "},"©":{"ha":1168,"x_min":103,"x_max":1174,"o":"m 1029 164 q 843 35 958 83 q 583 -12 728 -12 q 235 96 367 -12 q 103 429 103 204 q 256 815 103 654 q 688 975 410 975 q 1039 868 904 975 q 1174 544 1174 761 q 1029 164 1174 326 m 592 61 q 811 109 717 61 q 956 233 906 157 q 1054 549 1054 383 q 959 808 1054 715 q 683 901 864 901 q 465 855 558 901 q 319 733 371 808 q 221 418 221 586 q 316 156 221 250 q 592 61 411 61 m 763 368 l 843 363 q 844 309 844 356 q 828 213 844 263 q 735 176 803 193 q 628 158 668 158 q 414 231 490 158 q 338 413 338 303 q 439 690 338 576 q 731 803 540 803 q 844 783 794 803 q 917 743 893 764 q 879 569 903 638 l 783 561 q 790 686 790 675 q 786 701 790 697 q 707 729 761 729 q 531 642 588 729 q 475 440 475 556 q 522 278 475 324 q 638 232 568 232 q 687 238 663 232 q 717 253 711 244 q 763 368 733 269 z "},"ª":{"ha":538,"x_min":71,"x_max":597,"o":"m 578 557 l 597 526 q 463 469 515 469 q 410 519 410 469 q 424 582 410 533 q 442 647 438 631 l 433 650 q 222 469 347 469 q 136 509 164 469 q 108 610 108 549 q 192 872 108 768 q 396 975 275 975 q 494 954 438 975 q 563 976 529 963 l 583 961 q 550 821 564 901 l 515 636 q 503 546 503 564 q 513 528 503 528 q 578 557 526 528 m 458 889 q 367 919 414 919 q 303 903 319 919 q 242 788 269 869 q 214 642 214 706 q 254 536 214 536 q 380 657 314 536 q 458 889 446 778 m 551 315 l 71 315 l 85 389 l 565 389 l 551 315 z "},"«":{"ha":639,"x_min":129,"x_max":667,"o":"m 585 108 l 551 86 l 374 339 l 374 361 l 642 597 l 667 575 l 476 344 l 585 108 m 340 108 l 307 86 l 129 339 l 129 361 l 397 597 l 422 575 l 232 344 l 340 108 z "},"¬":{"ha":717,"x_min":75,"x_max":667,"o":"m 667 228 l 588 228 l 588 465 l 75 465 l 75 539 l 667 539 l 667 228 z "},"­":{"ha":410,"x_min":47,"x_max":367,"o":"m 344 318 l 47 282 l 64 385 l 367 404 l 344 318 z "},"®":{"ha":1168,"x_min":103,"x_max":1174,"o":"m 1029 164 q 843 35 958 83 q 583 -12 728 -12 q 235 96 367 -12 q 103 429 103 204 q 256 815 103 654 q 688 975 410 975 q 1039 868 904 975 q 1174 544 1174 761 q 1029 164 1174 326 m 592 61 q 811 109 717 61 q 956 233 906 157 q 1054 549 1054 383 q 959 808 1054 715 q 683 901 864 901 q 465 855 558 901 q 319 733 371 808 q 221 418 221 586 q 316 156 221 250 q 592 61 411 61 m 839 172 l 715 172 l 611 436 l 558 436 l 528 271 q 524 246 524 250 q 539 233 524 236 l 586 224 l 574 172 l 354 172 l 358 224 q 405 242 392 232 q 422 275 418 253 l 499 693 q 501 714 501 710 q 451 744 501 735 l 467 794 l 707 794 q 841 757 796 794 q 886 655 886 719 q 837 533 886 590 q 706 465 788 476 l 704 460 q 724 440 715 458 l 801 260 q 854 224 814 232 l 839 172 m 571 503 l 601 503 q 765 643 765 503 q 744 708 765 685 q 664 731 724 731 l 629 731 q 610 713 613 731 l 571 503 z "},"¯":{"ha":346,"x_min":103,"x_max":464,"o":"m 449 892 l 103 892 l 118 975 l 464 975 l 449 892 z "},"°":{"ha":513,"x_min":118,"x_max":499,"o":"m 311 975 q 356 975 311 975 q 450 927 401 975 q 499 794 499 879 q 447 656 499 708 q 305 604 394 604 q 167 652 215 604 q 118 786 118 700 q 169 924 118 872 q 311 975 221 975 m 197 786 q 197 760 197 786 q 225 704 197 733 q 306 675 253 675 q 389 708 358 675 q 419 793 419 740 q 392 875 419 846 q 311 904 364 904 q 228 872 258 904 q 197 786 197 839 z "},"±":{"ha":668,"x_min":89,"x_max":611,"o":"m 385 188 l 315 188 l 315 425 l 89 425 l 89 499 l 315 499 l 315 731 l 385 731 l 385 499 l 611 499 l 611 425 l 385 425 l 385 188 m 611 -1 l 89 -1 l 89 72 l 611 72 l 611 -1 z "},"²":{"ha":453,"x_min":86,"x_max":554,"o":"m 356 1189 q 554 1036 554 1189 q 472 876 554 961 q 217 676 390 790 l 217 669 l 283 675 q 361 678 315 678 l 407 678 q 446 681 433 678 q 475 747 457 683 l 529 743 q 504 604 525 672 l 86 604 l 96 654 q 360 874 278 788 q 443 1042 443 960 q 417 1112 443 1088 q 341 1136 390 1136 q 265 1115 292 1136 q 239 1014 247 1097 l 175 1018 q 186 1147 175 1100 q 356 1189 258 1189 z "},"³":{"ha":436,"x_min":107,"x_max":524,"o":"m 392 925 l 392 919 q 470 880 439 911 q 501 799 501 849 q 430 653 501 714 q 256 592 358 592 q 107 617 153 592 q 133 738 110 688 l 190 738 l 190 715 q 189 682 189 703 q 194 657 189 661 q 273 643 222 643 q 357 681 324 643 q 390 783 390 719 q 285 879 390 879 q 233 874 265 879 l 242 924 q 382 976 339 938 q 425 1053 425 1015 q 401 1114 425 1092 q 342 1136 376 1136 q 283 1125 308 1136 q 266 1103 274 1121 q 243 1029 258 1086 l 183 1036 q 197 1147 183 1107 q 346 1189 269 1189 q 473 1158 422 1189 q 524 1072 524 1128 q 485 978 524 1017 q 392 925 446 939 z "},"´":{"ha":265,"x_min":89,"x_max":392,"o":"m 386 989 l 136 779 l 89 814 l 283 1063 l 392 1021 l 386 989 z "},"µ":{"ha":742,"x_min":-12,"x_max":725,"o":"m 701 103 l 725 65 q 549 -12 617 -12 q 489 57 489 -12 q 513 193 489 86 l 526 257 l 518 260 q 377 63 463 138 q 204 -12 292 -12 q 142 6 169 -12 l 138 3 l 128 -254 l 4 -310 l -12 -286 l 168 532 q 171 561 171 546 q 64 608 171 589 l 71 653 q 290 672 228 672 l 303 658 q 288 532 300 601 l 233 268 q 215 151 215 178 q 265 85 215 85 q 358 130 307 85 q 457 251 410 175 q 538 438 504 328 q 571 658 571 549 q 685 678 635 661 l 707 660 q 661 472 682 582 l 601 144 q 596 93 596 117 q 614 69 596 69 q 701 103 635 69 z "},"¶":{"ha":829,"x_min":169,"x_max":906,"o":"m 275 -154 l 275 -142 q 321 -32 275 -87 q 409 -47 382 -47 q 461 -33 436 -47 q 506 44 486 -18 q 546 219 525 106 l 671 889 l 606 889 l 449 47 q 349 39 404 39 l 336 53 l 399 386 q 228 460 288 389 q 169 638 169 531 q 257 876 169 789 q 506 963 344 963 l 906 963 l 901 908 l 813 892 q 778 856 783 886 l 653 178 q 543 -57 629 51 q 394 -165 457 -165 q 275 -154 331 -165 z "},"·":{"ha":333,"x_min":97,"x_max":283,"o":"m 192 449 q 211 449 192 449 q 257 427 231 449 q 283 365 283 406 q 255 297 283 325 q 187 268 226 268 q 122 290 147 268 q 97 352 97 313 q 125 420 97 392 q 192 449 153 449 z "},"¸":{"ha":339,"x_min":35,"x_max":304,"o":"m 35 -301 l 38 -258 q 185 -169 185 -237 q 129 -125 185 -125 q 69 -139 100 -125 l 61 -124 l 146 56 l 211 38 l 163 -65 q 213 -62 176 -62 q 277 -83 250 -62 q 304 -137 304 -103 q 231 -248 304 -200 q 35 -301 157 -296 z "},"¹":{"ha":385,"x_min":133,"x_max":418,"o":"m 400 604 l 133 604 l 133 644 q 208 662 188 651 q 232 690 229 672 l 297 1044 q 303 1095 303 1078 q 287 1113 303 1113 q 204 1108 271 1113 l 204 1147 q 404 1189 329 1189 l 418 1178 l 329 700 q 325 671 325 675 q 338 654 325 656 l 406 644 l 400 604 z "},"º":{"ha":503,"x_min":71,"x_max":569,"o":"m 569 803 q 444 522 569 625 q 294 469 379 469 q 166 515 210 469 q 122 640 122 560 q 151 794 122 719 q 246 922 181 868 q 397 975 311 975 q 526 929 482 975 q 569 803 569 883 m 317 522 q 387 543 360 522 q 437 640 414 564 q 460 790 460 717 q 374 922 460 922 q 299 896 329 922 q 256 803 278 881 q 233 653 233 726 q 317 522 233 522 m 510 315 l 71 315 l 85 389 l 524 389 l 510 315 z "},"»":{"ha":639,"x_min":57,"x_max":601,"o":"m 597 339 l 326 86 l 301 108 l 490 350 l 383 575 l 417 597 l 601 361 l 597 339 m 353 339 l 82 86 l 57 108 l 246 350 l 139 575 l 172 597 l 357 361 l 353 339 z "},"¼":{"ha":1053,"x_min":93,"x_max":1025,"o":"m 360 388 l 93 388 l 93 428 q 168 445 147 435 q 192 474 189 456 l 257 828 q 263 878 263 861 q 247 896 263 896 q 164 892 231 896 l 164 931 q 364 972 289 972 l 378 961 l 289 483 q 285 454 285 458 q 297 438 285 439 l 365 428 l 360 388 m 290 0 l 199 0 l 828 963 l 918 963 l 290 0 m 975 0 l 725 0 l 725 40 q 800 58 779 47 q 824 86 821 68 l 835 146 l 569 146 l 565 149 l 556 203 l 911 574 q 997 585 961 585 l 1011 574 l 942 203 q 983 202 956 203 q 1025 201 1011 201 l 1011 146 l 931 146 l 921 90 q 917 65 917 69 q 929 50 917 54 l 981 40 l 975 0 m 846 204 l 896 471 q 901 483 897 478 l 897 486 l 653 226 q 633 211 644 217 l 635 207 l 846 204 z "},"½":{"ha":1099,"x_min":93,"x_max":1088,"o":"m 360 388 l 93 388 l 93 428 q 168 445 147 435 q 192 474 189 456 l 257 828 q 263 878 263 861 q 247 896 263 896 q 164 892 231 896 l 164 931 q 364 972 289 972 l 378 961 l 289 483 q 285 454 285 458 q 297 438 285 439 l 365 428 l 360 388 m 290 0 l 199 0 l 828 963 l 918 963 l 290 0 m 889 585 q 1088 433 1088 585 q 1006 272 1088 357 q 750 72 924 186 l 750 65 l 817 71 q 894 74 849 74 l 940 74 q 979 76 967 74 q 1008 143 990 79 l 1063 139 q 1038 0 1058 68 l 619 0 l 629 50 q 894 269 811 183 q 976 438 976 356 q 950 508 976 483 q 874 532 924 532 q 799 511 825 532 q 772 410 781 493 l 708 414 q 719 543 708 496 q 889 585 792 585 z "},"¾":{"ha":1053,"x_min":67,"x_max":1025,"o":"m 351 708 l 351 703 q 430 663 399 694 q 461 582 461 632 q 390 436 461 497 q 215 375 318 375 q 67 400 113 375 q 93 521 69 471 l 150 521 l 150 499 q 149 465 149 486 q 154 440 149 444 q 233 426 182 426 q 317 465 283 426 q 350 567 350 503 q 244 663 350 663 q 193 657 225 663 l 201 707 q 342 760 299 721 q 385 837 385 799 q 360 897 385 875 q 302 919 336 919 q 243 908 268 919 q 226 887 233 904 q 203 813 218 869 l 143 819 q 157 931 143 890 q 306 972 229 972 q 433 942 382 972 q 483 856 483 911 q 444 761 483 800 q 351 708 406 722 m 301 0 l 210 0 l 839 963 l 929 963 l 301 0 m 975 0 l 725 0 l 725 40 q 800 58 779 47 q 824 86 821 68 l 835 146 l 569 146 l 565 149 l 556 203 l 911 574 q 997 585 961 585 l 1011 574 l 942 203 q 983 202 956 203 q 1025 201 1011 201 l 1011 146 l 931 146 l 921 90 q 917 65 917 69 q 929 50 917 54 l 981 40 l 975 0 m 846 204 l 896 471 q 901 483 897 478 l 897 486 l 653 226 q 633 211 644 217 l 635 207 l 846 204 z "},"¿":{"ha":589,"x_min":-31,"x_max":490,"o":"m 490 617 q 404 533 490 533 q 351 552 375 533 q 326 600 326 571 q 413 683 326 683 q 467 665 443 683 q 490 617 490 646 m 343 340 l 342 388 l 410 407 q 449 287 449 335 q 432 219 449 239 q 406 190 415 200 q 348 147 394 176 q 269 101 301 117 q 200 60 222 74 q 90 -97 90 -11 q 134 -197 90 -164 q 238 -231 178 -231 q 343 -208 299 -231 q 365 -182 356 -203 q 396 -85 374 -161 l 469 -93 q 450 -246 469 -165 q 208 -304 342 -304 q 39 -251 108 -304 q -31 -108 -31 -197 q 17 40 -31 -18 q 150 149 65 97 q 197 176 161 156 q 244 206 232 197 q 321 272 299 240 q 343 340 343 304 z "},"À":{"ha":929,"x_min":-25,"x_max":890,"o":"m 679 1040 l 424 1169 l 418 1199 l 507 1269 l 715 1090 l 679 1040 m 883 0 l 550 0 l 550 56 q 638 79 611 68 q 665 107 665 90 q 664 131 665 124 l 638 311 l 278 311 l 168 111 q 158 89 158 92 q 165 81 158 82 l 254 54 l 247 0 l -25 0 l -25 56 q 44 78 31 69 q 74 115 58 86 l 544 975 l 660 975 l 814 89 q 890 54 818 68 l 883 0 m 626 385 l 563 775 q 561 815 561 792 l 547 815 l 317 385 l 626 385 z "},"Á":{"ha":929,"x_min":-25,"x_max":890,"o":"m 853 1169 l 550 1040 l 517 1090 l 792 1269 l 869 1199 l 853 1169 m 883 0 l 550 0 l 550 56 q 638 79 611 68 q 665 107 665 90 q 664 131 665 124 l 638 311 l 278 311 l 168 111 q 158 89 158 92 q 165 81 158 82 l 254 54 l 247 0 l -25 0 l -25 56 q 44 78 31 69 q 74 115 58 86 l 544 975 l 660 975 l 814 89 q 890 54 818 68 l 883 0 m 626 385 l 563 775 q 561 815 561 792 l 547 815 l 317 385 l 626 385 z "},"Â":{"ha":929,"x_min":-25,"x_max":890,"o":"m 867 1076 l 825 1040 l 656 1167 l 439 1040 l 411 1076 l 628 1269 l 706 1269 l 867 1076 m 883 0 l 550 0 l 550 56 q 638 79 611 68 q 665 107 665 90 q 664 131 665 124 l 638 311 l 278 311 l 168 111 q 158 89 158 92 q 165 81 158 82 l 254 54 l 247 0 l -25 0 l -25 56 q 44 78 31 69 q 74 115 58 86 l 544 975 l 660 975 l 814 89 q 890 54 818 68 l 883 0 m 626 385 l 563 775 q 561 815 561 792 l 547 815 l 317 385 l 626 385 z "},"Ã":{"ha":929,"x_min":-25,"x_max":897,"o":"m 865 1238 l 897 1221 q 743 1081 807 1081 q 631 1099 719 1081 q 499 1118 542 1118 q 400 1071 456 1118 l 372 1093 q 468 1197 431 1167 q 538 1226 506 1226 q 656 1208 569 1226 q 776 1189 742 1189 q 865 1238 810 1189 m 883 0 l 550 0 l 550 56 q 638 79 611 68 q 665 107 665 90 q 664 131 665 124 l 638 311 l 278 311 l 168 111 q 158 89 158 92 q 165 81 158 82 l 254 54 l 247 0 l -25 0 l -25 56 q 44 78 31 69 q 74 115 58 86 l 544 975 l 660 975 l 814 89 q 890 54 818 68 l 883 0 m 626 385 l 563 775 q 561 815 561 792 l 547 815 l 317 385 l 626 385 z "},"Ä":{"ha":929,"x_min":-25,"x_max":890,"o":"m 750 1076 q 685 1140 685 1076 q 710 1203 685 1176 q 769 1229 735 1229 q 835 1167 835 1229 q 810 1103 835 1131 q 750 1076 785 1076 m 482 1076 q 417 1140 417 1076 q 442 1203 417 1176 q 501 1229 467 1229 q 567 1167 567 1229 q 542 1103 567 1131 q 482 1076 517 1076 m 883 0 l 550 0 l 550 56 q 638 79 611 68 q 665 107 665 90 q 664 131 665 124 l 638 311 l 278 311 l 168 111 q 158 89 158 92 q 165 81 158 82 l 254 54 l 247 0 l -25 0 l -25 56 q 44 78 31 69 q 74 115 58 86 l 544 975 l 660 975 l 814 89 q 890 54 818 68 l 883 0 m 626 385 l 563 775 q 561 815 561 792 l 547 815 l 317 385 l 626 385 z "},"Å":{"ha":929,"x_min":-25,"x_max":890,"o":"m 644 1276 q 673 1276 644 1276 q 735 1247 701 1276 q 769 1163 769 1217 q 721 1067 769 1108 q 615 1026 672 1026 q 524 1056 557 1026 q 490 1140 490 1085 q 538 1236 490 1196 q 644 1276 586 1276 m 558 1144 q 621 1086 558 1086 q 675 1108 651 1086 q 699 1158 699 1131 q 635 1217 699 1217 q 580 1195 601 1217 q 558 1144 558 1174 m 883 0 l 550 0 l 550 56 q 638 79 611 68 q 665 107 665 90 q 664 131 665 124 l 638 311 l 278 311 l 168 111 q 158 89 158 92 q 165 81 158 82 l 254 54 l 247 0 l -25 0 l -25 56 q 44 78 31 69 q 74 115 58 86 l 544 975 l 660 975 l 814 89 q 890 54 818 68 l 883 0 m 626 385 l 563 775 q 561 815 561 792 l 547 815 l 317 385 l 626 385 z "},"Æ":{"ha":1315,"x_min":-19,"x_max":1338,"o":"m 1256 249 q 1197 0 1243 138 l 521 0 l 522 54 q 616 82 597 67 q 643 140 635 97 l 672 311 l 354 311 l 218 142 q 186 88 186 101 q 208 69 186 75 l 260 54 l 253 0 l -19 0 l -19 56 q 50 77 35 68 q 88 114 65 86 l 651 822 q 665 856 665 842 q 575 908 665 890 l 583 963 l 1338 963 q 1306 746 1338 892 l 1224 736 q 1218 856 1222 832 q 1203 882 1214 881 q 1119 888 1169 886 l 910 892 l 844 518 l 1053 518 q 1079 547 1064 518 q 1114 617 1094 575 l 1157 613 q 1128 338 1133 482 l 1076 329 q 1063 425 1068 406 q 1049 444 1058 444 l 831 444 l 765 71 l 889 72 q 1053 81 1029 76 q 1090 92 1076 86 q 1179 256 1115 99 l 1256 249 m 686 385 l 761 815 l 749 815 l 411 385 l 686 385 z "},"Ç":{"ha":817,"x_min":82,"x_max":860,"o":"m 331 -301 l 333 -258 q 440 -226 400 -250 q 481 -169 481 -203 q 425 -125 481 -125 q 365 -139 396 -125 l 357 -124 l 410 -11 q 167 110 253 1 q 82 384 82 219 q 153 696 82 549 q 250 837 192 776 q 402 936 308 897 q 590 975 496 975 q 760 961 683 975 q 860 936 838 947 q 832 703 860 844 l 751 692 q 722 869 743 850 q 667 890 713 879 q 578 901 622 901 q 427 860 493 901 q 321 749 361 819 q 240 401 240 607 q 314 149 240 233 q 494 65 388 65 q 584 78 542 65 q 639 100 626 90 q 711 278 658 113 l 788 275 q 754 50 776 157 q 483 -11 644 -3 l 458 -65 q 510 -62 472 -62 q 574 -83 547 -62 q 600 -137 600 -103 q 526 -248 600 -200 q 331 -301 453 -296 z "},"È":{"ha":822,"x_min":28,"x_max":844,"o":"m 617 1040 l 361 1169 l 356 1199 l 444 1269 l 653 1090 l 617 1040 m 763 249 q 704 0 750 138 l 28 0 l 28 54 q 122 82 103 67 q 150 140 142 97 l 269 822 q 274 859 274 842 q 255 888 274 876 q 179 908 236 899 l 188 963 l 844 963 q 813 746 844 892 l 731 736 q 725 856 729 832 q 710 882 721 881 q 626 888 676 886 l 417 892 l 351 518 l 560 518 q 586 547 571 518 q 621 617 601 575 l 664 613 q 635 338 640 482 l 583 329 q 570 425 575 406 q 556 444 565 444 l 338 444 l 272 71 l 396 72 q 560 81 536 76 q 597 92 583 86 q 686 256 622 99 l 763 249 z "},"É":{"ha":822,"x_min":28,"x_max":844,"o":"m 790 1169 l 488 1040 l 454 1090 l 729 1269 l 807 1199 l 790 1169 m 763 249 q 704 0 750 138 l 28 0 l 28 54 q 122 82 103 67 q 150 140 142 97 l 269 822 q 274 859 274 842 q 255 888 274 876 q 179 908 236 899 l 188 963 l 844 963 q 813 746 844 892 l 731 736 q 725 856 729 832 q 710 882 721 881 q 626 888 676 886 l 417 892 l 351 518 l 560 518 q 586 547 571 518 q 621 617 601 575 l 664 613 q 635 338 640 482 l 583 329 q 570 425 575 406 q 556 444 565 444 l 338 444 l 272 71 l 396 72 q 560 81 536 76 q 597 92 583 86 q 686 256 622 99 l 763 249 z "},"Ê":{"ha":822,"x_min":28,"x_max":844,"o":"m 804 1076 l 763 1040 l 593 1167 l 376 1040 l 349 1076 l 565 1269 l 643 1269 l 804 1076 m 763 249 q 704 0 750 138 l 28 0 l 28 54 q 122 82 103 67 q 150 140 142 97 l 269 822 q 274 859 274 842 q 255 888 274 876 q 179 908 236 899 l 188 963 l 844 963 q 813 746 844 892 l 731 736 q 725 856 729 832 q 710 882 721 881 q 626 888 676 886 l 417 892 l 351 518 l 560 518 q 586 547 571 518 q 621 617 601 575 l 664 613 q 635 338 640 482 l 583 329 q 570 425 575 406 q 556 444 565 444 l 338 444 l 272 71 l 396 72 q 560 81 536 76 q 597 92 583 86 q 686 256 622 99 l 763 249 z "},"Ë":{"ha":822,"x_min":28,"x_max":844,"o":"m 701 1076 q 636 1140 636 1076 q 661 1203 636 1176 q 721 1229 686 1229 q 786 1167 786 1229 q 761 1103 786 1131 q 701 1076 736 1076 m 433 1076 q 368 1140 368 1076 q 393 1203 368 1176 q 453 1229 418 1229 q 518 1167 518 1229 q 493 1103 518 1131 q 433 1076 468 1076 m 763 249 q 704 0 750 138 l 28 0 l 28 54 q 122 82 103 67 q 150 140 142 97 l 269 822 q 274 859 274 842 q 255 888 274 876 q 179 908 236 899 l 188 963 l 844 963 q 813 746 844 892 l 731 736 q 725 856 729 832 q 710 882 721 881 q 626 888 676 886 l 417 892 l 351 518 l 560 518 q 586 547 571 518 q 621 617 601 575 l 664 613 q 635 338 640 482 l 583 329 q 570 425 575 406 q 556 444 565 444 l 338 444 l 272 71 l 396 72 q 560 81 536 76 q 597 92 583 86 q 686 256 622 99 l 763 249 z "},"Ì":{"ha":468,"x_min":31,"x_max":539,"o":"m 431 1040 l 175 1169 l 169 1199 l 258 1269 l 467 1090 l 431 1040 m 271 822 l 275 854 q 256 888 275 876 q 181 908 238 899 l 189 963 l 539 963 l 535 908 l 446 892 q 411 856 417 886 l 285 142 q 281 106 281 119 q 318 67 281 74 l 383 54 l 376 0 l 31 0 l 31 54 q 124 82 106 67 q 150 140 142 97 l 271 822 z "},"Í":{"ha":468,"x_min":31,"x_max":621,"o":"m 604 1169 l 301 1040 l 268 1090 l 543 1269 l 621 1199 l 604 1169 m 271 822 l 275 854 q 256 888 275 876 q 181 908 238 899 l 189 963 l 539 963 l 535 908 l 446 892 q 411 856 417 886 l 285 142 q 281 106 281 119 q 318 67 281 74 l 383 54 l 376 0 l 31 0 l 31 54 q 124 82 106 67 q 150 140 142 97 l 271 822 z "},"Î":{"ha":468,"x_min":31,"x_max":618,"o":"m 618 1076 l 576 1040 l 407 1167 l 190 1040 l 163 1076 l 379 1269 l 457 1269 l 618 1076 m 271 822 l 275 854 q 256 888 275 876 q 181 908 238 899 l 189 963 l 539 963 l 535 908 l 446 892 q 411 856 417 886 l 285 142 q 281 106 281 119 q 318 67 281 74 l 383 54 l 376 0 l 31 0 l 31 54 q 124 82 106 67 q 150 140 142 97 l 271 822 z "},"Ï":{"ha":468,"x_min":31,"x_max":600,"o":"m 515 1076 q 450 1140 450 1076 q 475 1203 450 1176 q 535 1229 500 1229 q 600 1167 600 1229 q 575 1103 600 1131 q 515 1076 550 1076 m 247 1076 q 182 1140 182 1076 q 207 1203 182 1176 q 267 1229 232 1229 q 332 1167 332 1229 q 307 1103 332 1131 q 247 1076 282 1076 m 271 822 l 275 854 q 256 888 275 876 q 181 908 238 899 l 189 963 l 539 963 l 535 908 l 446 892 q 411 856 417 886 l 285 142 q 281 106 281 119 q 318 67 281 74 l 383 54 l 376 0 l 31 0 l 31 54 q 124 82 106 67 q 150 140 142 97 l 271 822 z "},"Ð":{"ha":958,"x_min":31,"x_max":976,"o":"m 432 0 l 31 0 l 31 54 q 124 82 106 67 q 150 140 142 97 l 208 469 l 68 469 l 90 553 l 222 553 l 271 822 q 275 860 275 843 q 256 888 275 876 q 179 908 238 899 l 188 963 l 592 963 q 769 931 693 963 q 889 847 846 900 q 976 589 976 740 q 850 193 976 369 q 678 53 786 106 q 432 0 569 0 m 564 469 l 342 469 l 286 151 q 282 121 282 122 q 306 93 282 99 q 447 74 399 74 q 724 210 629 74 q 818 563 818 346 q 792 719 818 651 q 725 821 767 786 q 549 889 643 889 l 417 889 l 357 553 l 586 553 l 564 469 z "},"Ñ":{"ha":1024,"x_min":28,"x_max":1096,"o":"m 913 1238 l 944 1221 q 790 1081 854 1081 q 678 1099 767 1081 q 546 1118 589 1118 q 447 1071 503 1118 l 419 1093 q 515 1197 478 1167 q 585 1226 553 1226 q 703 1208 617 1226 q 823 1189 789 1189 q 913 1238 857 1189 m 818 0 l 732 0 l 374 822 l 363 822 l 242 132 q 239 107 239 118 q 271 69 239 72 l 386 54 l 379 0 l 28 0 l 28 54 q 122 82 103 67 q 150 140 142 97 l 269 822 q 274 859 274 842 q 255 888 274 876 q 179 908 236 899 l 188 963 l 463 963 l 761 263 l 771 263 l 865 794 q 869 845 869 819 q 845 885 869 871 q 751 908 821 900 l 760 963 l 1096 963 l 1092 908 l 1003 892 q 972 872 979 886 q 969 856 971 867 l 818 0 z "},"Ò":{"ha":931,"x_min":83,"x_max":933,"o":"m 629 1040 l 374 1169 l 368 1199 l 457 1269 l 665 1090 l 629 1040 m 428 -12 q 173 97 263 -12 q 83 381 83 206 q 217 810 83 644 q 588 975 351 975 q 843 867 753 975 q 933 590 933 760 q 799 156 933 325 q 428 -12 664 -12 m 460 61 q 611 110 546 61 q 711 239 676 160 q 776 556 776 394 q 719 810 776 718 q 554 901 663 901 q 431 869 485 901 q 285 676 331 811 q 239 394 239 540 q 296 155 239 249 q 460 61 353 61 z "},"Ó":{"ha":931,"x_min":83,"x_max":933,"o":"m 803 1169 l 500 1040 l 467 1090 l 742 1269 l 819 1199 l 803 1169 m 428 -12 q 173 97 263 -12 q 83 381 83 206 q 217 810 83 644 q 588 975 351 975 q 843 867 753 975 q 933 590 933 760 q 799 156 933 325 q 428 -12 664 -12 m 460 61 q 611 110 546 61 q 711 239 676 160 q 776 556 776 394 q 719 810 776 718 q 554 901 663 901 q 431 869 485 901 q 285 676 331 811 q 239 394 239 540 q 296 155 239 249 q 460 61 353 61 z "},"Ô":{"ha":931,"x_min":83,"x_max":933,"o":"m 817 1076 l 775 1040 l 606 1167 l 389 1040 l 361 1076 l 578 1269 l 656 1269 l 817 1076 m 428 -12 q 173 97 263 -12 q 83 381 83 206 q 217 810 83 644 q 588 975 351 975 q 843 867 753 975 q 933 590 933 760 q 799 156 933 325 q 428 -12 664 -12 m 460 61 q 611 110 546 61 q 711 239 676 160 q 776 556 776 394 q 719 810 776 718 q 554 901 663 901 q 431 869 485 901 q 285 676 331 811 q 239 394 239 540 q 296 155 239 249 q 460 61 353 61 z "},"Õ":{"ha":931,"x_min":83,"x_max":933,"o":"m 843 1238 l 875 1221 q 721 1081 785 1081 q 608 1099 697 1081 q 476 1118 519 1118 q 378 1071 433 1118 l 350 1093 q 446 1197 408 1167 q 515 1226 483 1226 q 633 1208 547 1226 q 753 1189 719 1189 q 843 1238 788 1189 m 428 -12 q 173 97 263 -12 q 83 381 83 206 q 217 810 83 644 q 588 975 351 975 q 843 867 753 975 q 933 590 933 760 q 799 156 933 325 q 428 -12 664 -12 m 460 61 q 611 110 546 61 q 711 239 676 160 q 776 556 776 394 q 719 810 776 718 q 554 901 663 901 q 431 869 485 901 q 285 676 331 811 q 239 394 239 540 q 296 155 239 249 q 460 61 353 61 z "},"Ö":{"ha":931,"x_min":83,"x_max":933,"o":"m 714 1076 q 649 1140 649 1076 q 674 1203 649 1176 q 733 1229 699 1229 q 799 1167 799 1229 q 774 1103 799 1131 q 714 1076 749 1076 m 446 1076 q 381 1140 381 1076 q 406 1203 381 1176 q 465 1229 431 1229 q 531 1167 531 1229 q 506 1103 531 1131 q 446 1076 481 1076 m 428 -12 q 173 97 263 -12 q 83 381 83 206 q 217 810 83 644 q 588 975 351 975 q 843 867 753 975 q 933 590 933 760 q 799 156 933 325 q 428 -12 664 -12 m 460 61 q 611 110 546 61 q 711 239 676 160 q 776 556 776 394 q 719 810 776 718 q 554 901 663 901 q 431 869 485 901 q 285 676 331 811 q 239 394 239 540 q 296 155 239 249 q 460 61 353 61 z "},"×":{"ha":721,"x_min":135,"x_max":619,"o":"m 619 153 l 569 104 l 378 297 l 185 104 l 135 154 l 328 347 l 136 539 l 186 588 l 376 397 l 568 588 l 619 538 l 426 347 l 619 153 z "},"Ø":{"ha":932,"x_min":85,"x_max":935,"o":"m 168 -111 l 97 -83 l 197 72 q 85 381 85 178 q 219 810 85 644 q 589 975 353 975 q 751 939 682 975 l 836 1072 l 908 1044 l 814 897 q 935 590 935 793 q 800 156 935 325 q 429 -12 665 -12 q 257 28 329 -12 l 168 -111 m 275 194 l 692 846 q 561 901 636 901 q 431 869 486 901 q 286 676 332 811 q 240 408 240 540 q 275 194 240 276 m 738 778 l 319 125 q 461 61 375 61 q 613 110 547 61 q 711 239 678 160 q 778 575 778 394 q 738 778 778 697 z "},"Ù":{"ha":999,"x_min":176,"x_max":1068,"o":"m 713 1040 l 457 1169 l 451 1199 l 540 1269 l 749 1090 l 713 1040 m 315 272 q 511 89 315 89 q 678 164 615 89 q 758 346 740 239 l 838 796 q 842 847 842 821 q 818 886 842 872 q 724 908 794 900 l 732 963 l 1068 963 l 1064 908 l 975 892 q 944 872 950 886 q 942 856 943 867 l 853 357 q 456 -12 786 -12 q 247 54 317 -12 q 176 243 176 121 q 186 346 176 292 l 269 822 q 274 860 274 842 q 255 888 274 878 q 179 908 236 897 l 188 963 l 538 963 l 533 908 l 444 892 q 414 872 421 886 q 411 856 413 867 l 325 367 q 315 272 315 306 z "},"Ú":{"ha":999,"x_min":176,"x_max":1068,"o":"m 886 1169 l 583 1040 l 550 1090 l 825 1269 l 903 1199 l 886 1169 m 315 272 q 511 89 315 89 q 678 164 615 89 q 758 346 740 239 l 838 796 q 842 847 842 821 q 818 886 842 872 q 724 908 794 900 l 732 963 l 1068 963 l 1064 908 l 975 892 q 944 872 950 886 q 942 856 943 867 l 853 357 q 456 -12 786 -12 q 247 54 317 -12 q 176 243 176 121 q 186 346 176 292 l 269 822 q 274 860 274 842 q 255 888 274 878 q 179 908 236 897 l 188 963 l 538 963 l 533 908 l 444 892 q 414 872 421 886 q 411 856 413 867 l 325 367 q 315 272 315 306 z "},"Û":{"ha":999,"x_min":176,"x_max":1068,"o":"m 900 1076 l 858 1040 l 689 1167 l 472 1040 l 444 1076 l 661 1269 l 739 1269 l 900 1076 m 315 272 q 511 89 315 89 q 678 164 615 89 q 758 346 740 239 l 838 796 q 842 847 842 821 q 818 886 842 872 q 724 908 794 900 l 732 963 l 1068 963 l 1064 908 l 975 892 q 944 872 950 886 q 942 856 943 867 l 853 357 q 456 -12 786 -12 q 247 54 317 -12 q 176 243 176 121 q 186 346 176 292 l 269 822 q 274 860 274 842 q 255 888 274 878 q 179 908 236 897 l 188 963 l 538 963 l 533 908 l 444 892 q 414 872 421 886 q 411 856 413 867 l 325 367 q 315 272 315 306 z "},"Ü":{"ha":999,"x_min":176,"x_max":1068,"o":"m 797 1076 q 732 1140 732 1076 q 757 1203 732 1176 q 817 1229 782 1229 q 882 1167 882 1229 q 857 1103 882 1131 q 797 1076 832 1076 m 529 1076 q 464 1140 464 1076 q 489 1203 464 1176 q 549 1229 514 1229 q 614 1167 614 1229 q 589 1103 614 1131 q 529 1076 564 1076 m 315 272 q 511 89 315 89 q 678 164 615 89 q 758 346 740 239 l 838 796 q 842 847 842 821 q 818 886 842 872 q 724 908 794 900 l 732 963 l 1068 963 l 1064 908 l 975 892 q 944 872 950 886 q 942 856 943 867 l 853 357 q 456 -12 786 -12 q 247 54 317 -12 q 176 243 176 121 q 186 346 176 292 l 269 822 q 274 860 274 842 q 255 888 274 878 q 179 908 236 897 l 188 963 l 538 963 l 533 908 l 444 892 q 414 872 421 886 q 411 856 413 867 l 325 367 q 315 272 315 306 z "},"Ý":{"ha":831,"x_min":125,"x_max":954,"o":"m 797 1169 l 494 1040 l 461 1090 l 736 1269 l 814 1199 l 797 1169 m 583 0 l 193 0 l 193 54 q 306 83 283 68 q 336 140 328 97 l 379 388 l 211 847 q 187 886 200 878 q 125 907 174 894 l 133 963 l 465 963 l 461 906 l 364 881 q 353 872 353 878 q 358 849 353 865 l 464 542 q 471 501 471 521 l 485 501 l 692 800 q 732 871 732 860 q 716 890 732 882 q 656 907 700 897 l 663 963 l 954 963 l 950 904 q 861 877 888 892 q 811 829 835 863 l 517 399 l 469 132 q 467 107 467 118 q 499 69 467 72 l 590 54 l 583 0 z "},"Þ":{"ha":749,"x_min":31,"x_max":763,"o":"m 271 822 l 275 854 q 256 888 275 876 q 181 908 238 899 l 189 963 l 539 963 l 535 908 l 446 892 q 411 856 417 886 l 396 774 l 522 774 q 701 719 640 774 q 763 575 763 665 q 656 328 763 432 q 361 225 550 225 l 299 225 l 285 142 q 281 106 281 119 q 318 67 281 74 l 383 54 l 376 0 l 31 0 l 31 54 q 124 82 106 67 q 150 140 142 97 l 271 822 m 313 299 l 364 299 q 525 347 456 299 q 587 428 564 374 q 610 559 610 482 q 569 668 610 636 q 475 700 528 700 l 411 700 q 378 667 383 700 l 313 299 z "},"ß":{"ha":818,"x_min":-175,"x_max":763,"o":"m -114 -156 l -22 -174 q 35 -107 15 -174 q 68 53 54 -40 q 86 168 82 146 l 151 582 l 40 582 l 46 640 l 139 657 q 168 688 163 663 l 172 710 q 290 963 190 853 q 529 1072 389 1072 q 672 1022 622 1072 q 721 879 721 971 q 639 699 721 788 q 571 626 606 661 q 489 490 489 544 q 501 454 489 467 q 520 435 513 442 q 543 419 528 428 q 568 406 558 411 q 597 392 578 401 q 641 369 615 382 q 692 338 667 357 q 740 285 718 319 q 763 207 763 250 q 685 51 763 115 q 497 -12 608 -12 q 311 29 386 -12 q 346 219 314 117 l 415 219 q 410 135 410 171 q 434 80 410 99 q 526 61 458 61 q 624 87 594 61 q 653 151 653 113 q 635 214 653 190 q 598 250 617 238 q 542 283 579 263 q 434 356 476 318 q 392 456 392 393 q 423 571 392 519 q 491 658 454 622 q 559 751 528 694 q 590 869 590 807 q 476 994 590 994 q 397 969 431 994 q 294 710 318 910 l 213 200 q 92 -169 175 -33 q -111 -304 10 -304 q -175 -267 -175 -304 q -157 -198 -175 -240 q -114 -156 -139 -156 z "},"à":{"ha":706,"x_min":46,"x_max":689,"o":"m 504 814 l 456 779 l 283 989 l 289 1021 l 401 1063 l 504 814 m 665 103 l 689 65 q 514 -12 581 -12 q 453 57 453 -12 q 476 193 453 86 l 490 257 l 479 260 q 190 -12 357 -12 q 82 42 118 -12 q 46 181 46 96 q 156 538 46 397 q 426 678 267 678 q 558 649 483 678 q 649 678 599 658 l 671 660 q 624 467 646 588 l 565 144 q 560 93 560 117 q 578 69 560 69 q 665 103 599 69 m 519 560 q 383 600 453 600 q 292 578 314 600 q 208 423 244 535 q 171 224 171 311 q 235 81 171 81 q 410 244 317 81 q 519 560 503 408 z "},"á":{"ha":706,"x_min":46,"x_max":689,"o":"m 676 989 l 426 779 l 379 814 l 574 1063 l 682 1021 l 676 989 m 665 103 l 689 65 q 514 -12 581 -12 q 453 57 453 -12 q 476 193 453 86 l 490 257 l 479 260 q 190 -12 357 -12 q 82 42 118 -12 q 46 181 46 96 q 156 538 46 397 q 426 678 267 678 q 558 649 483 678 q 649 678 599 658 l 671 660 q 624 467 646 588 l 565 144 q 560 93 560 117 q 578 69 560 69 q 665 103 599 69 m 519 560 q 383 600 453 600 q 292 578 314 600 q 208 423 244 535 q 171 224 171 311 q 235 81 171 81 q 410 244 317 81 q 519 560 503 408 z "},"â":{"ha":706,"x_min":46,"x_max":689,"o":"m 639 814 l 583 779 l 454 943 l 265 779 l 224 814 l 424 1049 l 511 1049 l 639 814 m 665 103 l 689 65 q 514 -12 581 -12 q 453 57 453 -12 q 476 193 453 86 l 490 257 l 479 260 q 190 -12 357 -12 q 82 42 118 -12 q 46 181 46 96 q 156 538 46 397 q 426 678 267 678 q 558 649 483 678 q 649 678 599 658 l 671 660 q 624 467 646 588 l 565 144 q 560 93 560 117 q 578 69 560 69 q 665 103 599 69 m 519 560 q 383 600 453 600 q 292 578 314 600 q 208 423 244 535 q 171 224 171 311 q 235 81 171 81 q 410 244 317 81 q 519 560 503 408 z "},"ã":{"ha":706,"x_min":46,"x_max":736,"o":"m 706 993 l 736 975 q 581 826 646 826 q 470 856 557 826 q 350 885 383 885 q 239 826 297 885 l 211 850 q 308 960 271 928 q 378 992 346 992 q 494 963 410 992 q 613 933 579 933 q 706 993 646 933 m 665 103 l 689 65 q 514 -12 581 -12 q 453 57 453 -12 q 476 193 453 86 l 490 257 l 479 260 q 190 -12 357 -12 q 82 42 118 -12 q 46 181 46 96 q 156 538 46 397 q 426 678 267 678 q 558 649 483 678 q 649 678 599 658 l 671 660 q 624 467 646 588 l 565 144 q 560 93 560 117 q 578 69 560 69 q 665 103 599 69 m 519 560 q 383 600 453 600 q 292 578 314 600 q 208 423 244 535 q 171 224 171 311 q 235 81 171 81 q 410 244 317 81 q 519 560 503 408 z "},"ä":{"ha":706,"x_min":46,"x_max":689,"o":"m 589 833 q 525 897 525 833 q 550 960 525 933 q 610 986 575 986 q 675 924 675 986 q 649 860 675 888 q 589 833 624 833 m 321 833 q 257 897 257 833 q 282 960 257 933 q 342 986 307 986 q 407 924 407 986 q 381 860 407 888 q 321 833 356 833 m 665 103 l 689 65 q 514 -12 581 -12 q 453 57 453 -12 q 476 193 453 86 l 490 257 l 479 260 q 190 -12 357 -12 q 82 42 118 -12 q 46 181 46 96 q 156 538 46 397 q 426 678 267 678 q 558 649 483 678 q 649 678 599 658 l 671 660 q 624 467 646 588 l 565 144 q 560 93 560 117 q 578 69 560 69 q 665 103 599 69 m 519 560 q 383 600 453 600 q 292 578 314 600 q 208 423 244 535 q 171 224 171 311 q 235 81 171 81 q 410 244 317 81 q 519 560 503 408 z "},"å":{"ha":706,"x_min":46,"x_max":689,"o":"m 478 1049 q 600 929 600 1049 q 557 826 600 869 q 442 783 514 783 q 318 896 318 783 q 361 1006 318 964 q 478 1049 404 1049 m 451 843 q 508 867 486 843 q 529 928 529 892 q 468 989 529 989 q 410 965 432 989 q 388 906 388 942 q 451 843 388 843 m 665 103 l 689 65 q 514 -12 581 -12 q 453 57 453 -12 q 476 193 453 86 l 490 257 l 479 260 q 190 -12 357 -12 q 82 42 118 -12 q 46 181 46 96 q 156 538 46 397 q 426 678 267 678 q 558 649 483 678 q 649 678 599 658 l 671 660 q 624 467 646 588 l 565 144 q 560 93 560 117 q 578 69 560 69 q 665 103 599 69 m 519 560 q 383 600 453 600 q 292 578 314 600 q 208 423 244 535 q 171 224 171 311 q 235 81 171 81 q 410 244 317 81 q 519 560 503 408 z "},"æ":{"ha":974,"x_min":46,"x_max":960,"o":"m 888 163 l 921 126 q 797 28 868 69 q 655 -12 726 -12 q 527 47 583 -12 q 471 224 471 106 l 471 257 l 461 260 q 185 -12 343 -12 q 81 42 115 -12 q 46 181 46 96 q 152 538 46 397 q 413 678 258 678 q 540 649 468 678 q 607 678 568 663 l 629 660 l 597 586 l 603 583 q 819 678 700 678 q 921 648 882 678 q 960 558 960 618 q 833 379 960 446 q 579 299 722 321 q 576 251 576 282 q 607 126 576 163 q 710 89 638 89 q 888 163 782 89 m 586 358 q 771 431 704 386 q 838 533 838 476 q 822 581 838 561 q 763 600 806 600 q 685 571 719 600 q 628 483 657 544 q 586 358 599 421 m 501 560 q 372 600 438 600 q 285 578 307 600 q 206 422 240 533 q 171 224 171 311 q 232 81 171 81 q 344 160 283 81 q 448 351 404 239 q 501 560 492 464 z "},"ç":{"ha":546,"x_min":46,"x_max":546,"o":"m 444 485 l 447 540 q 444 575 447 564 q 374 600 435 600 q 315 590 346 600 q 271 571 283 581 q 206 429 238 532 q 174 244 174 326 q 199 126 174 163 q 291 89 225 89 q 463 163 357 89 l 496 126 q 276 -7 389 14 l 250 -65 q 301 -62 264 -62 q 365 -83 339 -62 q 392 -137 392 -103 q 318 -248 392 -200 q 122 -301 244 -296 l 125 -258 q 272 -169 272 -237 q 217 -125 272 -125 q 157 -139 188 -125 l 149 -124 l 203 -8 q 91 61 136 3 q 46 224 46 119 q 152 547 46 415 q 408 678 258 678 q 546 663 488 678 q 518 485 546 586 l 444 485 z "},"è":{"ha":549,"x_min":46,"x_max":535,"o":"m 460 814 l 411 779 l 239 989 l 244 1021 l 357 1063 l 460 814 m 463 163 l 496 126 q 372 28 443 69 q 231 -12 301 -12 q 103 47 160 -12 q 46 224 46 106 q 151 546 46 414 q 401 678 256 678 q 498 648 461 678 q 535 558 535 618 q 414 379 535 446 q 172 299 311 321 q 169 251 169 282 q 196 126 169 163 q 290 89 222 89 q 463 163 357 89 m 179 358 q 351 431 289 386 q 413 533 413 476 q 349 600 413 600 q 271 571 304 600 q 217 482 244 543 q 179 358 190 421 z "},"é":{"ha":549,"x_min":46,"x_max":638,"o":"m 632 989 l 382 779 l 335 814 l 529 1063 l 638 1021 l 632 989 m 463 163 l 496 126 q 372 28 443 69 q 231 -12 301 -12 q 103 47 160 -12 q 46 224 46 106 q 151 546 46 414 q 401 678 256 678 q 498 648 461 678 q 535 558 535 618 q 414 379 535 446 q 172 299 311 321 q 169 251 169 282 q 196 126 169 163 q 290 89 222 89 q 463 163 357 89 m 179 358 q 351 431 289 386 q 413 533 413 476 q 349 600 413 600 q 271 571 304 600 q 217 482 244 543 q 179 358 190 421 z "},"ê":{"ha":549,"x_min":46,"x_max":594,"o":"m 594 814 l 539 779 l 410 943 l 221 779 l 179 814 l 379 1049 l 467 1049 l 594 814 m 463 163 l 496 126 q 372 28 443 69 q 231 -12 301 -12 q 103 47 160 -12 q 46 224 46 106 q 151 546 46 414 q 401 678 256 678 q 498 648 461 678 q 535 558 535 618 q 414 379 535 446 q 172 299 311 321 q 169 251 169 282 q 196 126 169 163 q 290 89 222 89 q 463 163 357 89 m 179 358 q 351 431 289 386 q 413 533 413 476 q 349 600 413 600 q 271 571 304 600 q 217 482 244 543 q 179 358 190 421 z "},"ë":{"ha":549,"x_min":46,"x_max":631,"o":"m 544 833 q 481 897 481 833 q 506 960 481 933 q 565 986 531 986 q 631 924 631 986 q 605 860 631 888 q 544 833 579 833 m 276 833 q 213 897 213 833 q 238 960 213 933 q 297 986 263 986 q 363 924 363 986 q 337 860 363 888 q 276 833 311 833 m 463 163 l 496 126 q 372 28 443 69 q 231 -12 301 -12 q 103 47 160 -12 q 46 224 46 106 q 151 546 46 414 q 401 678 256 678 q 498 648 461 678 q 535 558 535 618 q 414 379 535 446 q 172 299 311 321 q 169 251 169 282 q 196 126 169 163 q 290 89 222 89 q 463 163 357 89 m 179 358 q 351 431 289 386 q 413 533 413 476 q 349 600 413 600 q 271 571 304 600 q 217 482 244 543 q 179 358 190 421 z "},"ì":{"ha":351,"x_min":58,"x_max":335,"o":"m 331 814 l 282 779 l 110 989 l 115 1021 l 228 1063 l 331 814 m 311 103 l 335 65 q 161 -12 247 -12 q 86 75 86 -12 q 101 193 86 108 l 163 532 q 165 561 165 546 q 58 608 165 589 l 65 653 q 285 672 222 672 l 297 658 q 282 532 294 601 l 214 167 q 206 103 206 108 q 228 69 206 69 q 311 103 244 69 z "},"í":{"ha":351,"x_min":58,"x_max":508,"o":"m 503 989 l 253 779 l 206 814 l 400 1063 l 508 1021 l 503 989 m 311 103 l 335 65 q 161 -12 247 -12 q 86 75 86 -12 q 101 193 86 108 l 163 532 q 165 561 165 546 q 58 608 165 589 l 65 653 q 285 672 222 672 l 297 658 q 282 532 294 601 l 214 167 q 206 103 206 108 q 228 69 206 69 q 311 103 244 69 z "},"î":{"ha":351,"x_min":50,"x_max":465,"o":"m 465 814 l 410 779 l 281 943 l 92 779 l 50 814 l 250 1049 l 338 1049 l 465 814 m 311 103 l 335 65 q 161 -12 247 -12 q 86 75 86 -12 q 101 193 86 108 l 163 532 q 165 561 165 546 q 58 608 165 589 l 65 653 q 285 672 222 672 l 297 658 q 282 532 294 601 l 214 167 q 206 103 206 108 q 228 69 206 69 q 311 103 244 69 z "},"ï":{"ha":351,"x_min":31,"x_max":449,"o":"m 363 833 q 299 897 299 833 q 324 960 299 933 q 383 986 349 986 q 449 924 449 986 q 423 860 449 888 q 363 833 397 833 m 94 833 q 31 897 31 833 q 56 960 31 933 q 115 986 81 986 q 181 924 181 986 q 155 860 181 888 q 94 833 129 833 m 311 103 l 335 65 q 161 -12 247 -12 q 86 75 86 -12 q 101 193 86 108 l 163 532 q 165 561 165 546 q 58 608 165 589 l 65 653 q 285 672 222 672 l 297 658 q 282 532 294 601 l 214 167 q 206 103 206 108 q 228 69 206 69 q 311 103 244 69 z "},"ð":{"ha":706,"x_min":53,"x_max":750,"o":"m 750 1019 l 565 950 q 660 735 625 861 q 694 497 694 608 q 588 118 694 249 q 296 -12 482 -12 q 116 63 179 -12 q 53 263 53 138 q 158 563 53 447 q 442 678 264 678 q 558 656 506 678 q 472 914 542 807 l 290 844 l 258 899 l 436 967 q 368 1040 408 1004 l 447 1079 q 526 1001 490 1043 l 715 1075 l 750 1019 m 331 61 q 464 100 425 61 q 528 223 503 139 q 553 399 553 307 q 516 547 553 490 q 408 604 479 604 q 275 565 314 604 q 212 442 236 526 q 188 267 188 358 q 224 118 188 175 q 331 61 260 61 z "},"ñ":{"ha":756,"x_min":56,"x_max":750,"o":"m 719 993 l 750 975 q 594 826 660 826 q 484 856 571 826 q 364 885 397 885 q 253 826 311 885 l 225 850 q 322 960 285 928 q 392 992 360 992 q 508 963 424 992 q 626 933 593 933 q 719 993 660 933 m 547 -12 q 475 85 475 -12 q 557 429 475 129 q 576 539 576 503 q 528 585 576 585 q 422 539 481 585 q 311 417 363 493 q 226 232 260 342 q 192 7 192 122 q 78 -12 129 4 l 56 6 q 101 193 81 83 l 161 524 q 164 553 164 538 q 57 600 164 581 l 64 644 q 283 664 221 664 l 296 650 q 236 408 265 549 l 244 406 q 397 605 306 532 q 582 678 488 678 q 699 565 699 678 q 646 322 699 526 q 593 93 593 117 q 615 69 593 69 q 700 103 633 69 l 724 65 q 547 -12 615 -12 z "},"ò":{"ha":660,"x_min":46,"x_max":632,"o":"m 501 814 l 453 779 l 281 989 l 286 1021 l 399 1063 l 501 814 m 540 139 q 424 30 496 72 q 256 -12 353 -12 q 102 49 158 -12 q 46 222 46 111 q 136 525 46 382 q 251 635 179 593 q 421 678 324 678 q 575 615 518 678 q 632 440 632 553 q 540 139 632 276 m 176 247 q 300 61 176 61 q 408 97 363 61 q 469 224 436 119 q 501 426 501 328 q 376 604 501 604 q 269 568 315 604 q 209 442 242 546 q 176 247 176 338 z "},"ó":{"ha":660,"x_min":46,"x_max":679,"o":"m 674 989 l 424 779 l 376 814 l 571 1063 l 679 1021 l 674 989 m 540 139 q 424 30 496 72 q 256 -12 353 -12 q 102 49 158 -12 q 46 222 46 111 q 136 525 46 382 q 251 635 179 593 q 421 678 324 678 q 575 615 518 678 q 632 440 632 553 q 540 139 632 276 m 176 247 q 300 61 176 61 q 408 97 363 61 q 469 224 436 119 q 501 426 501 328 q 376 604 501 604 q 269 568 315 604 q 209 442 242 546 q 176 247 176 338 z "},"ô":{"ha":660,"x_min":46,"x_max":636,"o":"m 636 814 l 581 779 l 451 943 l 263 779 l 221 814 l 421 1049 l 508 1049 l 636 814 m 540 139 q 424 30 496 72 q 256 -12 353 -12 q 102 49 158 -12 q 46 222 46 111 q 136 525 46 382 q 251 635 179 593 q 421 678 324 678 q 575 615 518 678 q 632 440 632 553 q 540 139 632 276 m 176 247 q 300 61 176 61 q 408 97 363 61 q 469 224 436 119 q 501 426 501 328 q 376 604 501 604 q 269 568 315 604 q 209 442 242 546 q 176 247 176 338 z "},"õ":{"ha":660,"x_min":46,"x_max":733,"o":"m 703 993 l 733 975 q 578 826 643 826 q 467 856 554 826 q 347 885 381 885 q 236 826 294 885 l 208 850 q 306 960 268 928 q 375 992 343 992 q 492 963 407 992 q 610 933 576 933 q 703 993 643 933 m 540 139 q 424 30 496 72 q 256 -12 353 -12 q 102 49 158 -12 q 46 222 46 111 q 136 525 46 382 q 251 635 179 593 q 421 678 324 678 q 575 615 518 678 q 632 440 632 553 q 540 139 632 276 m 176 247 q 300 61 176 61 q 408 97 363 61 q 469 224 436 119 q 501 426 501 328 q 376 604 501 604 q 269 568 315 604 q 209 442 242 546 q 176 247 176 338 z "},"ö":{"ha":660,"x_min":46,"x_max":672,"o":"m 586 833 q 522 897 522 833 q 547 960 522 933 q 607 986 572 986 q 672 924 672 986 q 647 860 672 888 q 586 833 621 833 m 318 833 q 254 897 254 833 q 279 960 254 933 q 339 986 304 986 q 404 924 404 986 q 378 860 404 888 q 318 833 353 833 m 540 139 q 424 30 496 72 q 256 -12 353 -12 q 102 49 158 -12 q 46 222 46 111 q 136 525 46 382 q 251 635 179 593 q 421 678 324 678 q 575 615 518 678 q 632 440 632 553 q 540 139 632 276 m 176 247 q 300 61 176 61 q 408 97 363 61 q 469 224 436 119 q 501 426 501 328 q 376 604 501 604 q 269 568 315 604 q 209 442 242 546 q 176 247 176 338 z "},"÷":{"ha":592,"x_min":51,"x_max":574,"o":"m 385 604 q 362 547 385 571 q 303 522 339 522 q 246 543 268 522 q 224 600 224 564 q 246 660 224 636 q 303 683 268 683 q 385 604 385 683 m 574 339 l 51 339 l 51 413 l 574 413 l 574 339 m 385 171 q 362 113 385 138 q 303 89 339 89 q 246 110 268 89 q 224 167 224 131 q 246 226 224 203 q 303 250 268 250 q 385 171 385 250 z "},"ø":{"ha":660,"x_min":40,"x_max":656,"o":"m 110 -92 l 40 -64 l 108 43 q 46 222 46 103 q 136 525 46 382 q 251 635 179 593 q 411 678 324 678 q 501 663 460 678 l 585 794 l 656 767 l 565 625 q 632 440 632 561 q 540 139 632 276 q 424 30 496 72 q 265 -12 353 -12 q 169 3 213 -12 l 110 -92 m 183 163 l 449 581 q 368 604 421 604 q 269 568 315 604 q 209 442 242 546 q 176 264 176 338 q 183 163 176 190 m 492 508 l 224 88 q 308 61 254 61 q 408 97 363 61 q 469 224 436 119 q 501 401 501 328 q 492 508 501 475 z "},"ù":{"ha":724,"x_min":46,"x_max":707,"o":"m 522 814 l 474 779 l 301 989 l 307 1021 l 419 1063 l 522 814 m 683 103 l 707 65 q 531 -12 599 -12 q 471 57 471 -12 q 494 193 471 86 l 508 257 l 500 260 q 359 63 444 138 q 186 -12 274 -12 q 72 124 72 -12 q 90 250 72 169 l 150 532 q 153 561 153 546 q 46 608 153 589 l 53 653 q 272 672 210 672 l 285 658 q 269 532 282 589 l 215 268 q 197 151 197 178 q 247 85 197 85 q 340 130 289 85 q 439 251 392 175 q 519 438 486 328 q 553 658 553 549 q 667 678 617 661 l 689 660 q 643 472 664 582 l 583 144 q 578 93 578 117 q 596 69 578 69 q 683 103 617 69 z "},"ú":{"ha":724,"x_min":46,"x_max":707,"o":"m 611 989 l 361 779 l 314 814 l 508 1063 l 617 1021 l 611 989 m 683 103 l 707 65 q 531 -12 599 -12 q 471 57 471 -12 q 494 193 471 86 l 508 257 l 500 260 q 359 63 444 138 q 186 -12 274 -12 q 72 124 72 -12 q 90 250 72 169 l 150 532 q 153 561 153 546 q 46 608 153 589 l 53 653 q 272 672 210 672 l 285 658 q 269 532 282 589 l 215 268 q 197 151 197 178 q 247 85 197 85 q 340 130 289 85 q 439 251 392 175 q 519 438 486 328 q 553 658 553 549 q 667 678 617 661 l 689 660 q 643 472 664 582 l 583 144 q 578 93 578 117 q 596 69 578 69 q 683 103 617 69 z "},"û":{"ha":724,"x_min":46,"x_max":707,"o":"m 657 814 l 601 779 l 472 943 l 283 779 l 242 814 l 442 1049 l 529 1049 l 657 814 m 683 103 l 707 65 q 531 -12 599 -12 q 471 57 471 -12 q 494 193 471 86 l 508 257 l 500 260 q 359 63 444 138 q 186 -12 274 -12 q 72 124 72 -12 q 90 250 72 169 l 150 532 q 153 561 153 546 q 46 608 153 589 l 53 653 q 272 672 210 672 l 285 658 q 269 532 282 589 l 215 268 q 197 151 197 178 q 247 85 197 85 q 340 130 289 85 q 439 251 392 175 q 519 438 486 328 q 553 658 553 549 q 667 678 617 661 l 689 660 q 643 472 664 582 l 583 144 q 578 93 578 117 q 596 69 578 69 q 683 103 617 69 z "},"ü":{"ha":724,"x_min":46,"x_max":707,"o":"m 593 833 q 529 897 529 833 q 554 960 529 933 q 614 986 579 986 q 679 924 679 986 q 653 860 679 888 q 593 833 628 833 m 325 833 q 261 897 261 833 q 286 960 261 933 q 346 986 311 986 q 411 924 411 986 q 385 860 411 888 q 325 833 360 833 m 683 103 l 707 65 q 531 -12 599 -12 q 471 57 471 -12 q 494 193 471 86 l 508 257 l 500 260 q 359 63 444 138 q 186 -12 274 -12 q 72 124 72 -12 q 90 250 72 169 l 150 532 q 153 561 153 546 q 46 608 153 589 l 53 653 q 272 672 210 672 l 285 658 q 269 532 282 589 l 215 268 q 197 151 197 178 q 247 85 197 85 q 340 130 289 85 q 439 251 392 175 q 519 438 486 328 q 553 658 553 549 q 667 678 617 661 l 689 660 q 643 472 664 582 l 583 144 q 578 93 578 117 q 596 69 578 69 q 683 103 617 69 z "},"ý":{"ha":675,"x_min":-117,"x_max":671,"o":"m 626 989 l 376 779 l 329 814 l 524 1063 l 632 1021 l 626 989 m 258 -10 l 143 546 q 119 592 135 583 q 33 608 103 601 l 40 653 q 235 672 190 672 l 247 658 l 347 107 l 353 106 q 499 344 440 222 q 557 544 557 467 q 540 583 557 569 q 506 601 524 597 q 449 608 489 604 l 456 653 q 650 672 600 672 l 663 658 q 671 608 671 643 q 590 347 671 506 q 399 45 510 188 q 160 -201 288 -97 q -53 -304 32 -304 q -117 -272 -117 -304 q -95 -192 -117 -235 q -54 -150 -74 -150 q -7 -158 -40 -150 q 35 -167 26 -167 q 258 -10 114 -167 z "},"þ":{"ha":682,"x_min":-29,"x_max":663,"o":"m -7 -304 l -29 -286 q 17 -99 -4 -208 l 214 932 q 217 961 217 946 q 110 1008 217 989 l 117 1053 q 336 1072 274 1072 l 349 1058 q 333 932 346 1001 l 272 626 q 225 436 261 571 l 218 408 l 229 406 l 233 415 q 518 678 353 678 q 626 624 590 678 q 663 485 663 569 q 552 128 663 268 q 282 -12 442 -12 q 146 18 229 -12 q 117 -285 117 -161 q -7 -304 39 -287 m 189 106 q 325 65 256 65 q 417 88 394 65 q 501 242 464 131 q 538 442 538 354 q 474 585 538 585 q 299 421 392 585 q 189 106 206 257 z "},"ÿ":{"ha":675,"x_min":-117,"x_max":671,"o":"m 539 833 q 475 897 475 833 q 500 960 475 933 q 560 986 525 986 q 625 924 625 986 q 599 860 625 888 q 539 833 574 833 m 271 833 q 207 897 207 833 q 232 960 207 933 q 292 986 257 986 q 357 924 357 986 q 331 860 357 888 q 271 833 306 833 m 258 -10 l 143 546 q 119 592 135 583 q 33 608 103 601 l 40 653 q 235 672 190 672 l 247 658 l 347 107 l 353 106 q 499 344 440 222 q 557 544 557 467 q 540 583 557 569 q 506 601 524 597 q 449 608 489 604 l 456 653 q 650 672 600 672 l 663 658 q 671 608 671 643 q 590 347 671 506 q 399 45 510 188 q 160 -201 288 -97 q -53 -304 32 -304 q -117 -272 -117 -304 q -95 -192 -117 -235 q -54 -150 -74 -150 q -7 -158 -40 -150 q 35 -167 26 -167 q 258 -10 114 -167 z "},"Ā":{"ha":929,"x_min":-25,"x_max":890,"o":"m 807 1117 l 461 1117 l 476 1200 l 822 1200 l 807 1117 m 883 0 l 550 0 l 550 56 q 638 79 611 68 q 665 107 665 90 q 664 131 665 124 l 638 311 l 278 311 l 168 111 q 158 89 158 92 q 165 81 158 82 l 254 54 l 247 0 l -25 0 l -25 56 q 44 78 31 69 q 74 115 58 86 l 544 975 l 660 975 l 814 89 q 890 54 818 68 l 883 0 m 626 385 l 563 775 q 561 815 561 792 l 547 815 l 317 385 l 626 385 z "},"ā":{"ha":706,"x_min":46,"x_max":689,"o":"m 631 892 l 285 892 l 300 975 l 646 975 l 631 892 m 665 103 l 689 65 q 514 -12 581 -12 q 453 57 453 -12 q 476 193 453 86 l 490 257 l 479 260 q 190 -12 357 -12 q 82 42 118 -12 q 46 181 46 96 q 156 538 46 397 q 426 678 267 678 q 558 649 483 678 q 649 678 599 658 l 671 660 q 624 467 646 588 l 565 144 q 560 93 560 117 q 578 69 560 69 q 665 103 599 69 m 519 560 q 383 600 453 600 q 292 578 314 600 q 208 423 244 535 q 171 224 171 311 q 235 81 171 81 q 410 244 317 81 q 519 560 503 408 z "},"Ă":{"ha":929,"x_min":-25,"x_max":890,"o":"m 825 1250 l 876 1250 q 794 1110 856 1164 q 639 1056 732 1056 q 503 1100 546 1056 q 461 1217 461 1144 q 463 1250 461 1239 l 514 1250 q 650 1150 518 1150 q 825 1250 782 1150 m 883 0 l 550 0 l 550 56 q 638 79 611 68 q 665 107 665 90 q 664 131 665 124 l 638 311 l 278 311 l 168 111 q 158 89 158 92 q 165 81 158 82 l 254 54 l 247 0 l -25 0 l -25 56 q 44 78 31 69 q 74 115 58 86 l 544 975 l 660 975 l 814 89 q 890 54 818 68 l 883 0 m 626 385 l 563 775 q 561 815 561 792 l 547 815 l 317 385 l 626 385 z "},"ă":{"ha":706,"x_min":46,"x_max":689,"o":"m 625 1000 l 676 1000 q 592 847 654 907 q 436 788 529 788 q 301 835 343 788 q 260 960 260 882 q 263 1000 260 972 l 314 1000 q 449 882 317 882 q 625 1000 581 882 m 665 103 l 689 65 q 514 -12 581 -12 q 453 57 453 -12 q 476 193 453 86 l 490 257 l 479 260 q 190 -12 357 -12 q 82 42 118 -12 q 46 181 46 96 q 156 538 46 397 q 426 678 267 678 q 558 649 483 678 q 649 678 599 658 l 671 660 q 624 467 646 588 l 565 144 q 560 93 560 117 q 578 69 560 69 q 665 103 599 69 m 519 560 q 383 600 453 600 q 292 578 314 600 q 208 423 244 535 q 171 224 171 311 q 235 81 171 81 q 410 244 317 81 q 519 560 503 408 z "},"Ą":{"ha":929,"x_min":-25,"x_max":890,"o":"m 603 -161 q 675 -221 603 -221 q 753 -207 711 -221 l 765 -235 q 600 -299 682 -299 q 518 -269 551 -299 q 485 -189 485 -239 q 529 -85 485 -139 q 650 0 574 -32 l 550 0 l 550 56 q 638 79 611 68 q 665 107 665 90 q 664 131 665 124 l 638 311 l 278 311 l 168 111 q 158 89 158 92 q 165 81 158 82 l 254 54 l 247 0 l -25 0 l -25 56 q 44 78 31 69 q 74 115 58 86 l 544 975 l 660 975 l 814 89 q 890 54 818 68 l 883 0 l 829 0 q 671 -48 739 0 q 603 -161 603 -96 m 626 385 l 563 775 q 561 815 561 792 l 547 815 l 317 385 l 626 385 z "},"ą":{"ha":706,"x_min":46,"x_max":689,"o":"m 536 -49 q 514 -70 536 -49 q 492 -156 492 -92 q 564 -221 492 -221 q 640 -207 600 -221 l 653 -235 q 488 -299 569 -299 q 408 -267 440 -299 q 375 -183 375 -236 q 488 -8 375 -92 q 453 57 453 4 q 476 193 453 86 l 490 257 l 479 260 q 190 -12 357 -12 q 82 42 118 -12 q 46 181 46 96 q 156 538 46 397 q 426 678 267 678 q 558 649 483 678 q 649 678 599 658 l 671 660 q 624 467 646 588 l 565 144 q 560 93 560 117 q 578 69 560 69 q 665 103 599 69 l 689 65 q 642 33 675 56 q 536 -49 581 -7 m 519 560 q 383 600 453 600 q 292 578 314 600 q 208 423 244 535 q 171 224 171 311 q 235 81 171 81 q 410 244 317 81 q 519 560 503 408 z "},"Ć":{"ha":817,"x_min":82,"x_max":869,"o":"m 853 1169 l 550 1040 l 517 1090 l 792 1269 l 869 1199 l 853 1169 m 711 278 l 788 275 q 754 50 776 157 q 622 7 708 26 q 447 -12 535 -12 q 178 99 274 -12 q 82 379 82 210 q 153 696 82 549 q 250 837 192 776 q 402 936 308 897 q 590 975 496 975 q 760 961 683 975 q 860 936 838 947 q 832 703 860 844 l 751 692 q 722 869 743 850 q 667 890 713 879 q 578 901 622 901 q 427 860 493 901 q 321 749 361 819 q 240 401 240 607 q 314 149 240 233 q 494 65 388 65 q 584 78 542 65 q 639 100 626 90 q 711 278 658 113 z "},"ć":{"ha":546,"x_min":46,"x_max":647,"o":"m 642 989 l 392 779 l 344 814 l 539 1063 l 647 1021 l 642 989 m 444 485 l 447 540 q 444 575 447 564 q 374 600 435 600 q 315 590 346 600 q 271 571 283 581 q 206 429 238 532 q 174 244 174 326 q 199 126 174 163 q 291 89 225 89 q 463 163 357 89 l 496 126 q 372 28 443 69 q 231 -12 301 -12 q 103 47 160 -12 q 46 224 46 106 q 152 547 46 415 q 408 678 258 678 q 546 663 488 678 q 518 485 546 586 l 444 485 z "},"Ĉ":{"ha":817,"x_min":82,"x_max":867,"o":"m 867 1076 l 825 1040 l 656 1167 l 439 1040 l 411 1076 l 628 1269 l 706 1269 l 867 1076 m 711 278 l 788 275 q 754 50 776 157 q 622 7 708 26 q 447 -12 535 -12 q 178 99 274 -12 q 82 379 82 210 q 153 696 82 549 q 250 837 192 776 q 402 936 308 897 q 590 975 496 975 q 760 961 683 975 q 860 936 838 947 q 832 703 860 844 l 751 692 q 722 869 743 850 q 667 890 713 879 q 578 901 622 901 q 427 860 493 901 q 321 749 361 819 q 240 401 240 607 q 314 149 240 233 q 494 65 388 65 q 584 78 542 65 q 639 100 626 90 q 711 278 658 113 z "},"ĉ":{"ha":546,"x_min":46,"x_max":604,"o":"m 604 814 l 549 779 l 419 943 l 231 779 l 189 814 l 389 1049 l 476 1049 l 604 814 m 444 485 l 447 540 q 444 575 447 564 q 374 600 435 600 q 315 590 346 600 q 271 571 283 581 q 206 429 238 532 q 174 244 174 326 q 199 126 174 163 q 291 89 225 89 q 463 163 357 89 l 496 126 q 372 28 443 69 q 231 -12 301 -12 q 103 47 160 -12 q 46 224 46 106 q 152 547 46 415 q 408 678 258 678 q 546 663 488 678 q 518 485 546 586 l 444 485 z "},"Ċ":{"ha":817,"x_min":82,"x_max":860,"o":"m 648 1242 q 666 1242 648 1242 q 706 1223 683 1242 q 728 1169 728 1204 q 706 1110 728 1133 q 647 1088 683 1088 q 572 1165 572 1088 q 592 1219 572 1197 q 648 1242 613 1242 m 711 278 l 788 275 q 754 50 776 157 q 622 7 708 26 q 447 -12 535 -12 q 178 99 274 -12 q 82 379 82 210 q 153 696 82 549 q 250 837 192 776 q 402 936 308 897 q 590 975 496 975 q 760 961 683 975 q 860 936 838 947 q 832 703 860 844 l 751 692 q 722 869 743 850 q 667 890 713 879 q 578 901 622 901 q 427 860 493 901 q 321 749 361 819 q 240 401 240 607 q 314 149 240 233 q 494 65 388 65 q 584 78 542 65 q 639 100 626 90 q 711 278 658 113 z "},"ċ":{"ha":546,"x_min":46,"x_max":546,"o":"m 427 1007 q 445 1007 427 1007 q 485 988 463 1007 q 507 934 507 969 q 485 876 507 899 q 426 853 463 853 q 351 931 351 853 q 372 985 351 963 q 427 1007 392 1007 m 444 485 l 447 540 q 444 575 447 564 q 374 600 435 600 q 315 590 346 600 q 271 571 283 581 q 206 429 238 532 q 174 244 174 326 q 199 126 174 163 q 291 89 225 89 q 463 163 357 89 l 496 126 q 372 28 443 69 q 231 -12 301 -12 q 103 47 160 -12 q 46 224 46 106 q 152 547 46 415 q 408 678 258 678 q 546 663 488 678 q 518 485 546 586 l 444 485 z "},"Č":{"ha":817,"x_min":82,"x_max":868,"o":"m 868 1238 l 650 1044 l 572 1044 l 413 1238 l 454 1274 l 624 1147 l 840 1274 l 868 1238 m 711 278 l 788 275 q 754 50 776 157 q 622 7 708 26 q 447 -12 535 -12 q 178 99 274 -12 q 82 379 82 210 q 153 696 82 549 q 250 837 192 776 q 402 936 308 897 q 590 975 496 975 q 760 961 683 975 q 860 936 838 947 q 832 703 860 844 l 751 692 q 722 869 743 850 q 667 890 713 879 q 578 901 622 901 q 427 860 493 901 q 321 749 361 819 q 240 401 240 607 q 314 149 240 233 q 494 65 388 65 q 584 78 542 65 q 639 100 626 90 q 711 278 658 113 z "},"č":{"ha":546,"x_min":46,"x_max":635,"o":"m 442 786 l 354 786 l 219 1021 l 275 1056 l 404 892 l 593 1056 l 635 1021 l 442 786 m 444 485 l 447 540 q 444 575 447 564 q 374 600 435 600 q 315 590 346 600 q 271 571 283 581 q 206 429 238 532 q 174 244 174 326 q 199 126 174 163 q 291 89 225 89 q 463 163 357 89 l 496 126 q 372 28 443 69 q 231 -12 301 -12 q 103 47 160 -12 q 46 224 46 106 q 152 547 46 415 q 408 678 258 678 q 546 663 488 678 q 518 485 546 586 l 444 485 z "},"Ď":{"ha":958,"x_min":31,"x_max":976,"o":"m 861 1238 l 643 1044 l 565 1044 l 406 1238 l 447 1274 l 617 1147 l 833 1274 l 861 1238 m 432 0 l 31 0 l 31 54 q 124 82 106 67 q 150 140 142 97 l 271 822 q 275 860 275 843 q 256 888 275 876 q 179 908 238 899 l 188 963 l 592 963 q 769 931 693 963 q 889 847 846 900 q 976 589 976 740 q 850 193 976 369 q 678 53 786 106 q 432 0 569 0 m 549 889 l 417 889 l 286 151 q 282 121 282 122 q 306 93 282 99 q 447 74 399 74 q 724 210 629 74 q 818 563 818 346 q 792 719 818 651 q 725 821 767 786 q 549 889 643 889 z "},"ď":{"ha":710,"x_min":46,"x_max":953,"o":"m 817 801 l 763 821 q 817 1044 813 942 l 940 1075 l 953 1049 q 817 801 914 914 m 665 103 l 689 65 q 514 -12 581 -12 q 453 57 453 -12 q 476 193 453 86 l 490 257 l 479 260 q 190 -12 357 -12 q 82 42 118 -12 q 46 181 46 96 q 156 538 46 397 q 426 678 267 678 q 544 656 475 678 l 597 932 q 600 961 600 946 q 493 1008 600 989 l 500 1053 q 719 1072 657 1072 l 732 1058 q 717 932 729 1001 l 565 144 q 560 93 560 117 q 578 69 560 69 q 665 103 599 69 m 519 560 q 383 600 453 600 q 292 578 314 600 q 208 423 244 535 q 171 224 171 311 q 235 81 171 81 q 410 244 317 81 q 519 560 503 408 z "},"Đ":{"ha":958,"x_min":31,"x_max":976,"o":"m 800 1117 l 454 1117 l 469 1200 l 815 1200 l 800 1117 m 432 0 l 31 0 l 31 54 q 124 82 106 67 q 150 140 142 97 l 271 822 q 275 860 275 843 q 256 888 275 876 q 179 908 238 899 l 188 963 l 592 963 q 769 931 693 963 q 889 847 846 900 q 976 589 976 740 q 850 193 976 369 q 678 53 786 106 q 432 0 569 0 m 549 889 l 417 889 l 286 151 q 282 121 282 122 q 306 93 282 99 q 447 74 399 74 q 724 210 629 74 q 818 563 818 346 q 792 719 818 651 q 725 821 767 786 q 549 889 643 889 z "},"đ":{"ha":710,"x_min":46,"x_max":810,"o":"m 665 103 l 689 65 q 514 -12 581 -12 q 453 57 453 -12 q 476 193 453 86 l 490 257 l 479 260 q 190 -12 357 -12 q 82 42 118 -12 q 46 181 46 96 q 156 538 46 397 q 426 678 267 678 q 544 656 475 678 l 581 842 l 404 842 l 418 915 l 594 915 l 597 932 q 600 961 600 946 q 493 1008 600 989 l 500 1053 q 719 1072 657 1072 l 732 1058 q 717 932 729 1001 l 714 915 l 810 915 l 796 842 l 700 842 l 565 144 q 560 93 560 117 q 578 69 560 69 q 665 103 599 69 m 519 560 q 383 600 453 600 q 292 578 314 600 q 208 423 244 535 q 171 224 171 311 q 235 81 171 81 q 410 244 317 81 q 519 560 503 408 z "},"Ē":{"ha":822,"x_min":28,"x_max":844,"o":"m 744 1117 l 399 1117 l 414 1200 l 760 1200 l 744 1117 m 763 249 q 704 0 750 138 l 28 0 l 28 54 q 122 82 103 67 q 150 140 142 97 l 269 822 q 274 859 274 842 q 255 888 274 876 q 179 908 236 899 l 188 963 l 844 963 q 813 746 844 892 l 731 736 q 725 856 729 832 q 710 882 721 881 q 626 888 676 886 l 417 892 l 351 518 l 560 518 q 586 547 571 518 q 621 617 601 575 l 664 613 q 635 338 640 482 l 583 329 q 570 425 575 406 q 556 444 565 444 l 338 444 l 272 71 l 396 72 q 560 81 536 76 q 597 92 583 86 q 686 256 622 99 l 763 249 z "},"ē":{"ha":549,"x_min":46,"x_max":601,"o":"m 586 892 l 240 892 l 256 975 l 601 975 l 586 892 m 463 163 l 496 126 q 372 28 443 69 q 231 -12 301 -12 q 103 47 160 -12 q 46 224 46 106 q 151 546 46 414 q 401 678 256 678 q 498 648 461 678 q 535 558 535 618 q 414 379 535 446 q 172 299 311 321 q 169 251 169 282 q 196 126 169 163 q 290 89 222 89 q 463 163 357 89 m 179 358 q 351 431 289 386 q 413 533 413 476 q 349 600 413 600 q 271 571 304 600 q 217 482 244 543 q 179 358 190 421 z "},"Ė":{"ha":822,"x_min":28,"x_max":844,"o":"m 566 1242 q 584 1242 566 1242 q 624 1223 601 1242 q 646 1169 646 1204 q 624 1110 646 1133 q 565 1088 601 1088 q 490 1165 490 1088 q 510 1219 490 1197 q 566 1242 531 1242 m 763 249 q 704 0 750 138 l 28 0 l 28 54 q 122 82 103 67 q 150 140 142 97 l 269 822 q 274 859 274 842 q 255 888 274 876 q 179 908 236 899 l 188 963 l 844 963 q 813 746 844 892 l 731 736 q 725 856 729 832 q 710 882 721 881 q 626 888 676 886 l 417 892 l 351 518 l 560 518 q 586 547 571 518 q 621 617 601 575 l 664 613 q 635 338 640 482 l 583 329 q 570 425 575 406 q 556 444 565 444 l 338 444 l 272 71 l 396 72 q 560 81 536 76 q 597 92 583 86 q 686 256 622 99 l 763 249 z "},"ė":{"ha":549,"x_min":46,"x_max":535,"o":"m 417 1007 q 435 1007 417 1007 q 475 988 453 1007 q 497 934 497 969 q 475 876 497 899 q 417 853 453 853 q 342 931 342 853 q 362 985 342 963 q 417 1007 382 1007 m 463 163 l 496 126 q 372 28 443 69 q 231 -12 301 -12 q 103 47 160 -12 q 46 224 46 106 q 151 546 46 414 q 401 678 256 678 q 498 648 461 678 q 535 558 535 618 q 414 379 535 446 q 172 299 311 321 q 169 251 169 282 q 196 126 169 163 q 290 89 222 89 q 463 163 357 89 m 179 358 q 351 431 289 386 q 413 533 413 476 q 349 600 413 600 q 271 571 304 600 q 217 482 244 543 q 179 358 190 421 z "},"Ę":{"ha":822,"x_min":29,"x_max":844,"o":"m 478 -161 q 550 -221 478 -221 q 628 -207 586 -221 l 640 -235 q 475 -299 557 -299 q 393 -269 426 -299 q 360 -189 360 -239 q 404 -85 360 -139 q 525 0 449 -32 l 29 0 l 29 54 q 123 82 104 67 q 150 140 142 97 l 269 822 q 274 859 274 842 q 255 888 274 876 q 179 908 236 899 l 188 963 l 844 963 q 813 746 844 892 l 731 736 q 725 856 729 832 q 710 882 721 881 q 626 888 676 886 l 417 892 l 351 518 l 560 518 q 586 547 571 518 q 621 617 601 575 l 664 613 q 635 338 640 482 l 583 329 q 570 425 575 406 q 556 444 565 444 l 338 444 l 272 72 l 396 72 q 560 81 536 76 q 597 92 583 86 q 686 256 622 99 l 763 249 q 704 0 750 138 q 546 -49 614 -3 q 478 -161 478 -96 z "},"ę":{"ha":549,"x_min":46,"x_max":535,"o":"m 246 -157 q 317 -221 246 -221 q 394 -207 354 -221 l 407 -235 q 242 -299 324 -299 q 162 -267 194 -299 q 129 -183 129 -236 q 228 -12 129 -93 q 100 50 154 -8 q 46 224 46 108 q 151 546 46 414 q 401 678 256 678 q 498 648 461 678 q 535 558 535 618 q 414 379 535 446 q 172 299 311 321 q 169 251 169 282 q 196 126 169 163 q 290 89 222 89 q 463 163 357 89 l 496 126 q 415 60 474 103 q 343 6 357 17 q 246 -157 246 -76 m 271 571 q 217 482 244 543 q 179 358 190 421 q 351 431 289 386 q 413 533 413 476 q 349 600 413 600 q 271 571 304 600 z "},"Ě":{"ha":822,"x_min":28,"x_max":844,"o":"m 806 1238 l 588 1044 l 510 1044 l 350 1238 l 392 1274 l 561 1147 l 778 1274 l 806 1238 m 763 249 q 704 0 750 138 l 28 0 l 28 54 q 122 82 103 67 q 150 140 142 97 l 269 822 q 274 859 274 842 q 255 888 274 876 q 179 908 236 899 l 188 963 l 844 963 q 813 746 844 892 l 731 736 q 725 856 729 832 q 710 882 721 881 q 626 888 676 886 l 417 892 l 351 518 l 560 518 q 586 547 571 518 q 621 617 601 575 l 664 613 q 635 338 640 482 l 583 329 q 570 425 575 406 q 556 444 565 444 l 338 444 l 272 71 l 396 72 q 560 81 536 76 q 597 92 583 86 q 686 256 622 99 l 763 249 z "},"ě":{"ha":549,"x_min":46,"x_max":625,"o":"m 432 786 l 344 786 l 210 1021 l 265 1056 l 394 892 l 583 1056 l 625 1021 l 432 786 m 463 163 l 496 126 q 372 28 443 69 q 231 -12 301 -12 q 103 47 160 -12 q 46 224 46 106 q 151 546 46 414 q 401 678 256 678 q 498 648 461 678 q 535 558 535 618 q 414 379 535 446 q 172 299 311 321 q 169 251 169 282 q 196 126 169 163 q 290 89 222 89 q 463 163 357 89 m 179 358 q 351 431 289 386 q 413 533 413 476 q 349 600 413 600 q 271 571 304 600 q 217 482 244 543 q 179 358 190 421 z "},"Ĝ":{"ha":901,"x_min":83,"x_max":889,"o":"m 867 1076 l 825 1040 l 656 1167 l 439 1040 l 411 1076 l 628 1269 l 706 1269 l 867 1076 m 615 88 l 643 281 q 646 318 646 303 q 627 345 646 333 q 550 367 608 357 l 565 421 l 889 421 l 889 367 l 815 350 q 782 314 788 344 l 744 51 q 615 8 699 28 q 446 -12 531 -12 q 175 101 267 -12 q 83 383 83 214 q 153 696 83 553 q 251 837 193 776 q 403 936 310 897 q 591 975 497 975 q 762 961 685 975 q 861 936 839 947 q 835 703 861 843 l 754 692 q 725 869 744 853 q 670 890 715 879 q 581 901 625 901 q 388 829 467 901 q 242 403 242 696 q 315 152 242 239 q 497 65 388 65 q 615 88 563 65 z "},"ĝ":{"ha":706,"x_min":-24,"x_max":671,"o":"m 660 814 l 604 779 l 475 943 l 286 779 l 244 814 l 444 1049 l 532 1049 l 660 814 m 624 467 l 549 61 q 415 -203 518 -101 q 161 -304 313 -304 q 36 -267 96 -304 q -24 -168 -24 -231 q 64 -21 -24 -79 q 147 7 103 4 l 146 18 q 119 26 131 18 q 46 196 46 74 q 156 542 46 406 q 426 678 267 678 q 558 649 483 678 q 649 678 599 658 l 671 660 q 624 467 646 588 m 519 560 q 383 600 453 600 q 292 578 314 600 q 208 429 244 536 q 171 239 171 322 q 235 101 171 101 q 410 258 317 101 q 519 560 503 415 m 476 193 l 490 257 l 479 260 q 288 44 410 122 q 224 8 264 26 q 157 -23 183 -10 q 110 -64 131 -36 q 89 -131 89 -92 q 117 -198 89 -169 q 197 -226 144 -226 q 283 -218 250 -226 q 341 -183 315 -210 q 383 -132 367 -157 q 476 193 421 -72 z "},"Ğ":{"ha":901,"x_min":83,"x_max":889,"o":"m 836 1250 l 888 1250 q 805 1110 867 1164 q 650 1056 743 1056 q 515 1100 557 1056 q 472 1217 472 1144 q 474 1250 472 1239 l 525 1250 q 661 1150 529 1150 q 836 1250 793 1150 m 615 88 l 643 281 q 646 318 646 303 q 627 345 646 333 q 550 367 608 357 l 565 421 l 889 421 l 889 367 l 815 350 q 782 314 788 344 l 744 51 q 615 8 699 28 q 446 -12 531 -12 q 175 101 267 -12 q 83 383 83 214 q 153 696 83 553 q 251 837 193 776 q 403 936 310 897 q 591 975 497 975 q 762 961 685 975 q 861 936 839 947 q 835 703 861 843 l 754 692 q 725 869 744 853 q 670 890 715 879 q 581 901 625 901 q 388 829 467 901 q 242 403 242 696 q 315 152 242 239 q 497 65 388 65 q 615 88 563 65 z "},"ğ":{"ha":706,"x_min":-24,"x_max":697,"o":"m 646 1000 l 697 1000 q 613 847 675 907 q 457 788 550 788 q 322 835 364 788 q 281 960 281 882 q 283 1000 281 972 l 335 1000 q 469 882 338 882 q 646 1000 601 882 m 624 467 l 549 61 q 415 -203 518 -101 q 161 -304 313 -304 q 36 -267 96 -304 q -24 -168 -24 -231 q 64 -21 -24 -79 q 147 7 103 4 l 146 18 q 119 26 131 18 q 46 196 46 74 q 156 542 46 406 q 426 678 267 678 q 558 649 483 678 q 649 678 599 658 l 671 660 q 624 467 646 588 m 519 560 q 383 600 453 600 q 292 578 314 600 q 208 429 244 536 q 171 239 171 322 q 235 101 171 101 q 410 258 317 101 q 519 560 503 415 m 476 193 l 490 257 l 479 260 q 288 44 410 122 q 224 8 264 26 q 157 -23 183 -10 q 110 -64 131 -36 q 89 -131 89 -92 q 117 -198 89 -169 q 197 -226 144 -226 q 283 -218 250 -226 q 341 -183 315 -210 q 383 -132 367 -157 q 476 193 421 -72 z "},"Ġ":{"ha":901,"x_min":83,"x_max":889,"o":"m 655 1242 q 673 1242 655 1242 q 713 1223 690 1242 q 735 1169 735 1204 q 713 1110 735 1133 q 654 1088 690 1088 q 579 1165 579 1088 q 599 1219 579 1197 q 655 1242 619 1242 m 615 88 l 643 281 q 646 318 646 303 q 627 345 646 333 q 550 367 608 357 l 565 421 l 889 421 l 889 367 l 815 350 q 782 314 788 344 l 744 51 q 615 8 699 28 q 446 -12 531 -12 q 175 101 267 -12 q 83 383 83 214 q 153 696 83 553 q 251 837 193 776 q 403 936 310 897 q 591 975 497 975 q 762 961 685 975 q 861 936 839 947 q 835 703 861 843 l 754 692 q 725 869 744 853 q 670 890 715 879 q 581 901 625 901 q 388 829 467 901 q 242 403 242 696 q 315 152 242 239 q 497 65 388 65 q 615 88 563 65 z "},"ġ":{"ha":706,"x_min":-24,"x_max":671,"o":"m 483 1007 q 500 1007 483 1007 q 540 988 518 1007 q 563 934 563 969 q 540 876 563 899 q 482 853 518 853 q 407 931 407 853 q 427 985 407 963 q 483 1007 447 1007 m 624 467 l 549 61 q 415 -203 518 -101 q 161 -304 313 -304 q 36 -267 96 -304 q -24 -168 -24 -231 q 64 -21 -24 -79 q 147 7 103 4 l 146 18 q 119 26 131 18 q 46 196 46 74 q 156 542 46 406 q 426 678 267 678 q 558 649 483 678 q 649 678 599 658 l 671 660 q 624 467 646 588 m 519 560 q 383 600 453 600 q 292 578 314 600 q 208 429 244 536 q 171 239 171 322 q 235 101 171 101 q 410 258 317 101 q 519 560 503 415 m 476 193 l 490 257 l 479 260 q 288 44 410 122 q 224 8 264 26 q 157 -23 183 -10 q 110 -64 131 -36 q 89 -131 89 -92 q 117 -198 89 -169 q 197 -226 144 -226 q 283 -218 250 -226 q 341 -183 315 -210 q 383 -132 367 -157 q 476 193 421 -72 z "},"Ģ":{"ha":901,"x_min":83,"x_max":889,"o":"m 615 88 l 643 281 q 646 318 646 303 q 627 345 646 333 q 550 367 608 357 l 565 421 l 889 421 l 889 367 l 815 350 q 782 314 788 344 l 744 51 q 615 8 699 28 q 446 -12 531 -12 q 175 101 267 -12 q 83 383 83 214 q 153 696 83 553 q 251 837 193 776 q 403 936 310 897 q 591 975 497 975 q 762 961 685 975 q 861 936 839 947 q 835 703 861 843 l 754 692 q 725 869 744 853 q 670 890 715 879 q 581 901 625 901 q 388 829 467 901 q 242 403 242 696 q 315 152 242 239 q 497 65 388 65 q 615 88 563 65 m 349 -292 l 319 -257 q 399 -162 399 -207 q 390 -131 399 -150 q 381 -89 381 -111 q 401 -48 381 -67 q 449 -29 421 -29 q 494 -49 476 -29 q 513 -110 513 -69 q 469 -201 513 -150 q 349 -292 426 -251 z "},"ģ":{"ha":706,"x_min":-24,"x_max":671,"o":"m 543 1049 l 572 1014 q 493 919 493 964 q 502 888 493 907 q 511 846 511 868 q 491 805 511 824 q 443 786 471 786 q 397 806 415 786 q 379 867 379 826 q 422 958 379 907 q 543 1049 465 1008 m 624 467 l 549 61 q 415 -203 518 -101 q 161 -304 313 -304 q 36 -267 96 -304 q -24 -168 -24 -231 q 64 -21 -24 -79 q 147 7 103 4 l 146 18 q 119 26 131 18 q 46 196 46 74 q 156 542 46 406 q 426 678 267 678 q 558 649 483 678 q 649 678 599 658 l 671 660 q 624 467 646 588 m 519 560 q 383 600 453 600 q 292 578 314 600 q 208 429 244 536 q 171 239 171 322 q 235 101 171 101 q 410 258 317 101 q 519 560 503 415 m 476 193 l 490 257 l 479 260 q 288 44 410 122 q 224 8 264 26 q 157 -23 183 -10 q 110 -64 131 -36 q 89 -131 89 -92 q 117 -198 89 -169 q 197 -226 144 -226 q 283 -218 250 -226 q 341 -183 315 -210 q 383 -132 367 -157 q 476 193 421 -72 z "},"Ĥ":{"ha":1036,"x_min":31,"x_max":1106,"o":"m 893 1076 l 851 1040 l 682 1167 l 465 1040 l 438 1076 l 654 1269 l 732 1269 l 893 1076 m 944 0 l 599 0 l 599 54 q 692 82 674 67 q 718 140 710 97 l 774 454 l 340 454 l 285 143 q 281 101 281 126 q 313 68 281 75 l 383 54 l 376 0 l 31 0 l 31 54 q 124 82 106 67 q 150 140 142 97 l 269 822 q 274 859 274 842 q 255 888 274 876 q 179 908 236 899 l 188 963 l 538 963 l 533 908 l 444 892 q 414 872 421 886 q 411 856 413 867 l 354 538 l 788 538 l 838 822 q 842 859 842 842 q 823 888 842 876 q 747 908 804 899 l 756 963 l 1106 963 l 1101 908 l 1013 892 q 983 872 989 886 q 979 856 981 867 l 853 140 q 849 108 849 115 q 876 69 849 76 l 951 54 l 944 0 z "},"ĥ":{"ha":726,"x_min":26,"x_max":694,"o":"m 500 1118 l 458 1082 l 289 1208 l 72 1082 l 44 1118 l 261 1311 l 339 1311 l 500 1118 m 518 -12 q 446 85 446 -12 q 528 429 446 129 q 547 539 547 503 q 499 585 547 585 q 392 539 451 585 q 282 417 333 493 q 197 232 231 342 q 163 7 163 122 q 49 -12 100 4 l 26 6 q 72 193 51 83 l 214 932 q 217 961 217 946 q 110 1008 217 989 l 117 1053 q 336 1072 274 1072 l 349 1058 q 333 932 346 1001 l 286 688 q 256 585 281 658 q 219 465 231 513 l 207 408 l 215 406 q 367 605 276 532 q 553 678 458 678 q 669 565 669 678 q 617 322 669 526 q 564 93 564 117 q 586 69 564 69 q 671 103 604 69 l 694 65 q 518 -12 586 -12 z "},"Ħ":{"ha":1036,"x_min":31,"x_max":1106,"o":"m 944 0 l 599 0 l 599 54 q 692 82 674 67 q 718 140 710 97 l 774 454 l 340 454 l 285 143 q 281 101 281 126 q 313 68 281 75 l 383 54 l 376 0 l 31 0 l 31 54 q 124 82 106 67 q 150 140 142 97 l 240 657 l 108 657 l 131 740 l 256 740 l 269 822 q 274 859 274 842 q 255 888 274 876 q 179 908 236 899 l 188 963 l 538 963 l 533 908 l 444 892 q 414 872 421 886 q 411 856 413 867 l 390 740 l 824 740 l 838 822 q 842 859 842 842 q 823 888 842 876 q 747 908 804 899 l 756 963 l 1106 963 l 1101 908 l 1013 892 q 983 872 989 886 q 979 856 981 867 l 958 740 l 1099 740 l 1076 657 l 944 657 l 853 140 q 849 108 849 115 q 876 69 849 76 l 951 54 l 944 0 m 788 538 l 808 657 l 375 657 l 354 538 l 788 538 z "},"ħ":{"ha":726,"x_min":26,"x_max":694,"o":"m 518 -12 q 446 85 446 -12 q 528 429 446 129 q 547 539 547 503 q 499 585 547 585 q 392 539 451 585 q 282 417 333 493 q 197 232 231 342 q 163 7 163 122 q 49 -12 100 4 l 26 6 q 72 193 51 83 l 190 813 l 49 813 l 63 886 l 204 886 l 214 932 q 217 961 217 946 q 110 1008 217 989 l 117 1053 q 336 1072 274 1072 l 349 1058 q 333 932 346 1001 l 324 886 l 565 886 l 551 813 l 310 813 l 286 688 q 256 585 281 658 q 219 465 231 513 l 207 408 l 215 406 q 367 605 276 532 q 553 678 458 678 q 669 565 669 678 q 617 322 669 526 q 564 93 564 117 q 586 69 564 69 q 671 103 604 69 l 694 65 q 518 -12 586 -12 z "},"Ĩ":{"ha":468,"x_min":31,"x_max":663,"o":"m 631 1238 l 663 1221 q 508 1081 572 1081 q 396 1099 485 1081 q 264 1118 307 1118 q 165 1071 221 1118 l 138 1093 q 233 1197 196 1167 q 303 1226 271 1226 q 421 1208 335 1226 q 541 1189 507 1189 q 631 1238 575 1189 m 271 822 l 275 854 q 256 888 275 876 q 181 908 238 899 l 189 963 l 539 963 l 535 908 l 446 892 q 411 856 417 886 l 285 142 q 281 106 281 119 q 318 67 281 74 l 383 54 l 376 0 l 31 0 l 31 54 q 124 82 106 67 q 150 140 142 97 l 271 822 z "},"ĩ":{"ha":351,"x_min":-8,"x_max":517,"o":"m 486 993 l 517 975 q 361 826 426 826 q 251 856 338 826 q 131 885 164 885 q 19 826 78 885 l -8 850 q 89 960 51 928 q 158 992 126 992 q 275 963 190 992 q 393 933 360 933 q 486 993 426 933 m 311 103 l 335 65 q 161 -12 247 -12 q 86 75 86 -12 q 101 193 86 108 l 163 532 q 165 561 165 546 q 58 608 165 589 l 65 653 q 285 672 222 672 l 297 658 q 282 532 294 601 l 214 167 q 206 103 206 108 q 228 69 206 69 q 311 103 244 69 z "},"Ī":{"ha":468,"x_min":31,"x_max":574,"o":"m 558 1117 l 213 1117 l 228 1200 l 574 1200 l 558 1117 m 271 822 l 275 854 q 256 888 275 876 q 181 908 238 899 l 189 963 l 539 963 l 535 908 l 446 892 q 411 856 417 886 l 285 142 q 281 106 281 119 q 318 67 281 74 l 383 54 l 376 0 l 31 0 l 31 54 q 124 82 106 67 q 150 140 142 97 l 271 822 z "},"ī":{"ha":351,"x_min":58,"x_max":442,"o":"m 426 892 l 81 892 l 96 975 l 442 975 l 426 892 m 311 103 l 335 65 q 161 -12 247 -12 q 86 75 86 -12 q 101 193 86 108 l 163 532 q 165 561 165 546 q 58 608 165 589 l 65 653 q 285 672 222 672 l 297 658 q 282 532 294 601 l 214 167 q 206 103 206 108 q 228 69 206 69 q 311 103 244 69 z "},"Į":{"ha":467,"x_min":29,"x_max":538,"o":"m 149 -161 q 221 -221 149 -221 q 299 -207 257 -221 l 311 -235 q 146 -299 228 -299 q 64 -269 97 -299 q 31 -189 31 -239 q 75 -85 31 -139 q 196 0 119 -32 l 29 0 l 29 54 q 122 82 104 67 q 149 140 140 97 l 269 822 l 274 854 q 255 888 274 876 q 179 908 236 899 l 188 963 l 538 963 l 533 908 l 444 892 q 410 856 415 886 l 283 142 q 279 106 279 119 q 317 67 279 74 l 382 54 l 375 0 q 217 -49 285 -3 q 149 -161 149 -96 z "},"į":{"ha":351,"x_min":40,"x_max":335,"o":"m 252 1007 q 270 1007 252 1007 q 310 988 288 1007 q 332 934 332 969 q 310 876 332 899 q 251 853 288 853 q 176 931 176 853 q 197 985 176 963 q 252 1007 217 1007 m 306 -207 l 318 -235 q 153 -299 235 -299 q 73 -267 106 -299 q 40 -183 40 -236 q 140 -11 40 -92 q 86 75 86 0 q 101 193 86 108 l 163 532 q 165 561 165 546 q 58 608 165 589 l 65 653 q 285 672 222 672 l 297 658 q 282 532 294 601 l 214 167 q 206 103 206 108 q 228 69 206 69 q 311 103 244 69 l 335 65 q 303 42 329 61 q 267 15 276 24 q 235 -11 257 7 q 203 -42 213 -29 q 175 -82 193 -56 q 157 -149 157 -108 q 221 -221 157 -221 q 306 -207 265 -221 z "},"İ":{"ha":468,"x_min":31,"x_max":539,"o":"m 399 1242 q 417 1242 399 1242 q 457 1223 435 1242 q 479 1169 479 1204 q 457 1110 479 1133 q 399 1088 435 1088 q 324 1165 324 1088 q 344 1219 324 1197 q 399 1242 364 1242 m 271 822 l 275 854 q 256 888 275 876 q 181 908 238 899 l 189 963 l 539 963 l 535 908 l 446 892 q 411 856 417 886 l 285 142 q 281 106 281 119 q 318 67 281 74 l 383 54 l 376 0 l 31 0 l 31 54 q 124 82 106 67 q 150 140 142 97 l 271 822 z "},"ı":{"ha":351,"x_min":58,"x_max":335,"o":"m 311 103 l 335 65 q 161 -12 247 -12 q 86 75 86 -12 q 101 193 86 108 l 163 532 q 165 561 165 546 q 58 608 165 589 l 65 653 q 285 672 222 672 l 297 658 q 282 532 294 601 l 214 167 q 206 103 206 108 q 228 69 206 69 q 311 103 244 69 z "},"Ĳ":{"ha":936,"x_min":31,"x_max":1024,"o":"m 649 292 l 742 822 q 744 846 744 839 q 722 885 744 872 q 638 908 700 897 l 646 963 l 1024 963 l 1019 908 l 917 892 q 885 864 888 886 l 789 325 q 658 -45 747 89 q 435 -179 568 -179 q 371 -147 371 -179 q 390 -71 371 -111 q 428 -31 410 -31 q 476 -40 442 -31 q 531 -49 511 -49 q 598 47 572 -49 q 649 292 624 143 m 271 822 l 275 854 q 256 888 275 876 q 181 908 238 899 l 189 963 l 539 963 l 535 908 l 446 892 q 411 856 417 886 l 285 142 q 281 106 281 119 q 318 67 281 74 l 383 54 l 376 0 l 31 0 l 31 54 q 124 82 106 67 q 150 140 142 97 l 271 822 z "},"ĳ":{"ha":703,"x_min":58,"x_max":697,"o":"m 617 1007 q 635 1007 617 1007 q 675 988 653 1007 q 697 934 697 969 q 675 876 697 899 q 617 853 653 853 q 542 931 542 853 q 562 985 542 963 q 617 1007 582 1007 m 266 1007 q 284 1007 266 1007 q 324 988 301 1007 q 346 934 346 969 q 324 876 346 899 q 265 853 301 853 q 190 931 190 853 q 210 985 190 963 q 266 1007 231 1007 m 447 168 l 514 532 q 517 561 517 546 q 410 608 517 589 l 417 653 q 636 672 574 672 l 649 658 q 633 532 646 601 l 574 200 q 444 -170 531 -36 q 229 -304 357 -304 q 165 -272 165 -304 q 185 -196 165 -236 q 222 -156 204 -156 q 271 -165 236 -156 q 324 -174 306 -174 q 414 -4 375 -174 q 447 168 425 44 m 311 103 l 335 65 q 161 -12 247 -12 q 86 75 86 -12 q 101 193 86 108 l 163 532 q 165 561 165 546 q 58 608 165 589 l 65 653 q 285 672 222 672 l 297 658 q 282 532 294 601 l 214 167 q 206 103 206 108 q 228 69 206 69 q 311 103 244 69 z "},"Ĵ":{"ha":464,"x_min":-101,"x_max":619,"o":"m 619 1076 l 578 1040 l 408 1167 l 192 1040 l 164 1076 l 381 1269 l 458 1269 l 619 1076 m 176 292 l 269 822 q 272 846 272 839 q 250 885 272 872 q 165 908 228 897 l 174 963 l 551 963 l 547 908 l 444 892 q 413 864 415 886 l 317 325 q 185 -45 275 89 q -37 -179 96 -179 q -101 -147 -101 -179 q -82 -71 -101 -111 q -44 -31 -62 -31 q 4 -40 -31 -31 q 58 -49 39 -49 q 126 47 100 -49 q 176 292 151 143 z "},"ĵ":{"ha":353,"x_min":-185,"x_max":454,"o":"m 454 814 l 399 779 l 269 943 l 81 779 l 39 814 l 239 1049 l 326 1049 l 454 814 m 97 168 l 164 532 q 167 561 167 546 q 60 608 167 589 l 67 653 q 286 672 224 672 l 299 658 q 283 532 296 601 l 224 200 q 94 -170 181 -36 q -121 -304 7 -304 q -185 -272 -185 -304 q -165 -196 -185 -236 q -128 -156 -146 -156 q -79 -165 -114 -156 q -25 -174 -44 -174 q 46 -72 17 -174 q 82 85 67 4 q 97 168 97 165 z "},"Ķ":{"ha":928,"x_min":28,"x_max":1024,"o":"m 894 0 l 686 0 l 401 419 l 322 351 l 285 142 q 281 106 281 119 q 318 67 281 74 l 374 54 l 367 0 l 28 0 l 28 54 q 122 82 103 67 q 150 140 142 97 l 269 822 q 274 859 274 842 q 255 888 274 876 q 179 908 236 899 l 188 963 l 538 963 l 533 908 l 444 892 q 414 872 421 886 q 411 856 413 867 l 346 489 l 772 844 q 800 881 800 868 q 711 907 800 903 l 719 963 l 1024 963 l 1019 904 q 940 877 969 900 q 900 844 910 854 l 508 510 l 783 111 q 826 71 801 83 q 901 54 850 58 l 894 0 m 361 -292 l 332 -257 q 411 -162 411 -207 q 402 -131 411 -150 q 393 -89 393 -111 q 413 -48 393 -67 q 461 -29 433 -29 q 507 -49 489 -29 q 525 -110 525 -69 q 482 -201 525 -150 q 361 -292 439 -251 z "},"ķ":{"ha":683,"x_min":26,"x_max":668,"o":"m 636 103 l 660 65 q 500 -12 565 -12 q 446 7 469 -12 q 385 90 422 26 l 236 343 q 163 7 163 185 q 49 -12 100 4 l 26 6 q 72 193 51 83 l 214 932 q 217 961 217 946 q 110 1008 217 989 l 117 1053 q 336 1072 274 1072 l 349 1058 q 333 932 346 1001 l 286 688 q 253 578 281 658 q 214 443 226 499 l 207 408 l 215 406 q 380 601 271 525 q 586 678 489 678 q 640 667 611 678 q 668 638 668 657 q 647 565 668 603 q 608 528 625 528 q 551 551 590 528 q 503 574 511 574 q 306 456 404 574 l 513 103 q 549 69 532 69 q 636 103 567 69 m 164 -292 l 135 -257 q 214 -162 214 -207 q 205 -131 214 -150 q 196 -89 196 -111 q 216 -48 196 -67 q 264 -29 236 -29 q 310 -49 292 -29 q 328 -110 328 -69 q 285 -201 328 -150 q 164 -292 242 -251 z "},"ĸ":{"ha":713,"x_min":56,"x_max":697,"o":"m 665 103 l 689 65 q 529 -12 594 -12 q 475 7 499 -12 q 414 90 451 26 l 265 343 q 192 7 192 185 q 78 -12 129 4 l 56 6 q 101 193 81 83 l 164 524 q 167 553 167 538 q 60 600 167 581 l 67 644 q 286 664 224 664 l 299 650 l 236 408 l 244 406 q 409 601 300 525 q 615 678 518 678 q 669 667 640 678 q 697 638 697 657 q 676 565 697 603 q 637 528 654 528 q 580 551 619 528 q 532 574 540 574 q 335 456 433 574 l 542 103 q 578 69 561 69 q 665 103 596 69 z "},"Ĺ":{"ha":775,"x_min":28,"x_max":769,"o":"m 611 1169 l 308 1040 l 275 1090 l 550 1269 l 628 1199 l 611 1169 m 769 289 q 704 0 754 163 l 28 0 l 28 54 q 122 82 103 67 q 150 140 142 97 l 269 822 q 274 859 274 842 q 255 888 274 876 q 179 908 236 899 l 188 963 l 538 963 l 533 908 l 444 892 q 414 872 421 886 q 411 856 413 867 l 272 71 l 396 72 q 578 83 551 75 q 694 296 604 90 l 769 289 z "},"ĺ":{"ha":325,"x_min":57,"x_max":521,"o":"m 504 1239 l 201 1110 l 168 1160 l 443 1339 l 521 1268 l 504 1239 m 282 103 l 306 65 q 132 -12 218 -12 q 57 75 57 -12 q 72 193 57 108 l 214 932 q 217 961 217 946 q 110 1008 217 989 l 117 1053 q 336 1072 274 1072 l 349 1058 q 333 932 346 1001 l 185 167 q 176 99 176 129 q 199 69 176 69 q 282 103 215 69 z "},"Ļ":{"ha":775,"x_min":28,"x_max":769,"o":"m 769 289 q 704 0 754 163 l 28 0 l 28 54 q 122 82 103 67 q 150 140 142 97 l 269 822 q 274 859 274 842 q 255 888 274 876 q 179 908 236 899 l 188 963 l 538 963 l 533 908 l 444 892 q 414 872 421 886 q 411 856 413 867 l 272 71 l 396 72 q 578 83 551 75 q 694 296 604 90 l 769 289 m 285 -292 l 256 -257 q 335 -162 335 -207 q 326 -131 335 -150 q 317 -89 317 -111 q 337 -48 317 -67 q 385 -29 357 -29 q 431 -49 413 -29 q 449 -110 449 -69 q 406 -201 449 -150 q 285 -292 363 -251 z "},"ļ":{"ha":325,"x_min":-6,"x_max":349,"o":"m 282 103 l 306 65 q 132 -12 218 -12 q 57 75 57 -12 q 72 193 57 108 l 214 932 q 217 961 217 946 q 110 1008 217 989 l 117 1053 q 336 1072 274 1072 l 349 1058 q 333 932 346 1001 l 185 167 q 176 99 176 129 q 199 69 176 69 q 282 103 215 69 m 24 -292 l -6 -257 q 74 -162 74 -207 q 65 -131 74 -150 q 56 -89 56 -111 q 76 -48 56 -67 q 124 -29 96 -29 q 169 -49 151 -29 q 188 -110 188 -69 q 144 -201 188 -150 q 24 -292 101 -251 z "},"Ľ":{"ha":775,"x_min":28,"x_max":808,"o":"m 672 801 l 618 821 q 672 1044 668 942 l 796 1075 l 808 1049 q 672 801 769 914 m 769 289 q 704 0 754 163 l 28 0 l 28 54 q 122 82 103 67 q 150 140 142 97 l 269 822 q 274 859 274 842 q 255 888 274 876 q 179 908 236 899 l 188 963 l 538 963 l 533 908 l 444 892 q 414 872 421 886 q 411 856 413 867 l 272 71 l 396 72 q 578 83 551 75 q 694 296 604 90 l 769 289 z "},"ľ":{"ha":325,"x_min":57,"x_max":576,"o":"m 440 801 l 386 821 q 440 1044 436 942 l 564 1075 l 576 1049 q 440 801 538 914 m 282 103 l 306 65 q 132 -12 218 -12 q 57 75 57 -12 q 72 193 57 108 l 214 932 q 217 961 217 946 q 110 1008 217 989 l 117 1053 q 336 1072 274 1072 l 349 1058 q 333 932 346 1001 l 185 167 q 176 99 176 129 q 199 69 176 69 q 282 103 215 69 z "},"Ŀ":{"ha":775,"x_min":28,"x_max":769,"o":"m 769 289 q 704 0 754 163 l 28 0 l 28 54 q 122 82 103 67 q 150 140 142 97 l 269 822 q 274 859 274 842 q 255 888 274 876 q 179 908 236 899 l 188 963 l 538 963 l 533 908 l 444 892 q 414 872 421 886 q 411 856 413 867 l 272 71 l 396 72 q 578 83 551 75 q 694 296 604 90 l 769 289 m 683 558 q 656 492 683 521 q 594 464 629 464 q 540 482 560 464 q 519 535 519 500 q 547 597 519 569 q 611 624 574 624 q 683 558 683 624 z "},"ŀ":{"ha":449,"x_min":57,"x_max":489,"o":"m 282 103 l 306 65 q 132 -12 218 -12 q 57 75 57 -12 q 72 193 57 108 l 214 932 q 217 961 217 946 q 110 1008 217 989 l 117 1053 q 336 1072 274 1072 l 349 1058 q 333 932 346 1001 l 185 167 q 176 99 176 129 q 199 69 176 69 q 282 103 215 69 m 489 558 q 462 492 489 521 q 400 464 435 464 q 345 482 365 464 q 325 535 325 500 q 352 597 325 569 q 417 624 379 624 q 489 558 489 624 z "},"Ł":{"ha":775,"x_min":28,"x_max":769,"o":"m 769 289 q 704 0 754 163 l 28 0 l 28 54 q 122 82 103 67 q 150 140 142 97 l 189 364 l 78 299 l 50 358 l 203 449 l 269 822 q 274 859 274 842 q 255 888 274 876 q 179 908 236 899 l 188 963 l 538 963 l 533 908 l 444 892 q 414 872 421 886 q 411 856 413 867 l 354 536 l 593 676 l 621 617 l 339 451 l 272 71 l 396 72 q 578 83 551 75 q 694 296 604 90 l 769 289 z "},"ł":{"ha":381,"x_min":6,"x_max":438,"o":"m 283 103 l 307 65 q 133 -12 219 -12 q 58 75 58 -12 q 74 193 58 108 l 122 449 l 33 397 l 6 457 l 139 535 l 215 932 q 218 961 218 946 q 111 1008 218 989 l 118 1053 q 338 1072 275 1072 l 350 1058 q 335 932 347 1001 l 272 613 l 410 693 l 438 633 l 256 526 l 186 167 q 178 99 178 129 q 200 69 178 69 q 283 103 217 69 z "},"Ń":{"ha":1024,"x_min":28,"x_max":1096,"o":"m 872 1169 l 569 1040 l 536 1090 l 811 1269 l 889 1199 l 872 1169 m 818 0 l 732 0 l 374 822 l 363 822 l 242 132 q 239 107 239 118 q 271 69 239 72 l 386 54 l 379 0 l 28 0 l 28 54 q 122 82 103 67 q 150 140 142 97 l 269 822 q 274 859 274 842 q 255 888 274 876 q 179 908 236 899 l 188 963 l 463 963 l 761 263 l 771 263 l 865 794 q 869 845 869 819 q 845 885 869 871 q 751 908 821 900 l 760 963 l 1096 963 l 1092 908 l 1003 892 q 972 872 979 886 q 969 856 971 867 l 818 0 z "},"ń":{"ha":756,"x_min":56,"x_max":724,"o":"m 649 989 l 399 779 l 351 814 l 546 1063 l 654 1021 l 649 989 m 547 -12 q 475 85 475 -12 q 557 429 475 129 q 576 539 576 503 q 528 585 576 585 q 422 539 481 585 q 311 417 363 493 q 226 232 260 342 q 192 7 192 122 q 78 -12 129 4 l 56 6 q 101 193 81 83 l 161 524 q 164 553 164 538 q 57 600 164 581 l 64 644 q 283 664 221 664 l 296 650 q 236 408 265 549 l 244 406 q 397 605 306 532 q 582 678 488 678 q 699 565 699 678 q 646 322 699 526 q 593 93 593 117 q 615 69 593 69 q 700 103 633 69 l 724 65 q 547 -12 615 -12 z "},"Ņ":{"ha":1024,"x_min":28,"x_max":1096,"o":"m 818 0 l 732 0 l 374 822 l 363 822 l 242 132 q 239 107 239 118 q 271 69 239 72 l 386 54 l 379 0 l 28 0 l 28 54 q 122 82 103 67 q 150 140 142 97 l 269 822 q 274 859 274 842 q 255 888 274 876 q 179 908 236 899 l 188 963 l 463 963 l 761 263 l 771 263 l 865 794 q 869 845 869 819 q 845 885 869 871 q 751 908 821 900 l 760 963 l 1096 963 l 1092 908 l 1003 892 q 972 872 979 886 q 969 856 971 867 l 818 0 m 410 -292 l 381 -257 q 460 -162 460 -207 q 451 -131 460 -150 q 442 -89 442 -111 q 462 -48 442 -67 q 510 -29 482 -29 q 556 -49 538 -29 q 574 -110 574 -69 q 531 -201 574 -150 q 410 -292 488 -251 z "},"ņ":{"ha":756,"x_min":56,"x_max":724,"o":"m 547 -12 q 475 85 475 -12 q 557 429 475 129 q 576 539 576 503 q 528 585 576 585 q 422 539 481 585 q 311 417 363 493 q 226 232 260 342 q 192 7 192 122 q 78 -12 129 4 l 56 6 q 101 193 81 83 l 161 524 q 164 553 164 538 q 57 600 164 581 l 64 644 q 283 664 221 664 l 296 650 q 236 408 265 549 l 244 406 q 397 605 306 532 q 582 678 488 678 q 699 565 699 678 q 646 322 699 526 q 593 93 593 117 q 615 69 593 69 q 700 103 633 69 l 724 65 q 547 -12 615 -12 m 222 -292 l 193 -257 q 272 -162 272 -207 q 263 -131 272 -150 q 254 -89 254 -111 q 274 -48 254 -67 q 322 -29 294 -29 q 368 -49 350 -29 q 386 -110 386 -69 q 343 -201 386 -150 q 222 -292 300 -251 z "},"Ň":{"ha":1024,"x_min":28,"x_max":1096,"o":"m 879 1238 l 661 1044 l 583 1044 l 424 1238 l 465 1274 l 635 1147 l 851 1274 l 879 1238 m 818 0 l 732 0 l 374 822 l 363 822 l 242 132 q 239 107 239 118 q 271 69 239 72 l 386 54 l 379 0 l 28 0 l 28 54 q 122 82 103 67 q 150 140 142 97 l 269 822 q 274 859 274 842 q 255 888 274 876 q 179 908 236 899 l 188 963 l 463 963 l 761 263 l 771 263 l 865 794 q 869 845 869 819 q 845 885 869 871 q 751 908 821 900 l 760 963 l 1096 963 l 1092 908 l 1003 892 q 972 872 979 886 q 969 856 971 867 l 818 0 z "},"ň":{"ha":756,"x_min":56,"x_max":724,"o":"m 504 786 l 417 786 l 282 1021 l 338 1056 l 467 892 l 656 1056 l 697 1021 l 504 786 m 547 -12 q 475 85 475 -12 q 557 429 475 129 q 576 539 576 503 q 528 585 576 585 q 422 539 481 585 q 311 417 363 493 q 226 232 260 342 q 192 7 192 122 q 78 -12 129 4 l 56 6 q 101 193 81 83 l 161 524 q 164 553 164 538 q 57 600 164 581 l 64 644 q 283 664 221 664 l 296 650 q 236 408 265 549 l 244 406 q 397 605 306 532 q 582 678 488 678 q 699 565 699 678 q 646 322 699 526 q 593 93 593 117 q 615 69 593 69 q 700 103 633 69 l 724 65 q 547 -12 615 -12 z "},"ŉ":{"ha":756,"x_min":56,"x_max":724,"o":"m 228 774 l 200 806 q 269 931 269 874 q 258 965 269 944 q 246 1006 246 985 q 266 1046 246 1028 q 312 1064 286 1064 q 354 1044 338 1064 q 371 983 371 1025 q 338 883 371 940 q 228 774 304 825 m 547 -12 q 475 85 475 -12 q 557 429 475 129 q 576 539 576 503 q 528 585 576 585 q 422 539 481 585 q 311 417 363 493 q 226 232 260 342 q 192 7 192 122 q 78 -12 129 4 l 56 6 q 101 193 81 83 l 161 524 q 164 553 164 538 q 57 600 164 581 l 64 644 q 283 664 221 664 l 296 650 q 236 408 265 549 l 244 406 q 397 605 306 532 q 582 678 488 678 q 699 565 699 678 q 646 322 699 526 q 593 93 593 117 q 615 69 593 69 q 700 103 633 69 l 724 65 q 547 -12 615 -12 z "},"Ŋ":{"ha":1024,"x_min":29,"x_max":1096,"o":"m 719 29 l 374 822 l 363 822 l 242 132 q 239 107 239 118 q 271 69 239 72 l 386 54 l 379 0 l 29 0 l 29 54 q 123 82 104 67 q 150 140 142 97 l 269 822 q 274 859 274 842 q 255 888 274 876 q 179 908 236 899 l 188 963 l 463 963 l 761 263 l 771 263 l 867 806 q 871 847 871 826 q 851 881 871 867 q 812 900 832 896 q 751 908 792 904 l 760 963 l 1096 963 l 1092 908 l 1003 892 q 972 872 979 886 q 969 856 971 867 l 854 207 q 563 -179 785 -179 q 499 -147 499 -179 q 518 -71 499 -111 q 556 -31 538 -31 q 604 -40 569 -31 q 657 -49 639 -49 q 719 29 693 -49 z "},"ŋ":{"ha":750,"x_min":56,"x_max":699,"o":"m 492 168 l 560 426 q 570 465 561 432 q 579 528 579 497 q 532 585 579 585 q 422 539 481 585 q 311 417 363 493 q 226 232 260 342 q 192 7 192 122 q 78 -12 129 4 l 56 6 q 101 193 81 83 l 161 524 q 164 553 164 538 q 57 600 164 581 l 64 644 q 283 664 221 664 l 296 650 q 236 408 265 549 l 244 406 q 397 605 306 532 q 582 678 488 678 q 699 549 699 678 q 678 415 699 490 l 618 200 q 483 -161 554 -36 q 274 -304 401 -304 q 210 -272 210 -304 q 229 -196 210 -236 q 267 -156 249 -156 q 315 -165 281 -156 q 367 -174 350 -174 q 396 -158 383 -174 q 421 -103 408 -142 q 442 -33 433 -65 q 466 65 450 0 q 492 168 482 131 z "},"Ō":{"ha":931,"x_min":83,"x_max":933,"o":"m 757 1117 l 411 1117 l 426 1200 l 772 1200 l 757 1117 m 428 -12 q 173 97 263 -12 q 83 381 83 206 q 217 810 83 644 q 588 975 351 975 q 843 867 753 975 q 933 590 933 760 q 799 156 933 325 q 428 -12 664 -12 m 460 61 q 611 110 546 61 q 711 239 676 160 q 776 556 776 394 q 719 810 776 718 q 554 901 663 901 q 431 869 485 901 q 285 676 331 811 q 239 394 239 540 q 296 155 239 249 q 460 61 353 61 z "},"ō":{"ha":660,"x_min":46,"x_max":643,"o":"m 628 892 l 282 892 l 297 975 l 643 975 l 628 892 m 540 139 q 424 30 496 72 q 256 -12 353 -12 q 102 49 158 -12 q 46 222 46 111 q 136 525 46 382 q 251 635 179 593 q 421 678 324 678 q 575 615 518 678 q 632 440 632 553 q 540 139 632 276 m 176 247 q 300 61 176 61 q 408 97 363 61 q 469 224 436 119 q 501 426 501 328 q 376 604 501 604 q 269 568 315 604 q 209 442 242 546 q 176 247 176 338 z "},"Ő":{"ha":931,"x_min":83,"x_max":985,"o":"m 979 1197 l 704 1043 l 663 1078 l 861 1271 l 985 1229 l 979 1197 m 704 1197 l 429 1043 l 388 1078 l 586 1271 l 710 1229 l 704 1197 m 428 -12 q 173 97 263 -12 q 83 381 83 206 q 217 810 83 644 q 588 975 351 975 q 843 867 753 975 q 933 590 933 760 q 799 156 933 325 q 428 -12 664 -12 m 460 61 q 611 110 546 61 q 711 239 676 160 q 776 556 776 394 q 719 810 776 718 q 554 901 663 901 q 431 869 485 901 q 285 676 331 811 q 239 394 239 540 q 296 155 239 249 q 460 61 353 61 z "},"ő":{"ha":660,"x_min":46,"x_max":832,"o":"m 826 989 l 556 779 l 514 814 l 708 1063 l 832 1021 l 826 989 m 551 989 l 281 779 l 239 814 l 433 1063 l 557 1021 l 551 989 m 540 139 q 424 30 496 72 q 256 -12 353 -12 q 102 49 158 -12 q 46 222 46 111 q 136 525 46 382 q 251 635 179 593 q 421 678 324 678 q 575 615 518 678 q 632 440 632 553 q 540 139 632 276 m 176 247 q 300 61 176 61 q 408 97 363 61 q 469 224 436 119 q 501 426 501 328 q 376 604 501 604 q 269 568 315 604 q 209 442 242 546 q 176 247 176 338 z "},"Œ":{"ha":1342,"x_min":83,"x_max":1364,"o":"m 1282 249 q 1224 0 1269 138 q 667 -6 899 0 q 428 -12 436 -12 q 173 97 263 -12 q 83 381 83 206 q 217 810 83 644 q 588 975 351 975 q 865 969 593 975 q 1364 963 1138 963 q 1332 746 1364 892 l 1250 736 q 1244 856 1249 832 q 1229 882 1240 881 q 1146 888 1196 886 l 936 892 l 871 518 l 1079 518 q 1106 547 1090 518 q 1140 617 1121 575 l 1183 613 q 1154 338 1160 482 l 1103 329 q 1090 425 1094 406 q 1075 444 1085 444 l 857 444 l 792 71 l 915 72 q 1079 81 1056 76 q 1117 92 1103 86 q 1206 256 1142 99 l 1282 249 m 692 267 l 764 681 q 779 799 779 772 q 735 883 779 864 q 554 901 692 901 q 431 869 485 901 q 285 676 331 811 q 239 394 239 540 q 296 155 239 249 q 469 61 353 61 q 626 95 585 61 q 692 267 668 129 z "},"œ":{"ha":1015,"x_min":46,"x_max":1001,"o":"m 929 163 l 963 126 q 839 28 910 69 q 706 -12 768 -12 q 592 17 643 -12 q 515 106 542 46 q 265 -12 414 -12 q 102 49 158 -12 q 46 222 46 111 q 136 525 46 382 q 251 635 179 593 q 411 678 324 678 q 610 560 560 678 q 861 678 717 678 q 963 648 924 678 q 1001 558 1001 618 q 875 379 1001 446 q 621 299 764 321 q 618 251 618 282 q 649 126 618 163 q 751 89 679 89 q 929 163 824 89 m 176 247 q 300 61 176 61 q 408 97 363 61 q 469 224 436 119 q 501 426 501 328 q 376 604 501 604 q 269 568 315 604 q 209 442 242 546 q 176 247 176 338 m 628 358 q 813 431 746 386 q 879 533 879 476 q 863 581 879 561 q 804 600 847 600 q 726 571 761 600 q 669 483 699 544 q 628 358 640 421 z "},"Ŕ":{"ha":850,"x_min":29,"x_max":817,"o":"m 785 1169 l 482 1040 l 449 1090 l 724 1269 l 801 1199 l 785 1169 m 801 0 l 601 0 l 411 422 l 335 422 l 285 138 q 281 106 281 117 q 307 69 281 76 l 374 54 l 367 0 l 29 0 l 29 54 q 123 82 104 67 q 150 140 142 97 l 269 822 q 274 859 274 842 q 255 887 274 876 q 179 908 236 897 l 188 963 l 557 963 q 750 906 683 963 q 817 741 817 850 q 740 549 817 632 q 546 443 663 465 l 544 436 q 569 406 558 432 l 704 111 q 738 69 718 81 q 808 54 758 58 l 801 0 m 347 493 l 410 493 q 597 553 529 493 q 665 716 665 614 q 620 853 665 818 q 501 889 575 889 l 444 889 q 411 856 417 889 l 347 493 z "},"ŕ":{"ha":565,"x_min":56,"x_max":592,"o":"m 586 989 l 336 779 l 289 814 l 483 1063 l 592 1021 l 586 989 m 507 524 l 414 542 q 375 511 400 542 q 256 299 319 446 q 192 7 192 153 q 78 -12 129 4 l 56 6 q 101 193 81 83 l 161 524 q 164 553 164 538 q 57 600 164 581 l 64 644 q 283 664 221 664 l 296 650 l 236 408 l 246 406 q 328 551 282 488 q 506 678 419 678 q 569 646 569 678 q 548 565 569 607 q 507 524 526 524 z "},"Ŗ":{"ha":850,"x_min":29,"x_max":817,"o":"m 801 0 l 601 0 l 411 422 l 335 422 l 285 138 q 281 106 281 117 q 307 69 281 76 l 374 54 l 367 0 l 29 0 l 29 54 q 123 82 104 67 q 150 140 142 97 l 269 822 q 274 859 274 842 q 255 887 274 876 q 179 908 236 897 l 188 963 l 557 963 q 750 906 683 963 q 817 741 817 850 q 740 549 817 632 q 546 443 663 465 l 544 436 q 569 406 558 432 l 704 111 q 738 69 718 81 q 808 54 758 58 l 801 0 m 347 493 l 410 493 q 597 553 529 493 q 665 716 665 614 q 620 853 665 818 q 501 889 575 889 l 444 889 q 411 856 417 889 l 347 493 m 364 -292 l 335 -257 q 414 -162 414 -207 q 405 -131 414 -150 q 396 -89 396 -111 q 416 -48 396 -67 q 464 -29 436 -29 q 510 -49 492 -29 q 528 -110 528 -69 q 485 -201 528 -150 q 364 -292 442 -251 z "},"ŗ":{"ha":565,"x_min":8,"x_max":569,"o":"m 507 524 l 414 542 q 375 511 400 542 q 256 299 319 446 q 192 7 192 153 q 78 -12 129 4 l 56 6 q 101 193 81 83 l 161 524 q 164 553 164 538 q 57 600 164 581 l 64 644 q 283 664 221 664 l 296 650 l 236 408 l 246 406 q 328 551 282 488 q 506 678 419 678 q 569 646 569 678 q 548 565 569 607 q 507 524 526 524 m 38 -292 l 8 -257 q 88 -162 88 -207 q 78 -131 88 -150 q 69 -89 69 -111 q 90 -48 69 -67 q 138 -29 110 -29 q 183 -49 165 -29 q 201 -110 201 -69 q 158 -201 201 -150 q 38 -292 115 -251 z "},"Ř":{"ha":850,"x_min":29,"x_max":817,"o":"m 800 1238 l 582 1044 l 504 1044 l 344 1238 l 386 1274 l 556 1147 l 772 1274 l 800 1238 m 801 0 l 601 0 l 411 422 l 335 422 l 285 138 q 281 106 281 117 q 307 69 281 76 l 374 54 l 367 0 l 29 0 l 29 54 q 123 82 104 67 q 150 140 142 97 l 269 822 q 274 859 274 842 q 255 887 274 876 q 179 908 236 897 l 188 963 l 557 963 q 750 906 683 963 q 817 741 817 850 q 740 549 817 632 q 546 443 663 465 l 544 436 q 569 406 558 432 l 704 111 q 738 69 718 81 q 808 54 758 58 l 801 0 m 347 493 l 410 493 q 597 553 529 493 q 665 716 665 614 q 620 853 665 818 q 501 889 575 889 l 444 889 q 411 856 417 889 l 347 493 z "},"ř":{"ha":565,"x_min":56,"x_max":569,"o":"m 331 786 l 243 786 l 108 1021 l 164 1056 l 293 892 l 482 1056 l 524 1021 l 331 786 m 507 524 l 414 542 q 375 511 400 542 q 256 299 319 446 q 192 7 192 153 q 78 -12 129 4 l 56 6 q 101 193 81 83 l 161 524 q 164 553 164 538 q 57 600 164 581 l 64 644 q 283 664 221 664 l 296 650 l 236 408 l 246 406 q 328 551 282 488 q 506 678 419 678 q 569 646 569 678 q 548 565 569 607 q 507 524 526 524 z "},"Ś":{"ha":692,"x_min":21,"x_max":739,"o":"m 722 1169 l 419 1040 l 386 1090 l 661 1269 l 739 1199 l 722 1169 m 647 703 l 565 693 q 572 817 572 779 q 558 868 572 854 q 457 897 529 897 q 339 864 385 897 q 272 740 272 815 q 332 619 272 664 q 459 544 378 583 q 587 449 540 506 q 633 300 633 392 q 537 77 633 167 q 276 -12 440 -12 q 125 8 196 -12 q 21 47 54 28 q 74 278 21 143 l 154 282 q 149 153 149 182 q 165 111 149 125 q 226 81 182 97 q 324 65 269 65 q 425 99 379 65 q 494 240 494 149 q 403 389 494 332 q 350 421 375 407 q 192 531 238 479 q 146 671 146 583 q 247 890 146 804 q 508 975 347 975 q 700 938 615 975 q 647 703 694 836 z "},"ś":{"ha":525,"x_min":18,"x_max":607,"o":"m 601 989 l 351 779 l 304 814 l 499 1063 l 607 1021 l 601 989 m 389 479 l 392 535 q 380 594 392 581 q 306 608 368 608 q 210 586 243 608 q 190 553 199 578 q 182 513 182 529 q 185 484 182 496 q 199 461 189 472 q 215 443 208 450 q 239 425 221 436 q 265 410 257 414 q 295 394 272 406 q 339 371 318 382 q 425 310 381 349 q 469 211 469 272 q 393 51 469 115 q 203 -12 317 -12 q 18 29 90 -12 q 53 219 21 117 l 122 219 q 117 136 117 171 q 221 61 117 61 q 331 82 304 61 q 351 118 342 92 q 360 162 360 144 q 356 191 360 179 q 343 213 353 203 q 328 231 333 224 q 304 248 322 238 q 280 263 286 258 q 250 278 274 267 q 122 365 160 322 q 85 486 85 407 q 154 622 85 565 q 339 678 224 678 q 490 650 417 678 q 458 479 483 568 l 389 479 z "},"Ŝ":{"ha":692,"x_min":21,"x_max":736,"o":"m 736 1076 l 694 1040 l 525 1167 l 308 1040 l 281 1076 l 497 1269 l 575 1269 l 736 1076 m 647 703 l 565 693 q 572 817 572 779 q 558 868 572 854 q 457 897 529 897 q 339 864 385 897 q 272 740 272 815 q 332 619 272 664 q 459 544 378 583 q 587 449 540 506 q 633 300 633 392 q 537 77 633 167 q 276 -12 440 -12 q 125 8 196 -12 q 21 47 54 28 q 74 278 21 143 l 154 282 q 149 153 149 182 q 165 111 149 125 q 226 81 182 97 q 324 65 269 65 q 425 99 379 65 q 494 240 494 149 q 403 389 494 332 q 350 421 375 407 q 192 531 238 479 q 146 671 146 583 q 247 890 146 804 q 508 975 347 975 q 700 938 615 975 q 647 703 694 836 z "},"ŝ":{"ha":525,"x_min":18,"x_max":564,"o":"m 564 814 l 508 779 l 379 943 l 190 779 l 149 814 l 349 1049 l 436 1049 l 564 814 m 389 479 l 392 535 q 380 594 392 581 q 306 608 368 608 q 210 586 243 608 q 190 553 199 578 q 182 513 182 529 q 185 484 182 496 q 199 461 189 472 q 215 443 208 450 q 239 425 221 436 q 265 410 257 414 q 295 394 272 406 q 339 371 318 382 q 425 310 381 349 q 469 211 469 272 q 393 51 469 115 q 203 -12 317 -12 q 18 29 90 -12 q 53 219 21 117 l 122 219 q 117 136 117 171 q 221 61 117 61 q 331 82 304 61 q 351 118 342 92 q 360 162 360 144 q 356 191 360 179 q 343 213 353 203 q 328 231 333 224 q 304 248 322 238 q 280 263 286 258 q 250 278 274 267 q 122 365 160 322 q 85 486 85 407 q 154 622 85 565 q 339 678 224 678 q 490 650 417 678 q 458 479 483 568 l 389 479 z "},"Ş":{"ha":693,"x_min":21,"x_max":700,"o":"m 171 -301 l 174 -258 q 281 -226 240 -250 q 321 -169 321 -203 q 265 -125 321 -125 q 206 -139 236 -125 l 197 -124 l 250 -12 q 113 10 176 -8 q 21 47 50 29 q 74 278 21 143 l 154 282 q 149 153 149 182 q 165 111 149 125 q 226 81 182 97 q 324 65 269 65 q 425 99 379 65 q 494 240 494 149 q 403 389 494 332 q 350 421 375 407 q 192 531 238 479 q 146 671 146 583 q 247 890 146 804 q 508 975 347 975 q 700 938 615 975 q 647 703 694 836 l 565 693 q 572 817 572 779 q 558 868 572 854 q 457 897 529 897 q 339 864 385 897 q 272 740 272 815 q 332 619 272 664 q 459 544 378 583 q 587 449 540 506 q 633 300 633 392 q 550 91 633 178 q 325 -10 467 4 l 299 -65 q 349 -62 313 -62 q 413 -83 386 -62 q 440 -137 440 -103 q 367 -248 440 -200 q 171 -301 293 -296 z "},"ş":{"ha":525,"x_min":18,"x_max":490,"o":"m 389 479 l 392 535 q 380 594 392 581 q 306 608 368 608 q 210 586 243 608 q 190 553 199 578 q 182 513 182 529 q 185 484 182 496 q 199 461 189 472 q 215 443 208 450 q 239 425 221 436 q 265 410 257 414 q 295 394 272 406 q 339 371 318 382 q 425 310 381 349 q 469 211 469 272 q 410 66 469 126 q 246 -8 350 6 l 219 -65 q 271 -62 233 -62 q 335 -83 308 -62 q 361 -137 361 -103 q 288 -248 361 -200 q 92 -301 214 -296 l 94 -258 q 242 -169 242 -237 q 186 -125 242 -125 q 126 -139 157 -125 l 118 -124 l 171 -12 q 18 29 79 -7 q 53 219 21 117 l 122 219 q 117 136 117 171 q 221 61 117 61 q 331 82 304 61 q 351 118 342 92 q 360 162 360 144 q 356 191 360 179 q 343 213 353 203 q 328 231 333 224 q 304 248 322 238 q 280 263 286 258 q 250 278 274 267 q 122 365 160 322 q 85 486 85 407 q 154 622 85 565 q 339 678 224 678 q 490 650 417 678 q 458 479 483 568 l 389 479 z "},"Š":{"ha":692,"x_min":21,"x_max":738,"o":"m 738 1238 l 519 1044 l 442 1044 l 282 1238 l 324 1274 l 493 1147 l 710 1274 l 738 1238 m 647 703 l 565 693 q 572 817 572 779 q 558 868 572 854 q 457 897 529 897 q 339 864 385 897 q 272 740 272 815 q 332 619 272 664 q 459 544 378 583 q 587 449 540 506 q 633 300 633 392 q 537 77 633 167 q 276 -12 440 -12 q 125 8 196 -12 q 21 47 54 28 q 74 278 21 143 l 154 282 q 149 153 149 182 q 165 111 149 125 q 226 81 182 97 q 324 65 269 65 q 425 99 379 65 q 494 240 494 149 q 403 389 494 332 q 350 421 375 407 q 192 531 238 479 q 146 671 146 583 q 247 890 146 804 q 508 975 347 975 q 700 938 615 975 q 647 703 694 836 z "},"š":{"ha":525,"x_min":18,"x_max":569,"o":"m 376 786 l 289 786 l 154 1021 l 210 1056 l 339 892 l 528 1056 l 569 1021 l 376 786 m 389 479 l 392 535 q 380 594 392 581 q 306 608 368 608 q 210 586 243 608 q 190 553 199 578 q 182 513 182 529 q 185 484 182 496 q 199 461 189 472 q 215 443 208 450 q 239 425 221 436 q 265 410 257 414 q 295 394 272 406 q 339 371 318 382 q 425 310 381 349 q 469 211 469 272 q 393 51 469 115 q 203 -12 317 -12 q 18 29 90 -12 q 53 219 21 117 l 122 219 q 117 136 117 171 q 221 61 117 61 q 331 82 304 61 q 351 118 342 92 q 360 162 360 144 q 356 191 360 179 q 343 213 353 203 q 328 231 333 224 q 304 248 322 238 q 280 263 286 258 q 250 278 274 267 q 122 365 160 322 q 85 486 85 407 q 154 622 85 565 q 339 678 224 678 q 490 650 417 678 q 458 479 483 568 l 389 479 z "},"Ţ":{"ha":801,"x_min":96,"x_max":907,"o":"m 564 0 l 388 0 l 357 -65 q 408 -62 371 -62 q 472 -83 444 -62 q 499 -137 499 -103 q 425 -248 499 -200 q 229 -301 351 -296 l 232 -258 q 339 -226 299 -250 q 379 -169 379 -203 q 324 -125 379 -125 q 264 -139 294 -125 l 256 -124 l 314 0 l 174 0 l 174 54 q 303 97 283 71 q 317 140 311 110 l 449 890 q 255 882 268 888 q 233 869 242 876 q 165 713 215 850 l 96 718 q 150 963 113 839 l 907 963 q 875 718 899 814 l 803 713 q 790 869 803 846 q 774 882 786 876 q 583 890 761 888 l 450 132 q 447 107 447 118 q 479 69 447 72 l 571 54 l 564 0 z "},"ţ":{"ha":446,"x_min":58,"x_max":463,"o":"m 58 -301 l 61 -258 q 208 -169 208 -237 q 153 -125 208 -125 q 93 -139 124 -125 l 85 -124 l 144 3 q 97 96 97 28 q 108 193 97 135 l 179 582 l 83 582 l 89 640 l 167 657 q 207 687 194 664 q 267 835 219 710 l 349 843 l 315 664 l 463 664 l 449 582 l 299 582 l 222 168 q 215 110 215 122 q 260 69 215 69 q 393 101 304 69 l 411 63 q 211 -12 297 -12 l 186 -65 q 238 -62 200 -62 q 301 -83 275 -62 q 328 -137 328 -103 q 254 -248 328 -200 q 58 -301 181 -296 z "},"Ť":{"ha":801,"x_min":96,"x_max":907,"o":"m 789 1238 l 571 1044 l 493 1044 l 333 1238 l 375 1274 l 544 1147 l 761 1274 l 789 1238 m 564 0 l 174 0 l 174 54 q 303 97 283 71 q 317 140 311 110 l 449 890 q 255 882 268 888 q 233 869 242 876 q 165 713 215 850 l 96 718 q 150 963 113 839 l 907 963 q 875 718 899 814 l 803 713 q 790 869 803 846 q 774 882 786 876 q 583 890 761 888 l 450 132 q 447 107 447 118 q 479 69 447 72 l 571 54 l 564 0 z "},"ť":{"ha":446,"x_min":83,"x_max":600,"o":"m 464 801 l 410 821 q 464 1044 460 942 l 588 1075 l 600 1049 q 464 801 561 914 m 393 101 l 411 63 q 211 -12 297 -12 q 126 16 156 -12 q 97 90 97 44 q 108 193 97 135 l 179 582 l 83 582 l 89 640 l 167 657 q 207 687 194 664 q 267 835 219 710 l 349 843 l 315 664 l 463 664 l 449 582 l 299 582 l 222 168 q 215 110 215 122 q 260 69 215 69 q 393 101 304 69 z "},"Ŧ":{"ha":801,"x_min":96,"x_max":907,"o":"m 728 1117 l 382 1117 l 397 1200 l 743 1200 l 728 1117 m 564 0 l 174 0 l 174 54 q 303 97 283 71 q 317 140 311 110 l 449 890 q 255 882 268 888 q 233 869 242 876 q 165 713 215 850 l 96 718 q 150 963 113 839 l 907 963 q 875 718 899 814 l 803 713 q 790 869 803 846 q 774 882 786 876 q 583 890 761 888 l 450 132 q 447 107 447 118 q 479 69 447 72 l 571 54 l 564 0 z "},"ŧ":{"ha":446,"x_min":36,"x_max":463,"o":"m 393 101 l 411 63 q 211 -12 297 -12 q 126 16 156 -12 q 97 90 97 44 q 108 193 97 135 l 140 372 l 36 372 l 50 446 l 154 446 l 179 582 l 83 582 l 89 640 l 167 657 q 207 687 194 664 q 267 835 219 710 l 349 843 l 315 664 l 463 664 l 449 582 l 299 582 l 274 446 l 442 446 l 428 372 l 260 372 l 222 168 q 215 110 215 122 q 260 69 215 69 q 393 101 304 69 z "},"Ũ":{"ha":999,"x_min":176,"x_max":1068,"o":"m 892 1238 l 924 1221 q 769 1081 833 1081 q 657 1099 746 1081 q 525 1118 568 1118 q 426 1071 482 1118 l 399 1093 q 494 1197 457 1167 q 564 1226 532 1226 q 682 1208 596 1226 q 802 1189 768 1189 q 892 1238 836 1189 m 315 272 q 511 89 315 89 q 678 164 615 89 q 758 346 740 239 l 838 796 q 842 847 842 821 q 818 886 842 872 q 724 908 794 900 l 732 963 l 1068 963 l 1064 908 l 975 892 q 944 872 950 886 q 942 856 943 867 l 853 357 q 456 -12 786 -12 q 247 54 317 -12 q 176 243 176 121 q 186 346 176 292 l 269 822 q 274 860 274 842 q 255 888 274 878 q 179 908 236 897 l 188 963 l 538 963 l 533 908 l 444 892 q 414 872 421 886 q 411 856 413 867 l 325 367 q 315 272 315 306 z "},"ũ":{"ha":724,"x_min":46,"x_max":731,"o":"m 700 993 l 731 975 q 575 826 640 826 q 465 856 551 826 q 344 885 378 885 q 233 826 292 885 l 206 850 q 303 960 265 928 q 372 992 340 992 q 489 963 404 992 q 607 933 574 933 q 700 993 640 933 m 683 103 l 707 65 q 531 -12 599 -12 q 471 57 471 -12 q 494 193 471 86 l 508 257 l 500 260 q 359 63 444 138 q 186 -12 274 -12 q 72 124 72 -12 q 90 250 72 169 l 150 532 q 153 561 153 546 q 46 608 153 589 l 53 653 q 272 672 210 672 l 285 658 q 269 532 282 589 l 215 268 q 197 151 197 178 q 247 85 197 85 q 340 130 289 85 q 439 251 392 175 q 519 438 486 328 q 553 658 553 549 q 667 678 617 661 l 689 660 q 643 472 664 582 l 583 144 q 578 93 578 117 q 596 69 578 69 q 683 103 617 69 z "},"Ū":{"ha":999,"x_min":176,"x_max":1068,"o":"m 840 1117 l 494 1117 l 510 1200 l 856 1200 l 840 1117 m 315 272 q 511 89 315 89 q 678 164 615 89 q 758 346 740 239 l 838 796 q 842 847 842 821 q 818 886 842 872 q 724 908 794 900 l 732 963 l 1068 963 l 1064 908 l 975 892 q 944 872 950 886 q 942 856 943 867 l 853 357 q 456 -12 786 -12 q 247 54 317 -12 q 176 243 176 121 q 186 346 176 292 l 269 822 q 274 860 274 842 q 255 888 274 878 q 179 908 236 897 l 188 963 l 538 963 l 533 908 l 444 892 q 414 872 421 886 q 411 856 413 867 l 325 367 q 315 272 315 306 z "},"ū":{"ha":724,"x_min":46,"x_max":707,"o":"m 649 892 l 303 892 l 318 975 l 664 975 l 649 892 m 683 103 l 707 65 q 531 -12 599 -12 q 471 57 471 -12 q 494 193 471 86 l 508 257 l 500 260 q 359 63 444 138 q 186 -12 274 -12 q 72 124 72 -12 q 90 250 72 169 l 150 532 q 153 561 153 546 q 46 608 153 589 l 53 653 q 272 672 210 672 l 285 658 q 269 532 282 589 l 215 268 q 197 151 197 178 q 247 85 197 85 q 340 130 289 85 q 439 251 392 175 q 519 438 486 328 q 553 658 553 549 q 667 678 617 661 l 689 660 q 643 472 664 582 l 583 144 q 578 93 578 117 q 596 69 578 69 q 683 103 617 69 z "},"Ů":{"ha":999,"x_min":176,"x_max":1068,"o":"m 674 1276 q 703 1276 674 1276 q 766 1247 732 1276 q 800 1163 800 1217 q 751 1067 800 1108 q 645 1026 703 1026 q 554 1056 588 1026 q 521 1140 521 1085 q 569 1236 521 1196 q 674 1276 617 1276 m 589 1144 q 651 1086 589 1086 q 706 1108 682 1086 q 729 1158 729 1131 q 665 1217 729 1217 q 610 1195 632 1217 q 589 1144 589 1174 m 315 272 q 511 89 315 89 q 678 164 615 89 q 758 346 740 239 l 838 796 q 842 847 842 821 q 818 886 842 872 q 724 908 794 900 l 732 963 l 1068 963 l 1064 908 l 975 892 q 944 872 950 886 q 942 856 943 867 l 853 357 q 456 -12 786 -12 q 247 54 317 -12 q 176 243 176 121 q 186 346 176 292 l 269 822 q 274 860 274 842 q 255 888 274 878 q 179 908 236 897 l 188 963 l 538 963 l 533 908 l 444 892 q 414 872 421 886 q 411 856 413 867 l 325 367 q 315 272 315 306 z "},"ů":{"ha":724,"x_min":46,"x_max":707,"o":"m 472 1049 q 594 929 594 1049 q 551 826 594 869 q 436 783 508 783 q 313 896 313 783 q 356 1006 313 964 q 472 1049 399 1049 m 446 843 q 502 867 481 843 q 524 928 524 892 q 463 989 524 989 q 404 965 426 989 q 382 906 382 942 q 446 843 382 843 m 683 103 l 707 65 q 531 -12 599 -12 q 471 57 471 -12 q 494 193 471 86 l 508 257 l 500 260 q 359 63 444 138 q 186 -12 274 -12 q 72 124 72 -12 q 90 250 72 169 l 150 532 q 153 561 153 546 q 46 608 153 589 l 53 653 q 272 672 210 672 l 285 658 q 269 532 282 589 l 215 268 q 197 151 197 178 q 247 85 197 85 q 340 130 289 85 q 439 251 392 175 q 519 438 486 328 q 553 658 553 549 q 667 678 617 661 l 689 660 q 643 472 664 582 l 583 144 q 578 93 578 117 q 596 69 578 69 q 683 103 617 69 z "},"Ű":{"ha":999,"x_min":176,"x_max":1068,"o":"m 1063 1197 l 788 1043 l 746 1078 l 944 1271 l 1068 1229 l 1063 1197 m 788 1197 l 513 1043 l 471 1078 l 669 1271 l 793 1229 l 788 1197 m 315 272 q 511 89 315 89 q 678 164 615 89 q 758 346 740 239 l 838 796 q 842 847 842 821 q 818 886 842 872 q 724 908 794 900 l 732 963 l 1068 963 l 1064 908 l 975 892 q 944 872 950 886 q 942 856 943 867 l 853 357 q 456 -12 786 -12 q 247 54 317 -12 q 176 243 176 121 q 186 346 176 292 l 269 822 q 274 860 274 842 q 255 888 274 878 q 179 908 236 897 l 188 963 l 538 963 l 533 908 l 444 892 q 414 872 421 886 q 411 856 413 867 l 325 367 q 315 272 315 306 z "},"ű":{"ha":724,"x_min":46,"x_max":797,"o":"m 792 989 l 521 779 l 479 814 l 674 1063 l 797 1021 l 792 989 m 517 989 l 246 779 l 204 814 l 399 1063 l 522 1021 l 517 989 m 683 103 l 707 65 q 531 -12 599 -12 q 471 57 471 -12 q 494 193 471 86 l 508 257 l 500 260 q 359 63 444 138 q 186 -12 274 -12 q 72 124 72 -12 q 90 250 72 169 l 150 532 q 153 561 153 546 q 46 608 153 589 l 53 653 q 272 672 210 672 l 285 658 q 269 532 282 589 l 215 268 q 197 151 197 178 q 247 85 197 85 q 340 130 289 85 q 439 251 392 175 q 519 438 486 328 q 553 658 553 549 q 667 678 617 661 l 689 660 q 643 472 664 582 l 583 144 q 578 93 578 117 q 596 69 578 69 q 683 103 617 69 z "},"Ų":{"ha":999,"x_min":176,"x_max":1068,"o":"m 364 -161 q 436 -221 364 -221 q 514 -207 472 -221 l 526 -235 q 361 -299 443 -299 q 279 -269 313 -299 q 246 -191 246 -239 q 285 -92 246 -143 q 392 -8 324 -42 q 176 243 176 21 q 186 346 176 292 l 269 822 q 274 860 274 842 q 255 888 274 878 q 179 908 236 897 l 188 963 l 538 963 l 533 908 l 444 892 q 414 872 421 886 q 411 856 413 867 l 325 367 q 315 272 315 306 q 511 89 315 89 q 678 164 615 89 q 758 346 740 239 l 838 796 q 842 847 842 821 q 818 886 842 872 q 724 908 794 900 l 732 963 l 1068 963 l 1064 908 l 975 892 q 944 872 950 886 q 942 856 943 867 l 853 357 q 539 -6 794 39 q 415 -62 467 -18 q 364 -161 364 -106 z "},"ų":{"ha":724,"x_min":46,"x_max":707,"o":"m 672 -207 l 685 -235 q 519 -299 601 -299 q 440 -267 472 -299 q 407 -183 407 -236 q 510 -10 407 -89 q 471 57 471 1 q 494 193 471 86 l 508 257 l 500 260 q 359 63 444 138 q 186 -12 274 -12 q 72 124 72 -12 q 90 250 72 169 l 150 532 q 153 561 153 546 q 46 608 153 589 l 53 653 q 272 672 210 672 l 285 658 q 269 532 282 589 l 215 268 q 197 151 197 178 q 247 85 197 85 q 340 130 289 85 q 439 251 392 175 q 519 438 486 328 q 553 658 553 549 q 667 678 617 661 l 689 660 q 643 472 664 582 l 583 144 q 578 93 578 117 q 596 69 578 69 q 683 103 617 69 l 707 65 q 668 39 696 57 q 625 10 640 21 q 524 -144 524 -68 q 588 -221 524 -221 q 672 -207 632 -221 z "},"Ŵ":{"ha":1313,"x_min":119,"x_max":1431,"o":"m 1008 1076 l 967 1040 l 797 1167 l 581 1040 l 553 1076 l 769 1269 l 847 1269 l 1008 1076 m 867 225 l 871 178 l 885 178 l 1192 790 q 1221 861 1221 849 q 1122 907 1221 890 l 1129 963 l 1431 963 l 1426 904 q 1348 879 1367 893 q 1308 826 1329 865 l 883 -12 l 775 -12 l 722 468 q 719 529 719 490 l 708 529 q 693 493 706 514 l 444 -12 l 332 -12 l 201 847 q 183 885 197 876 q 119 907 169 894 l 128 963 l 443 963 l 439 906 l 356 879 q 344 868 344 878 l 424 225 l 428 178 l 442 178 l 694 683 l 676 847 q 666 880 672 875 q 658 887 660 885 q 648 892 656 889 q 637 897 640 896 q 622 901 633 897 q 604 907 610 906 l 613 963 l 917 963 l 913 906 l 808 879 q 797 868 797 878 l 867 225 z "},"ŵ":{"ha":1006,"x_min":33,"x_max":1001,"o":"m 767 814 l 711 779 l 582 943 l 393 779 l 351 814 l 551 1049 l 639 1049 l 767 814 m 661 -12 l 596 -12 l 536 301 l 531 303 q 314 -12 449 149 l 249 -12 l 143 546 q 119 592 136 583 q 33 608 103 601 l 40 653 q 235 672 190 672 l 247 658 l 333 129 l 339 128 q 504 461 504 336 l 504 471 l 490 546 q 470 592 483 583 q 401 608 457 601 l 408 653 q 582 672 543 672 l 594 658 l 681 129 l 686 128 q 822 345 757 225 q 888 544 888 465 q 871 583 888 569 q 837 601 854 597 q 779 608 819 604 l 786 653 q 981 672 931 672 l 993 658 q 1001 608 1001 643 q 931 389 1001 526 q 661 -12 821 175 z "},"Ŷ":{"ha":831,"x_min":125,"x_max":954,"o":"m 811 1076 l 769 1040 l 600 1167 l 383 1040 l 356 1076 l 572 1269 l 650 1269 l 811 1076 m 583 0 l 193 0 l 193 54 q 306 83 283 68 q 336 140 328 97 l 379 388 l 211 847 q 187 886 200 878 q 125 907 174 894 l 133 963 l 465 963 l 461 906 l 364 881 q 353 872 353 878 q 358 849 353 865 l 464 542 q 471 501 471 521 l 485 501 l 692 800 q 732 871 732 860 q 716 890 732 882 q 656 907 700 897 l 663 963 l 954 963 l 950 904 q 861 877 888 892 q 811 829 835 863 l 517 399 l 469 132 q 467 107 467 118 q 499 69 467 72 l 590 54 l 583 0 z "},"ŷ":{"ha":675,"x_min":-117,"x_max":671,"o":"m 617 814 l 561 779 l 432 943 l 243 779 l 201 814 l 401 1049 l 489 1049 l 617 814 m 258 -10 l 143 546 q 119 592 135 583 q 33 608 103 601 l 40 653 q 235 672 190 672 l 247 658 l 347 107 l 353 106 q 499 344 440 222 q 557 544 557 467 q 540 583 557 569 q 506 601 524 597 q 449 608 489 604 l 456 653 q 650 672 600 672 l 663 658 q 671 608 671 643 q 590 347 671 506 q 399 45 510 188 q 160 -201 288 -97 q -53 -304 32 -304 q -117 -272 -117 -304 q -95 -192 -117 -235 q -54 -150 -74 -150 q -7 -158 -40 -150 q 35 -167 26 -167 q 258 -10 114 -167 z "},"Ÿ":{"ha":831,"x_min":125,"x_max":954,"o":"m 708 1076 q 643 1140 643 1076 q 668 1203 643 1176 q 728 1229 693 1229 q 793 1167 793 1229 q 768 1103 793 1131 q 708 1076 743 1076 m 440 1076 q 375 1140 375 1076 q 400 1203 375 1176 q 460 1229 425 1229 q 525 1167 525 1229 q 500 1103 525 1131 q 440 1076 475 1076 m 583 0 l 193 0 l 193 54 q 306 83 283 68 q 336 140 328 97 l 379 388 l 211 847 q 187 886 200 878 q 125 907 174 894 l 133 963 l 465 963 l 461 906 l 364 881 q 353 872 353 878 q 358 849 353 865 l 464 542 q 471 501 471 521 l 485 501 l 692 800 q 732 871 732 860 q 716 890 732 882 q 656 907 700 897 l 663 963 l 954 963 l 950 904 q 861 877 888 892 q 811 829 835 863 l 517 399 l 469 132 q 467 107 467 118 q 499 69 467 72 l 590 54 l 583 0 z "},"Ź":{"ha":846,"x_min":15,"x_max":907,"o":"m 800 1169 l 497 1040 l 464 1090 l 739 1269 l 817 1199 l 800 1169 m 733 0 l 15 0 l 21 36 l 667 850 q 703 882 690 878 l 701 892 l 572 892 q 322 883 381 892 q 239 708 301 882 l 153 718 q 200 963 164 851 l 907 963 l 901 926 l 253 113 q 218 81 233 88 l 219 72 l 424 72 q 606 82 572 72 q 715 296 629 89 l 790 289 q 733 0 782 175 z "},"ź":{"ha":592,"x_min":-8,"x_max":646,"o":"m 640 989 l 390 779 l 343 814 l 538 1063 l 646 1021 l 640 989 m 357 554 l 229 563 q 169 549 186 563 q 131 481 151 535 l 75 481 q 108 663 75 556 q 195 678 153 678 q 314 661 238 678 q 449 644 390 644 q 583 678 507 644 l 624 643 l 163 108 l 168 104 q 243 115 210 115 q 326 106 276 115 q 405 97 375 97 q 452 116 435 97 q 488 193 469 135 l 543 193 q 510 3 543 115 q 424 -12 469 -12 q 290 8 378 -12 q 160 28 203 28 q 32 -12 88 28 l -8 15 l 449 569 l 444 574 q 357 554 406 554 z "},"Ż":{"ha":846,"x_min":15,"x_max":907,"o":"m 599 1242 q 617 1242 599 1242 q 657 1223 635 1242 q 679 1169 679 1204 q 657 1110 679 1133 q 599 1088 635 1088 q 524 1165 524 1088 q 544 1219 524 1197 q 599 1242 564 1242 m 733 0 l 15 0 l 21 36 l 667 850 q 703 882 690 878 l 701 892 l 572 892 q 322 883 381 892 q 239 708 301 882 l 153 718 q 200 963 164 851 l 907 963 l 901 926 l 253 113 q 218 81 233 88 l 219 72 l 424 72 q 606 82 572 72 q 715 296 629 89 l 790 289 q 733 0 782 175 z "},"ż":{"ha":592,"x_min":-8,"x_max":624,"o":"m 426 1007 q 443 1007 426 1007 q 483 988 461 1007 q 506 934 506 969 q 483 876 506 899 q 425 853 461 853 q 350 931 350 853 q 370 985 350 963 q 426 1007 390 1007 m 357 554 l 229 563 q 169 549 186 563 q 131 481 151 535 l 75 481 q 108 663 75 556 q 195 678 153 678 q 314 661 238 678 q 449 644 390 644 q 583 678 507 644 l 624 643 l 163 108 l 168 104 q 243 115 210 115 q 326 106 276 115 q 405 97 375 97 q 452 116 435 97 q 488 193 469 135 l 543 193 q 510 3 543 115 q 424 -12 469 -12 q 290 8 378 -12 q 160 28 203 28 q 32 -12 88 28 l -8 15 l 449 569 l 444 574 q 357 554 406 554 z "},"Ž":{"ha":846,"x_min":15,"x_max":907,"o":"m 815 1238 l 597 1044 l 519 1044 l 360 1238 l 401 1274 l 571 1147 l 788 1274 l 815 1238 m 733 0 l 15 0 l 21 36 l 667 850 q 703 882 690 878 l 701 892 l 572 892 q 322 883 381 892 q 239 708 301 882 l 153 718 q 200 963 164 851 l 907 963 l 901 926 l 253 113 q 218 81 233 88 l 219 72 l 424 72 q 606 82 572 72 q 715 296 629 89 l 790 289 q 733 0 782 175 z "},"ž":{"ha":592,"x_min":-8,"x_max":624,"o":"m 413 786 l 325 786 l 190 1021 l 246 1056 l 375 892 l 564 1056 l 606 1021 l 413 786 m 357 554 l 229 563 q 169 549 186 563 q 131 481 151 535 l 75 481 q 108 663 75 556 q 195 678 153 678 q 314 661 238 678 q 449 644 390 644 q 583 678 507 644 l 624 643 l 163 108 l 168 104 q 243 115 210 115 q 326 106 276 115 q 405 97 375 97 q 452 116 435 97 q 488 193 469 135 l 543 193 q 510 3 543 115 q 424 -12 469 -12 q 290 8 378 -12 q 160 28 203 28 q 32 -12 88 28 l -8 15 l 449 569 l 444 574 q 357 554 406 554 z "},"ſ":{"ha":375,"x_min":-175,"x_max":661,"o":"m -114 -156 l -22 -174 q 35 -107 15 -174 q 68 53 54 -40 q 86 168 82 146 l 151 582 l 40 582 l 46 640 l 139 657 q 168 688 163 663 l 172 710 q 297 969 192 867 q 542 1072 403 1072 q 661 1057 608 1072 q 633 865 661 974 l 560 865 l 563 928 q 550 979 563 964 q 481 994 538 994 q 401 975 425 994 q 339 887 364 943 q 294 710 314 831 l 213 200 q 92 -169 175 -33 q -110 -304 10 -304 q -175 -267 -175 -304 q -157 -198 -175 -240 q -114 -156 -139 -156 z "},"ƒ":{"ha":475,"x_min":-111,"x_max":725,"o":"m -50 -156 l 42 -174 q 99 -107 79 -174 q 132 53 118 -40 q 150 168 146 146 l 206 524 l 110 524 l 115 582 l 193 599 q 213 608 207 601 q 224 632 218 614 l 236 710 q 361 972 261 871 q 606 1072 461 1072 q 725 1057 672 1072 q 697 865 725 974 l 624 865 l 626 928 q 614 979 626 964 q 545 994 601 994 q 465 975 489 994 q 358 710 390 910 l 342 607 l 489 607 l 475 524 l 328 524 l 276 200 q 156 -169 239 -33 q -46 -304 74 -304 q -111 -267 -111 -304 q -93 -198 -111 -240 q -50 -156 -75 -156 z "},"Ǧ":{"ha":901,"x_min":83,"x_max":889,"o":"m 879 1238 l 661 1044 l 583 1044 l 424 1238 l 465 1274 l 635 1147 l 851 1274 l 879 1238 m 615 88 l 643 281 q 646 318 646 303 q 627 345 646 333 q 550 367 608 357 l 565 421 l 889 421 l 889 367 l 815 350 q 782 314 788 344 l 744 51 q 615 8 699 28 q 446 -12 531 -12 q 175 101 267 -12 q 83 383 83 214 q 153 696 83 553 q 251 837 193 776 q 403 936 310 897 q 591 975 497 975 q 762 961 685 975 q 861 936 839 947 q 835 703 861 843 l 754 692 q 725 869 744 853 q 670 890 715 879 q 581 901 625 901 q 388 829 467 901 q 242 403 242 696 q 315 152 242 239 q 497 65 388 65 q 615 88 563 65 z "},"ǧ":{"ha":706,"x_min":-24,"x_max":690,"o":"m 497 786 l 410 786 l 275 1021 l 331 1056 l 460 892 l 649 1056 l 690 1021 l 497 786 m 624 467 l 549 61 q 415 -203 518 -101 q 161 -304 313 -304 q 36 -267 96 -304 q -24 -168 -24 -231 q 64 -21 -24 -79 q 147 7 103 4 l 146 18 q 119 26 131 18 q 46 196 46 74 q 156 542 46 406 q 426 678 267 678 q 558 649 483 678 q 649 678 599 658 l 671 660 q 624 467 646 588 m 519 560 q 383 600 453 600 q 292 578 314 600 q 208 429 244 536 q 171 239 171 322 q 235 101 171 101 q 410 258 317 101 q 519 560 503 415 m 476 193 l 490 257 l 479 260 q 288 44 410 122 q 224 8 264 26 q 157 -23 183 -10 q 110 -64 131 -36 q 89 -131 89 -92 q 117 -198 89 -169 q 197 -226 144 -226 q 283 -218 250 -226 q 341 -183 315 -210 q 383 -132 367 -157 q 476 193 421 -72 z "},"Ș":{"ha":692,"x_min":21,"x_max":700,"o":"m 647 703 l 565 693 q 572 817 572 779 q 558 868 572 854 q 457 897 529 897 q 339 864 385 897 q 272 740 272 815 q 332 619 272 664 q 459 544 378 583 q 587 449 540 506 q 633 300 633 392 q 537 77 633 167 q 276 -12 440 -12 q 125 8 196 -12 q 21 47 54 28 q 74 278 21 143 l 154 282 q 149 153 149 182 q 165 111 149 125 q 226 81 182 97 q 324 65 269 65 q 425 99 379 65 q 494 240 494 149 q 403 389 494 332 q 350 421 375 407 q 192 531 238 479 q 146 671 146 583 q 247 890 146 804 q 508 975 347 975 q 700 938 615 975 q 647 703 694 836 m 203 -292 l 174 -257 q 253 -162 253 -207 q 244 -131 253 -150 q 235 -89 235 -111 q 255 -48 235 -67 q 303 -29 275 -29 q 349 -49 331 -29 q 367 -110 367 -69 q 324 -201 367 -150 q 203 -292 281 -251 z "},"ș":{"ha":525,"x_min":18,"x_max":490,"o":"m 389 479 l 392 535 q 380 594 392 581 q 306 608 368 608 q 210 586 243 608 q 190 553 199 578 q 182 513 182 529 q 185 484 182 496 q 199 461 189 472 q 215 443 208 450 q 239 425 221 436 q 265 410 257 414 q 295 394 272 406 q 339 371 318 382 q 425 310 381 349 q 469 211 469 272 q 393 51 469 115 q 203 -12 317 -12 q 18 29 90 -12 q 53 219 21 117 l 122 219 q 117 136 117 171 q 221 61 117 61 q 331 82 304 61 q 351 118 342 92 q 360 162 360 144 q 356 191 360 179 q 343 213 353 203 q 328 231 333 224 q 304 248 322 238 q 280 263 286 258 q 250 278 274 267 q 122 365 160 322 q 85 486 85 407 q 154 622 85 565 q 339 678 224 678 q 490 650 417 678 q 458 479 483 568 l 389 479 m 124 -292 l 94 -257 q 174 -162 174 -207 q 165 -131 174 -150 q 156 -89 156 -111 q 176 -48 156 -67 q 224 -29 196 -29 q 269 -49 251 -29 q 288 -110 288 -69 q 244 -201 288 -150 q 124 -292 201 -251 z "},"Ț":{"ha":801,"x_min":96,"x_max":907,"o":"m 564 0 l 174 0 l 174 54 q 303 97 283 71 q 317 140 311 110 l 449 890 q 255 882 268 888 q 233 869 242 876 q 165 713 215 850 l 96 718 q 150 963 113 839 l 907 963 q 875 718 899 814 l 803 713 q 790 869 803 846 q 774 882 786 876 q 583 890 761 888 l 450 132 q 447 107 447 118 q 479 69 447 72 l 571 54 l 564 0 m 247 -292 l 218 -257 q 297 -162 297 -207 q 288 -131 297 -150 q 279 -89 279 -111 q 299 -48 279 -67 q 347 -29 319 -29 q 393 -49 375 -29 q 411 -110 411 -69 q 368 -201 411 -150 q 247 -292 325 -251 z "},"ț":{"ha":446,"x_min":61,"x_max":463,"o":"m 393 101 l 411 63 q 211 -12 297 -12 q 126 16 156 -12 q 97 90 97 44 q 108 193 97 135 l 179 582 l 83 582 l 89 640 l 167 657 q 207 687 194 664 q 267 835 219 710 l 349 843 l 315 664 l 463 664 l 449 582 l 299 582 l 222 168 q 215 110 215 122 q 260 69 215 69 q 393 101 304 69 m 90 -292 l 61 -257 q 140 -162 140 -207 q 131 -131 140 -150 q 122 -89 122 -111 q 142 -48 122 -67 q 190 -29 163 -29 q 236 -49 218 -29 q 254 -110 254 -69 q 211 -201 254 -150 q 90 -292 168 -251 z "},"ȷ":{"ha":353,"x_min":-185,"x_max":299,"o":"m 97 168 l 164 532 q 167 561 167 546 q 60 608 167 589 l 67 653 q 286 672 224 672 l 299 658 q 283 532 296 601 l 224 200 q 94 -170 181 -36 q -121 -304 7 -304 q -185 -272 -185 -304 q -165 -196 -185 -236 q -128 -156 -146 -156 q -79 -165 -114 -156 q -25 -174 -44 -174 q 46 -72 17 -174 q 82 85 67 4 q 97 168 97 165 z "},"ʼ":{"ha":151,"x_min":106,"x_max":276,"o":"m 133 774 l 106 806 q 175 931 175 874 q 163 965 175 944 q 151 1006 151 985 q 172 1046 151 1028 q 217 1064 192 1064 q 260 1044 243 1064 q 276 983 276 1025 q 243 883 276 940 q 133 774 210 825 z "},"ˆ":{"ha":415,"x_min":89,"x_max":504,"o":"m 504 814 l 449 779 l 319 943 l 131 779 l 89 814 l 289 1049 l 376 1049 l 504 814 z "},"ˇ":{"ha":415,"x_min":126,"x_max":542,"o":"m 349 786 l 261 786 l 126 1021 l 182 1056 l 311 892 l 500 1056 l 542 1021 l 349 786 z "},"˘":{"ha":414,"x_min":121,"x_max":538,"o":"m 486 1000 l 538 1000 q 453 847 515 907 q 297 788 390 788 q 163 835 204 788 q 121 960 121 882 q 124 1000 121 972 l 175 1000 q 310 882 178 882 q 486 1000 442 882 z "},"˙":{"ha":158,"x_min":111,"x_max":267,"o":"m 187 1007 q 205 1007 187 1007 q 244 988 222 1007 q 267 934 267 969 q 244 876 267 899 q 186 853 222 853 q 111 931 111 853 q 131 985 111 963 q 187 1007 151 1007 z "},"˚":{"ha":281,"x_min":107,"x_max":389,"o":"m 267 1049 q 389 929 389 1049 q 346 826 389 869 q 231 783 303 783 q 107 896 107 783 q 150 1006 107 964 q 267 1049 193 1049 m 240 843 q 297 867 275 843 q 318 928 318 892 q 257 989 318 989 q 199 965 221 989 q 176 906 176 942 q 240 843 176 843 z "},"˛":{"ha":393,"x_min":35,"x_max":358,"o":"m 358 81 q 201 -40 251 13 q 151 -156 151 -92 q 222 -221 151 -221 q 300 -207 260 -221 l 313 -235 q 147 -299 229 -299 q 67 -267 100 -299 q 35 -183 35 -236 q 108 -35 35 -104 q 347 111 181 35 l 358 81 z "},"˜":{"ha":503,"x_min":96,"x_max":621,"o":"m 590 993 l 621 975 q 465 826 531 826 q 355 856 442 826 q 235 885 268 885 q 124 826 182 885 l 96 850 q 193 960 156 928 q 263 992 231 992 q 379 963 294 992 q 497 933 464 933 q 590 993 531 933 z "},"˝":{"ha":556,"x_min":89,"x_max":682,"o":"m 676 989 l 406 779 l 364 814 l 558 1063 l 682 1021 l 676 989 m 401 989 l 131 779 l 89 814 l 283 1063 l 407 1021 l 401 989 z "},"̇":{"ha":163,"x_min":106,"x_max":269,"o":"m 178 829 q 106 899 106 829 q 132 963 106 936 q 199 989 158 989 q 269 924 269 989 q 244 857 269 885 q 178 829 218 829 z "},"̦":{"ha":167,"x_min":-110,"x_max":83,"o":"m -81 -292 l -110 -257 q -31 -162 -31 -207 q -40 -131 -31 -150 q -49 -89 -49 -111 q -28 -48 -49 -67 q 19 -29 -8 -29 q 65 -49 47 -29 q 83 -110 83 -69 q 40 -201 83 -150 q -81 -292 -3 -251 z "},"·":{"ha":501,"x_min":311,"x_max":475,"o":"m 475 558 q 448 492 475 521 q 386 464 421 464 q 331 482 351 464 q 311 535 311 500 q 338 597 311 569 q 403 624 365 624 q 475 558 475 624 z "},"π":{"ha":828,"x_min":74,"x_max":842,"o":"m 679 103 l 703 65 q 611 11 663 35 q 528 -12 560 -12 q 467 57 467 -12 q 561 550 467 83 l 371 550 q 304 238 344 407 q 235 0 264 69 l 75 0 l 75 54 q 157 92 133 67 q 278 549 201 143 q 200 544 203 546 q 176 523 188 542 q 136 433 165 504 l 74 440 q 119 657 92 571 l 642 657 q 728 664 703 657 q 778 771 747 669 l 842 765 q 800 551 829 639 l 656 551 q 604 288 635 451 q 574 97 574 124 q 592 69 574 69 q 679 103 617 69 z "},"Ẁ":{"ha":1313,"x_min":119,"x_max":1431,"o":"m 821 1040 l 565 1169 l 560 1199 l 649 1269 l 857 1090 l 821 1040 m 867 225 l 871 178 l 885 178 l 1192 790 q 1221 861 1221 849 q 1122 907 1221 890 l 1129 963 l 1431 963 l 1426 904 q 1348 879 1367 893 q 1308 826 1329 865 l 883 -12 l 775 -12 l 722 468 q 719 529 719 490 l 708 529 q 693 493 706 514 l 444 -12 l 332 -12 l 201 847 q 183 885 197 876 q 119 907 169 894 l 128 963 l 443 963 l 439 906 l 356 879 q 344 868 344 878 l 424 225 l 428 178 l 442 178 l 694 683 l 676 847 q 666 880 672 875 q 658 887 660 885 q 648 892 656 889 q 637 897 640 896 q 622 901 633 897 q 604 907 610 906 l 613 963 l 917 963 l 913 906 l 808 879 q 797 868 797 878 l 867 225 z "},"ẁ":{"ha":1006,"x_min":33,"x_max":1001,"o":"m 632 814 l 583 779 l 411 989 l 417 1021 l 529 1063 l 632 814 m 661 -12 l 596 -12 l 536 301 l 531 303 q 314 -12 449 149 l 249 -12 l 143 546 q 119 592 136 583 q 33 608 103 601 l 40 653 q 235 672 190 672 l 247 658 l 333 129 l 339 128 q 504 461 504 336 l 504 471 l 490 546 q 470 592 483 583 q 401 608 457 601 l 408 653 q 582 672 543 672 l 594 658 l 681 129 l 686 128 q 822 345 757 225 q 888 544 888 465 q 871 583 888 569 q 837 601 854 597 q 779 608 819 604 l 786 653 q 981 672 931 672 l 993 658 q 1001 608 1001 643 q 931 389 1001 526 q 661 -12 821 175 z "},"Ẃ":{"ha":1313,"x_min":119,"x_max":1431,"o":"m 994 1169 l 692 1040 l 658 1090 l 933 1269 l 1011 1199 l 994 1169 m 867 225 l 871 178 l 885 178 l 1192 790 q 1221 861 1221 849 q 1122 907 1221 890 l 1129 963 l 1431 963 l 1426 904 q 1348 879 1367 893 q 1308 826 1329 865 l 883 -12 l 775 -12 l 722 468 q 719 529 719 490 l 708 529 q 693 493 706 514 l 444 -12 l 332 -12 l 201 847 q 183 885 197 876 q 119 907 169 894 l 128 963 l 443 963 l 439 906 l 356 879 q 344 868 344 878 l 424 225 l 428 178 l 442 178 l 694 683 l 676 847 q 666 880 672 875 q 658 887 660 885 q 648 892 656 889 q 637 897 640 896 q 622 901 633 897 q 604 907 610 906 l 613 963 l 917 963 l 913 906 l 808 879 q 797 868 797 878 l 867 225 z "},"ẃ":{"ha":1006,"x_min":33,"x_max":1001,"o":"m 804 989 l 554 779 l 507 814 l 701 1063 l 810 1021 l 804 989 m 661 -12 l 596 -12 l 536 301 l 531 303 q 314 -12 449 149 l 249 -12 l 143 546 q 119 592 136 583 q 33 608 103 601 l 40 653 q 235 672 190 672 l 247 658 l 333 129 l 339 128 q 504 461 504 336 l 504 471 l 490 546 q 470 592 483 583 q 401 608 457 601 l 408 653 q 582 672 543 672 l 594 658 l 681 129 l 686 128 q 822 345 757 225 q 888 544 888 465 q 871 583 888 569 q 837 601 854 597 q 779 608 819 604 l 786 653 q 981 672 931 672 l 993 658 q 1001 608 1001 643 q 931 389 1001 526 q 661 -12 821 175 z "},"Ẅ":{"ha":1313,"x_min":119,"x_max":1431,"o":"m 906 1076 q 840 1140 840 1076 q 865 1203 840 1176 q 925 1229 890 1229 q 990 1167 990 1229 q 965 1103 990 1131 q 906 1076 940 1076 m 638 1076 q 572 1140 572 1076 q 597 1203 572 1176 q 657 1229 622 1229 q 722 1167 722 1229 q 697 1103 722 1131 q 638 1076 672 1076 m 867 225 l 871 178 l 885 178 l 1192 790 q 1221 861 1221 849 q 1122 907 1221 890 l 1129 963 l 1431 963 l 1426 904 q 1348 879 1367 893 q 1308 826 1329 865 l 883 -12 l 775 -12 l 722 468 q 719 529 719 490 l 708 529 q 693 493 706 514 l 444 -12 l 332 -12 l 201 847 q 183 885 197 876 q 119 907 169 894 l 128 963 l 443 963 l 439 906 l 356 879 q 344 868 344 878 l 424 225 l 428 178 l 442 178 l 694 683 l 676 847 q 666 880 672 875 q 658 887 660 885 q 648 892 656 889 q 637 897 640 896 q 622 901 633 897 q 604 907 610 906 l 613 963 l 917 963 l 913 906 l 808 879 q 797 868 797 878 l 867 225 z "},"ẅ":{"ha":1006,"x_min":33,"x_max":1001,"o":"m 717 833 q 653 897 653 833 q 678 960 653 933 q 738 986 703 986 q 803 924 803 986 q 777 860 803 888 q 717 833 751 833 m 449 833 q 385 897 385 833 q 410 960 385 933 q 469 986 435 986 q 535 924 535 986 q 509 860 535 888 q 449 833 483 833 m 661 -12 l 596 -12 l 536 301 l 531 303 q 314 -12 449 149 l 249 -12 l 143 546 q 119 592 136 583 q 33 608 103 601 l 40 653 q 235 672 190 672 l 247 658 l 333 129 l 339 128 q 504 461 504 336 l 504 471 l 490 546 q 470 592 483 583 q 401 608 457 601 l 408 653 q 582 672 543 672 l 594 658 l 681 129 l 686 128 q 822 345 757 225 q 888 544 888 465 q 871 583 888 569 q 837 601 854 597 q 779 608 819 604 l 786 653 q 981 672 931 672 l 993 658 q 1001 608 1001 643 q 931 389 1001 526 q 661 -12 821 175 z "},"Ỳ":{"ha":831,"x_min":125,"x_max":954,"o":"m 624 1040 l 368 1169 l 363 1199 l 451 1269 l 660 1090 l 624 1040 m 583 0 l 193 0 l 193 54 q 306 83 283 68 q 336 140 328 97 l 379 388 l 211 847 q 187 886 200 878 q 125 907 174 894 l 133 963 l 465 963 l 461 906 l 364 881 q 353 872 353 878 q 358 849 353 865 l 464 542 q 471 501 471 521 l 485 501 l 692 800 q 732 871 732 860 q 716 890 732 882 q 656 907 700 897 l 663 963 l 954 963 l 950 904 q 861 877 888 892 q 811 829 835 863 l 517 399 l 469 132 q 467 107 467 118 q 499 69 467 72 l 590 54 l 583 0 z "},"ỳ":{"ha":675,"x_min":-117,"x_max":671,"o":"m 486 814 l 438 779 l 265 989 l 271 1021 l 383 1063 l 486 814 m 258 -10 l 143 546 q 119 592 135 583 q 33 608 103 601 l 40 653 q 235 672 190 672 l 247 658 l 347 107 l 353 106 q 499 344 440 222 q 557 544 557 467 q 540 583 557 569 q 506 601 524 597 q 449 608 489 604 l 456 653 q 650 672 600 672 l 663 658 q 671 608 671 643 q 590 347 671 506 q 399 45 510 188 q 160 -201 288 -97 q -53 -304 32 -304 q -117 -272 -117 -304 q -95 -192 -117 -235 q -54 -150 -74 -150 q -7 -158 -40 -150 q 35 -167 26 -167 q 258 -10 114 -167 z "},"–":{"ha":694,"x_min":13,"x_max":713,"o":"m 696 303 l 13 303 l 29 376 l 713 376 l 696 303 z "},"—":{"ha":1389,"x_min":13,"x_max":1407,"o":"m 1390 303 l 13 303 l 29 376 l 1407 376 l 1390 303 z "},"‘":{"ha":299,"x_min":85,"x_max":293,"o":"m 265 1061 l 293 1025 q 204 871 204 946 q 219 829 204 849 q 233 782 233 810 q 208 734 233 754 q 153 714 183 714 q 103 735 122 714 q 85 800 85 757 q 137 941 85 871 q 265 1061 189 1011 z "},"’":{"ha":299,"x_min":90,"x_max":299,"o":"m 118 717 l 90 753 q 179 907 179 832 q 165 949 179 929 q 150 996 150 968 q 175 1044 150 1024 q 231 1064 200 1064 q 280 1042 261 1064 q 299 978 299 1021 q 247 837 299 907 q 118 717 194 767 z "},"‚":{"ha":325,"x_min":4,"x_max":218,"o":"m 35 -193 l 4 -157 q 72 -71 46 -115 q 99 -3 99 -26 q 84 42 99 19 q 69 90 69 65 q 92 136 69 115 q 144 157 114 157 q 197 133 175 157 q 218 71 218 108 q 171 -62 218 8 q 35 -193 124 -133 z "},"“":{"ha":564,"x_min":85,"x_max":558,"o":"m 531 1061 l 558 1025 q 469 871 469 946 q 484 829 469 849 q 499 782 499 810 q 474 734 499 754 q 418 714 449 714 q 369 735 388 714 q 350 800 350 757 q 402 941 350 871 q 531 1061 454 1011 m 265 1061 l 293 1025 q 204 871 204 946 q 219 829 204 849 q 233 782 233 810 q 208 734 233 754 q 153 714 183 714 q 103 735 122 714 q 85 800 85 757 q 137 941 85 871 q 265 1061 189 1011 z "},"”":{"ha":564,"x_min":90,"x_max":564,"o":"m 383 717 l 356 753 q 444 907 444 832 q 430 949 444 929 q 415 996 415 968 q 440 1044 415 1024 q 496 1064 465 1064 q 545 1042 526 1064 q 564 978 564 1021 q 512 837 564 907 q 383 717 460 767 m 118 717 l 90 753 q 179 907 179 832 q 165 949 179 929 q 150 996 150 968 q 175 1044 150 1024 q 231 1064 200 1064 q 280 1042 261 1064 q 299 978 299 1021 q 247 837 299 907 q 118 717 194 767 z "},"„":{"ha":590,"x_min":4,"x_max":483,"o":"m 300 -193 l 269 -157 q 338 -71 311 -115 q 364 -3 364 -26 q 349 42 364 19 q 335 90 335 65 q 356 136 335 115 q 407 157 376 157 q 460 132 438 157 q 483 58 483 107 q 437 -62 483 8 q 300 -193 390 -133 m 35 -193 l 4 -157 q 72 -71 46 -115 q 99 -3 99 -26 q 84 42 99 19 q 69 90 69 65 q 90 136 69 115 q 142 157 111 157 q 195 132 172 157 q 218 58 218 107 q 172 -62 218 8 q 35 -193 125 -133 z "},"†":{"ha":706,"x_min":99,"x_max":686,"o":"m 246 -304 l 190 -304 l 249 232 l 331 494 q 361 558 344 542 l 351 574 q 283 554 319 560 l 122 526 l 99 651 l 128 671 l 296 638 q 357 619 351 625 l 374 632 q 367 688 367 650 l 367 696 l 383 936 l 517 983 l 532 958 l 450 699 q 421 635 435 649 l 432 618 q 499 639 468 633 l 665 667 l 686 542 l 660 522 l 485 556 q 425 574 433 567 l 406 558 q 414 501 414 508 l 414 496 l 397 253 l 246 -304 z "},"‡":{"ha":706,"x_min":1,"x_max":686,"o":"m 589 18 l 563 -1 l 388 32 q 328 50 336 43 l 308 35 q 317 -22 317 -15 l 317 -28 l 301 -260 l 168 -304 l 154 -281 l 233 -29 q 264 35 251 22 l 254 50 q 186 31 222 36 l 25 3 l 1 128 l 31 147 l 199 114 q 260 96 254 101 l 276 108 q 269 172 269 129 l 269 329 l 331 494 q 361 558 353 550 l 351 574 q 283 554 319 560 l 122 526 l 99 651 l 128 671 l 296 638 q 357 619 350 626 l 374 632 q 367 688 367 650 l 383 936 l 517 983 l 532 958 l 450 699 q 421 635 435 649 l 432 618 q 499 639 460 632 l 665 667 l 686 542 l 660 522 l 485 556 q 425 574 433 567 l 406 558 q 412 534 406 556 q 418 496 418 513 l 418 351 l 353 175 q 324 111 338 125 l 336 94 q 401 115 374 110 l 568 143 l 589 18 z "},"•":{"ha":476,"x_min":74,"x_max":449,"o":"m 449 375 q 449 335 449 375 q 392 235 449 294 q 253 176 335 176 q 123 218 172 176 q 74 338 74 260 q 129 474 74 415 q 282 532 185 532 q 399 494 350 532 q 449 375 449 456 z "},"…":{"ha":1194,"x_min":100,"x_max":1035,"o":"m 939 -12 q 861 61 861 -12 q 890 128 861 99 q 958 157 918 157 q 1035 88 1035 157 q 1006 17 1035 47 q 939 -12 976 -12 m 558 -12 q 481 61 481 -12 q 509 128 481 99 q 578 157 538 157 q 654 88 654 157 q 625 17 654 47 q 558 -12 596 -12 m 178 -12 q 100 61 100 -12 q 128 128 100 99 q 197 157 157 157 q 274 88 274 157 q 244 17 274 47 q 178 -12 215 -12 z "},"‰":{"ha":1643,"x_min":108,"x_max":1621,"o":"m 307 397 q 162 465 215 397 q 108 633 108 532 q 191 881 108 768 q 393 994 274 994 q 538 926 483 994 q 592 757 592 858 q 508 508 592 619 q 307 397 425 397 m 328 0 l 236 0 l 865 963 l 956 963 l 328 0 m 326 450 q 444 540 406 450 q 482 736 482 629 q 374 942 482 942 q 283 889 319 942 q 218 623 218 796 q 326 450 218 450 m 1336 -12 q 1191 55 1244 -12 q 1138 224 1138 122 q 1220 472 1138 358 q 1422 585 1303 585 q 1567 517 1513 585 q 1621 347 1621 449 q 1538 99 1621 210 q 1336 -12 1454 -12 m 815 -12 q 670 55 724 -12 q 617 224 617 122 q 699 472 617 358 q 901 585 782 585 q 1046 517 992 585 q 1100 347 1100 449 q 1017 99 1100 210 q 815 -12 933 -12 m 1356 40 q 1473 130 1435 40 q 1511 326 1511 219 q 1403 532 1511 532 q 1311 479 1349 532 q 1247 213 1247 386 q 1356 40 1247 40 m 835 40 q 952 130 914 40 q 990 326 990 219 q 882 532 990 532 q 792 479 828 532 q 726 213 726 386 q 835 40 726 40 z "},"‹":{"ha":394,"x_min":103,"x_max":396,"o":"m 314 108 l 281 86 l 103 339 l 103 361 l 371 597 l 396 575 l 206 344 l 314 108 z "},"›":{"ha":394,"x_min":33,"x_max":333,"o":"m 329 339 l 58 86 l 33 108 l 222 350 l 115 575 l 149 597 l 333 361 l 329 339 z "},"⁂":{"ha":1071,"x_min":18,"x_max":1054,"o":"m 794 624 l 775 621 l 667 718 q 642 749 643 739 l 631 743 q 638 703 638 713 l 628 557 l 540 528 l 531 543 l 583 701 q 601 743 594 736 l 593 749 q 558 717 579 729 l 425 629 l 368 685 l 379 703 l 539 763 q 582 774 568 774 l 585 785 q 544 793 565 785 l 419 850 l 451 936 l 471 939 l 579 840 q 604 810 603 819 l 615 815 q 610 851 610 826 l 610 857 l 619 1003 l 707 1033 l 717 1017 l 665 858 q 646 817 651 822 l 654 811 q 689 843 668 831 l 822 931 l 878 875 l 867 857 l 708 796 q 665 785 679 785 l 663 774 q 701 767 688 774 l 826 708 l 794 624 m 971 154 l 951 151 l 843 249 q 818 279 819 269 l 807 274 q 814 233 814 243 l 804 88 l 717 58 l 707 74 l 760 232 q 778 274 771 267 l 769 279 q 735 247 756 260 l 601 160 l 544 215 l 556 233 l 715 293 q 758 304 744 304 l 761 315 q 721 324 742 315 l 596 381 l 628 467 l 647 469 l 756 371 q 781 340 779 350 l 792 346 q 786 382 786 357 l 786 388 l 796 533 l 883 564 l 893 547 l 842 389 q 822 347 828 353 l 831 342 q 865 374 844 361 l 999 461 l 1054 406 l 1043 388 l 885 326 q 842 315 856 315 l 839 304 q 878 297 864 304 l 1003 239 l 971 154 m 444 154 l 425 151 l 317 249 q 292 279 293 269 l 281 274 q 288 233 288 242 l 278 88 l 190 58 l 181 74 l 233 232 q 251 274 244 267 l 243 279 q 208 247 229 260 l 75 160 l 18 215 l 29 233 l 189 293 q 232 304 218 304 l 235 315 q 194 324 215 315 l 69 381 l 101 467 l 121 469 l 229 371 q 254 340 253 350 l 265 346 q 260 382 260 357 l 260 388 l 269 533 l 357 564 l 367 547 l 315 389 q 296 347 301 353 l 304 342 q 339 374 318 361 l 472 461 l 528 406 l 517 388 l 358 326 q 315 315 329 315 l 313 304 q 351 297 338 304 l 476 239 l 444 154 z "},"⁄":{"ha":233,"x_min":-208,"x_max":511,"o":"m -117 0 l -208 0 l 421 963 l 511 963 l -117 0 z "},"€":{"ha":825,"x_min":50,"x_max":864,"o":"m 836 667 l 756 656 q 726 833 749 808 q 678 854 718 843 q 597 865 638 865 q 415 788 486 865 q 315 582 344 710 l 629 582 l 615 511 l 67 511 l 81 582 l 164 582 q 324 838 208 738 q 632 939 439 939 q 770 925 699 939 q 864 900 842 911 q 836 667 864 808 m 719 278 l 796 275 q 763 50 785 157 q 637 7 718 26 q 475 -12 556 -12 q 237 86 324 -12 q 140 342 150 185 l 50 342 l 63 413 l 597 413 l 585 342 l 299 342 q 373 134 310 203 q 522 65 436 65 q 598 78 563 65 q 651 103 633 90 q 719 278 668 115 z "},"№":{"ha":1311,"x_min":28,"x_max":1378,"o":"m 735 0 l 649 0 l 371 806 l 360 806 l 242 132 q 239 107 239 118 q 271 69 239 72 l 386 54 l 379 0 l 28 0 l 29 54 q 123 82 104 67 q 150 140 142 97 l 269 822 q 274 859 274 842 q 255 888 274 876 q 179 908 236 899 l 188 963 l 463 963 l 685 307 l 694 307 l 782 794 q 786 845 786 819 q 762 885 786 871 q 668 908 738 900 l 676 963 l 1013 963 l 1008 908 l 919 892 q 889 872 896 886 q 886 856 888 867 l 735 0 m 1378 731 q 1253 450 1378 553 q 1103 397 1188 397 q 974 442 1018 397 q 931 567 931 488 q 960 722 931 647 q 1054 849 989 796 q 1205 903 1119 903 q 1334 857 1290 903 q 1378 731 1378 811 m 1125 450 q 1195 471 1168 450 q 1245 568 1222 492 q 1268 718 1268 644 q 1182 850 1268 850 q 1107 824 1138 850 q 1064 731 1086 808 q 1042 581 1042 654 q 1125 450 1042 450 m 1318 243 l 879 243 l 893 317 l 1332 317 l 1318 243 z "},"℞":{"ha":906,"x_min":29,"x_max":926,"o":"m 883 339 l 807 350 q 761 317 792 350 q 697 232 731 285 l 760 111 q 794 69 775 81 q 864 54 814 58 l 857 0 l 657 0 l 613 92 q 572 44 596 67 q 462 -11 518 -11 q 406 15 406 -11 q 419 70 406 42 q 446 99 432 99 l 524 88 q 588 143 544 88 l 451 422 l 335 422 l 285 138 q 281 106 281 117 q 307 69 281 76 l 374 54 l 367 0 l 29 0 l 29 54 q 123 82 104 67 q 150 140 142 97 l 269 822 q 274 859 274 842 q 255 887 274 876 q 179 908 236 897 l 188 963 l 557 963 q 750 906 683 963 q 817 745 817 850 q 751 560 817 640 q 582 449 685 481 l 582 443 q 607 413 592 440 l 674 281 q 757 393 717 349 q 869 449 811 449 q 926 422 926 449 q 912 367 926 396 q 883 339 897 339 m 347 493 l 410 493 q 597 553 529 493 q 665 716 665 614 q 620 853 665 818 q 501 889 575 889 l 444 889 q 411 856 417 889 l 347 493 z "},"™":{"ha":1418,"x_min":153,"x_max":1476,"o":"m 1043 597 l 1044 575 l 1054 575 q 1061 592 1056 583 l 1276 965 l 1476 965 l 1472 921 l 1414 911 q 1393 889 1394 908 l 1343 493 q 1340 458 1340 465 q 1360 439 1340 442 l 1406 431 l 1401 386 l 1144 386 l 1144 431 q 1219 482 1213 440 l 1274 826 q 1283 858 1278 847 l 1275 860 l 1032 431 l 951 431 l 879 818 q 878 844 878 826 l 878 854 l 869 854 l 783 486 q 781 465 781 469 q 806 438 781 443 l 844 431 l 839 386 l 646 386 l 643 431 q 706 447 693 440 q 724 478 718 454 l 819 869 q 822 893 822 883 q 810 908 822 903 q 763 921 799 914 l 775 965 l 971 965 l 1043 597 m 399 490 l 393 454 q 417 439 393 443 l 471 431 l 461 386 l 189 386 l 189 431 q 260 448 246 439 q 278 482 274 457 l 358 911 l 311 911 q 241 900 251 911 q 226 876 231 889 q 215 850 221 863 q 206 826 210 838 l 153 832 q 197 965 167 904 l 657 965 q 661 915 661 940 q 653 832 661 890 l 599 826 q 578 907 589 906 q 525 911 557 911 l 476 911 l 399 490 z "},"Ω":{"ha":997,"x_min":47,"x_max":986,"o":"m 844 0 l 517 0 l 511 44 q 633 179 586 124 q 728 311 679 235 q 825 628 825 458 q 767 824 825 747 q 600 901 708 901 q 453 860 517 901 q 356 754 390 819 q 286 483 286 628 q 356 178 286 338 q 389 108 364 161 q 418 44 414 54 l 396 0 l 67 0 q 47 144 47 76 q 49 231 47 213 l 121 238 q 153 134 144 154 q 176 113 163 114 q 264 107 215 107 l 300 107 l 307 117 q 271 143 286 125 q 135 494 135 310 q 268 841 135 707 q 629 975 401 975 q 891 890 796 975 q 986 672 986 806 q 919 415 986 538 q 692 147 851 293 q 643 117 669 128 l 644 107 l 688 107 q 778 113 739 107 q 809 135 792 114 q 879 238 826 156 l 949 231 q 844 0 910 101 z "},"℮":{"ha":1154,"x_min":28,"x_max":1126,"o":"m 931 178 l 1011 178 q 822 39 938 90 q 575 -12 707 -12 q 188 132 349 -12 q 28 481 28 276 q 188 830 28 685 q 576 975 349 975 q 965 830 804 975 q 1126 479 1126 685 l 1126 467 l 236 467 q 229 460 229 467 l 229 192 q 240 160 229 175 q 576 14 386 14 q 773 58 681 14 q 931 178 865 101 m 924 503 l 924 772 q 911 804 924 792 q 577 944 768 944 q 243 801 386 944 q 229 767 229 788 l 229 503 q 236 493 229 493 l 918 493 q 924 503 924 493 z "},"←":{"ha":1072,"x_min":103,"x_max":1053,"o":"m 1053 453 l 240 453 l 239 447 q 290 401 256 436 l 514 178 l 458 122 l 103 479 l 103 500 l 458 857 l 514 801 l 290 578 q 239 532 253 540 l 240 526 l 1053 526 l 1053 453 z "},"↑":{"ha":861,"x_min":92,"x_max":829,"o":"m 503 0 l 418 0 l 418 826 l 413 828 q 374 779 399 804 l 149 556 l 92 608 l 447 963 l 474 963 l 829 608 l 772 556 l 547 779 q 508 828 518 808 l 503 826 l 503 0 z "},"→":{"ha":1072,"x_min":103,"x_max":1053,"o":"m 697 122 l 642 178 l 865 401 q 917 447 900 436 l 915 453 l 103 453 l 103 526 l 915 526 l 917 532 q 865 578 903 540 l 642 801 l 697 857 l 1053 500 l 1053 479 l 697 122 z "},"↓":{"ha":861,"x_min":88,"x_max":825,"o":"m 825 354 l 469 0 l 443 0 l 88 354 l 144 407 l 369 183 q 408 135 394 158 l 414 136 l 414 963 l 499 963 l 499 136 l 504 135 q 543 183 514 154 l 768 407 l 825 354 z "},"∂":{"ha":703,"x_min":28,"x_max":728,"o":"m 567 517 q 583 674 583 607 q 542 845 583 789 q 433 901 501 901 q 358 881 396 901 q 303 844 321 861 q 251 794 285 828 q 205 822 232 800 q 163 872 178 843 q 423 975 275 975 q 649 867 571 975 q 728 595 728 760 q 641 262 728 431 q 414 25 554 93 q 242 -14 336 -14 q 88 46 147 -14 q 28 207 28 106 q 140 470 28 356 q 386 585 251 585 q 567 517 492 585 m 542 424 q 493 488 532 463 q 407 513 454 513 q 275 451 335 513 q 188 319 215 390 q 160 192 160 247 q 188 97 160 136 q 272 58 217 58 q 379 101 328 58 q 463 208 431 144 q 542 424 524 332 z "},"∆":{"ha":890,"x_min":22,"x_max":789,"o":"m 778 0 l 22 0 l 32 56 l 536 975 l 632 975 l 789 58 l 778 0 m 639 74 l 539 775 q 538 797 538 782 q 539 815 538 813 l 529 815 l 136 74 l 639 74 z "},"∏":{"ha":1071,"x_min":131,"x_max":963,"o":"m 957 -93 l 617 -93 l 608 -39 q 698 -11 682 -26 q 714 47 714 4 l 714 810 q 697 867 714 854 q 608 879 681 879 l 396 879 q 371 843 371 879 l 371 14 q 399 -22 371 -17 l 485 -39 l 479 -93 l 139 -93 l 131 -39 q 220 -11 204 -26 q 236 47 236 4 l 236 822 q 220 881 236 865 q 131 908 204 896 l 139 963 l 957 963 l 963 908 l 876 892 q 849 856 849 886 l 849 14 q 876 -22 849 -17 l 963 -39 l 957 -93 z "},"∑":{"ha":843,"x_min":58,"x_max":750,"o":"m 728 -93 l 58 -93 l 58 -47 l 394 396 l 58 926 l 58 963 l 722 963 q 735 835 735 894 q 732 718 735 776 l 644 708 q 588 883 608 882 q 382 892 529 892 l 249 892 l 246 882 q 276 850 258 876 l 529 451 l 199 14 l 501 14 q 618 19 568 14 q 642 49 632 21 q 675 186 653 78 l 747 179 q 750 110 750 135 q 728 -93 750 -26 z "},"−":{"ha":647,"x_min":76,"x_max":599,"o":"m 599 339 l 76 339 l 76 413 l 599 413 l 599 339 z "},"√":{"ha":819,"x_min":90,"x_max":858,"o":"m 582 -137 l 554 -146 l 226 531 q 185 560 213 560 q 103 546 158 560 l 90 590 q 269 697 208 667 l 289 690 l 553 136 l 561 139 l 790 1249 l 858 1236 l 582 -137 z "},"∞":{"ha":1054,"x_min":88,"x_max":997,"o":"m 526 311 q 303 178 436 178 q 151 233 215 178 q 88 392 88 288 q 155 561 88 496 q 326 626 222 626 q 558 493 475 626 q 782 626 649 626 q 933 572 869 626 q 997 413 997 517 q 930 243 997 308 q 758 178 863 178 q 526 311 610 178 m 597 431 q 650 343 628 375 q 708 285 672 311 q 790 258 743 258 q 876 300 838 258 q 915 406 915 342 q 880 512 915 469 q 784 554 844 554 q 675 519 724 554 q 597 431 626 483 m 488 374 q 435 460 457 429 q 378 519 414 492 q 295 546 342 546 q 209 504 249 546 q 169 400 169 463 q 210 294 169 338 q 315 250 250 250 q 488 374 424 250 z "},"∫":{"ha":531,"x_min":17,"x_max":525,"o":"m 326 817 l 340 158 q 267 -80 340 31 q 126 -190 193 -190 q 21 -181 76 -190 q 17 -133 17 -164 q 40 -67 17 -103 q 127 -81 94 -81 q 181 -71 160 -81 q 215 176 215 -33 l 201 838 q 275 1076 201 967 q 415 1186 349 1186 q 521 1176 465 1186 q 525 1128 525 1160 q 501 1063 525 1097 q 413 1076 447 1076 q 361 1067 379 1076 q 326 817 326 1025 z "},"≈":{"ha":647,"x_min":65,"x_max":658,"o":"m 610 589 l 658 556 q 596 467 619 496 q 508 417 556 417 q 458 424 483 417 q 363 458 433 432 q 268 492 292 485 q 219 500 244 500 q 114 432 175 500 l 65 465 q 144 574 111 543 q 210 604 176 604 q 266 597 243 604 q 438 535 289 590 q 501 521 476 521 q 544 531 525 521 q 575 553 564 542 q 610 589 586 564 m 610 381 l 658 347 q 596 258 619 288 q 508 208 556 208 q 458 216 483 208 q 363 250 433 224 q 268 284 292 276 q 219 292 244 292 q 114 224 175 292 l 65 257 q 144 365 111 335 q 210 396 176 396 q 266 389 243 396 q 438 326 289 382 q 501 313 476 313 q 544 323 525 313 q 575 344 564 333 q 610 381 586 356 z "},"≠":{"ha":647,"x_min":90,"x_max":613,"o":"m 613 240 l 336 240 l 243 60 l 168 88 l 246 240 l 90 240 l 90 314 l 283 314 l 344 431 l 90 431 l 90 504 l 382 504 l 475 685 l 551 657 l 472 504 l 613 504 l 613 431 l 435 431 l 374 314 l 613 314 l 613 240 z "},"≤":{"ha":647,"x_min":78,"x_max":600,"o":"m 599 140 l 78 435 l 78 539 l 599 835 l 599 739 l 156 486 l 599 236 l 599 140 m 600 0 l 78 0 l 78 71 l 600 71 l 600 0 z "},"≥":{"ha":647,"x_min":78,"x_max":600,"o":"m 600 435 l 79 140 l 79 236 l 522 486 l 79 739 l 79 835 l 600 539 l 600 435 m 600 0 l 78 0 l 78 71 l 600 71 l 600 0 z "},"■":{"ha":1389,"x_min":113,"x_max":1276,"o":"m 1276 0 l 113 0 l 113 1164 l 1276 1164 l 1276 0 z "},"□":{"ha":1389,"x_min":113,"x_max":1276,"o":"m 1276 0 l 113 0 l 113 1164 l 1276 1164 l 1276 0 m 1193 83 l 1193 1081 l 196 1081 l 196 83 l 1193 83 z "},"◊":{"ha":686,"x_min":57,"x_max":693,"o":"m 426 -93 l 307 -93 l 57 490 l 307 1072 l 426 1072 l 693 490 l 426 -93 m 365 -4 l 586 490 l 365 983 l 164 490 l 365 -4 z "},"◌":{"ha":694,"x_min":14,"x_max":703,"o":"m 579 596 l 536 557 q 388 614 468 606 l 388 674 q 579 596 496 665 m 329 674 l 329 614 q 182 557 247 606 l 138 596 q 329 674 224 665 m 703 368 l 642 368 q 579 514 636 451 l 621 557 q 703 368 692 475 m 74 368 l 14 368 q 94 557 22 472 l 136 513 q 74 368 85 453 m 626 117 l 583 158 q 642 313 636 232 l 703 313 q 626 117 694 197 m 132 160 l 90 117 q 14 313 22 197 l 74 313 q 132 160 79 229 m 543 117 l 583 76 q 388 -6 493 3 l 388 54 q 543 117 469 60 m 329 54 l 329 -6 q 132 76 222 3 l 171 117 q 329 54 244 60 z "},"ﬀ":{"ha":915,"x_min":-154,"x_max":1122,"o":"m 347 -156 l 439 -174 q 496 -107 476 -174 q 529 53 515 -40 q 547 168 543 146 l 613 582 l 294 582 l 233 200 q 113 -169 196 -33 q -89 -304 31 -304 q -154 -267 -154 -304 q -136 -198 -154 -240 q -93 -156 -118 -156 l -1 -174 q 56 -107 36 -174 q 89 53 75 -40 q 107 168 103 146 l 172 582 l 76 582 l 82 640 l 160 657 q 189 688 183 663 l 193 710 q 311 952 219 874 q 508 1031 403 1031 q 619 1015 571 1031 q 592 851 619 944 l 518 851 l 521 900 q 510 941 521 929 q 456 953 500 953 q 403 940 413 953 q 315 710 342 876 l 308 665 l 601 665 q 629 688 624 665 l 633 710 q 762 973 664 874 q 1003 1072 860 1072 q 1122 1057 1069 1072 q 1094 865 1122 974 l 1021 865 l 1024 928 q 1011 979 1024 964 q 942 994 999 994 q 863 975 886 994 q 756 710 788 910 l 749 665 l 896 665 l 882 582 l 735 582 l 674 200 q 553 -169 636 -33 q 351 -304 471 -304 q 286 -267 286 -304 q 304 -198 286 -240 q 347 -156 322 -156 z "},"ﬁ":{"ha":794,"x_min":-154,"x_max":778,"o":"m 456 665 l 728 672 l 740 658 q 721 507 740 615 l 657 167 q 649 103 649 108 q 671 69 649 69 q 754 103 688 69 l 778 65 q 604 -12 690 -12 q 529 75 529 -12 q 544 193 529 108 l 599 494 q 606 540 606 533 q 574 574 606 565 q 442 582 543 582 l 294 582 l 233 200 q 113 -169 196 -33 q -89 -304 31 -304 q -154 -267 -154 -304 q -136 -198 -154 -240 q -93 -156 -118 -156 l -1 -174 q 56 -107 36 -174 q 89 53 75 -40 q 107 168 103 146 l 172 582 l 76 582 l 82 640 l 160 657 q 189 688 183 663 l 193 710 q 324 980 221 888 q 594 1072 428 1072 q 724 1057 667 1072 q 696 865 724 974 l 622 865 l 625 928 q 609 979 625 964 q 521 994 593 994 q 422 975 449 994 q 315 710 349 919 l 308 665 l 456 665 z "},"ﬂ":{"ha":794,"x_min":-154,"x_max":815,"o":"m -93 -156 l -1 -174 q 56 -107 36 -174 q 89 53 75 -40 q 107 168 103 146 l 172 582 l 76 582 l 82 640 l 160 657 q 189 688 183 663 l 193 710 q 328 985 224 899 q 578 1072 433 1072 q 815 1022 724 1072 q 799 907 814 992 l 654 167 q 646 99 646 129 q 668 69 646 69 q 751 103 685 69 l 775 65 q 601 -12 688 -12 q 526 75 526 -12 q 542 193 526 108 l 676 893 q 679 938 679 915 q 661 977 679 960 q 622 998 643 994 q 561 1001 601 1001 q 476 991 521 1001 q 422 975 432 981 q 315 710 350 931 l 308 665 l 456 665 l 442 582 l 294 582 l 233 200 q 113 -169 196 -33 q -89 -304 31 -304 q -154 -267 -154 -304 q -136 -198 -154 -240 q -93 -156 -118 -156 z "},"ﬃ":{"ha":1233,"x_min":-154,"x_max":1217,"o":"m 894 665 l 1167 672 l 1179 658 q 1160 507 1179 615 l 1096 167 q 1088 103 1088 108 q 1110 69 1088 69 q 1193 103 1126 69 l 1217 65 q 1043 -12 1129 -12 q 968 75 968 -12 q 983 193 968 108 l 1038 494 q 1044 540 1044 533 q 1013 574 1044 565 q 881 582 982 582 l 733 582 l 672 200 q 552 -169 635 -33 q 350 -304 469 -304 q 285 -267 285 -304 q 303 -198 285 -240 q 346 -156 321 -156 l 438 -174 q 494 -107 475 -174 q 528 53 514 -40 q 546 168 542 146 l 611 582 l 294 582 l 233 200 q 113 -169 196 -33 q -89 -304 31 -304 q -154 -267 -154 -304 q -136 -198 -154 -240 q -93 -156 -118 -156 l -1 -174 q 56 -107 36 -174 q 89 53 75 -40 q 107 168 103 146 l 172 582 l 76 582 l 82 640 l 160 657 q 189 688 183 663 l 193 710 q 311 952 219 874 q 508 1031 403 1031 q 619 1015 571 1031 q 592 851 619 944 l 518 851 l 521 900 q 510 941 521 929 q 456 953 500 953 q 403 940 413 953 q 315 710 342 876 l 308 665 l 600 665 q 628 688 622 665 l 632 710 q 763 980 660 888 q 1033 1072 867 1072 q 1163 1057 1106 1072 q 1135 865 1163 974 l 1061 865 l 1064 928 q 1048 979 1064 964 q 960 994 1032 994 q 861 975 888 994 q 754 710 788 919 l 747 665 l 894 665 z "},"ﬄ":{"ha":1233,"x_min":-154,"x_max":1254,"o":"m 518 851 l 521 900 q 510 941 521 929 q 456 953 500 953 q 403 940 413 953 q 315 710 342 876 l 308 665 l 600 665 q 628 688 622 665 l 632 710 q 767 985 663 899 q 1017 1072 872 1072 q 1254 1022 1163 1072 q 1238 907 1253 992 l 1093 167 q 1085 99 1085 129 q 1107 69 1085 69 q 1190 103 1124 69 l 1214 65 q 1040 -12 1126 -12 q 965 75 965 -12 q 981 193 965 108 l 1114 889 q 1118 935 1118 910 q 1100 977 1118 960 q 1061 998 1082 994 q 1000 1001 1040 1001 q 915 991 960 1001 q 861 975 871 981 q 754 710 789 931 l 747 665 l 894 665 l 881 582 l 733 582 l 672 200 q 552 -169 635 -33 q 350 -304 469 -304 q 285 -267 285 -304 q 303 -198 285 -240 q 346 -156 321 -156 l 438 -174 q 494 -107 475 -174 q 528 53 514 -40 q 546 168 542 146 l 611 582 l 294 582 l 233 200 q 113 -169 196 -33 q -89 -304 31 -304 q -154 -267 -154 -304 q -136 -198 -154 -240 q -93 -156 -118 -156 l -1 -174 q 56 -107 36 -174 q 89 53 75 -40 q 107 168 103 146 l 172 582 l 76 582 l 82 640 l 160 657 q 189 688 183 663 l 193 710 q 311 952 219 874 q 508 1031 403 1031 q 619 1015 571 1031 q 592 851 619 944 l 518 851 z "}}}
